999
"DXF R12 Output" (www.mydxf.blogspot.com)
 0 
SECTION
 2 
HEADER
 9 
$ACADVER
 1 
AC1009
 9 
$EXTMIN
 10 
 0 
 20 
 0 
 9 
$EXTMAX
 10 
 8.5 
 20 
 11 
 0 
ENDSEC
 0 
SECTION
 2 
ENTITIES
0
POLYLINE
8
Layer 1
62
250
70
0
10
0.000000
20
0.000000
66
1
0
VERTEX
8
Layer 1
10
225.138507
20
391.875636
70
0
0
VERTEX
8
Layer 1
10
206.138537
20
391.875636
70
0
0
VERTEX
8
Layer 1
10
206.138537
20
486.625436
70
0
0
VERTEX
8
Layer 1
10
225.138507
20
486.625436
70
0
0
SEQEND
8
Layer 1
0
POLYLINE
8
Layer 1
62
250
70
0
10
0.000000
20
0.000000
66
1
0
VERTEX
8
Layer 1
10
235.138465
20
486.625436
70
0
0
VERTEX
8
Layer 1
10
257.138450
20
486.625436
70
0
0
SEQEND
8
Layer 1
0
POLYLINE
8
Layer 1
62
250
70
0
10
0.000000
20
0.000000
66
1
0
VERTEX
8
Layer 1
10
267.138408
20
486.625436
70
0
0
VERTEX
8
Layer 1
10
289.138358
20
486.625436
70
0
0
SEQEND
8
Layer 1
0
POLYLINE
8
Layer 1
62
250
70
0
10
0.000000
20
0.000000
66
1
0
VERTEX
8
Layer 1
10
299.138351
20
486.625436
70
0
0
VERTEX
8
Layer 1
10
318.138285
20
486.625436
70
0
0
VERTEX
8
Layer 1
10
318.138285
20
391.875636
70
0
0
VERTEX
8
Layer 1
10
299.138351
20
391.875636
70
0
0
SEQEND
8
Layer 1
0
POLYLINE
8
Layer 1
62
250
70
0
10
0.000000
20
0.000000
66
1
0
VERTEX
8
Layer 1
10
289.138358
20
391.875636
70
0
0
VERTEX
8
Layer 1
10
267.138408
20
391.875636
70
0
0
SEQEND
8
Layer 1
0
POLYLINE
8
Layer 1
62
250
70
0
10
0.000000
20
0.000000
66
1
0
VERTEX
8
Layer 1
10
257.138450
20
391.875636
70
0
0
VERTEX
8
Layer 1
10
235.138465
20
391.875636
70
0
0
SEQEND
8
Layer 1
0
POLYLINE
8
Layer 1
62
250
70
0
10
0.000000
20
0.000000
66
1
0
VERTEX
8
Layer 1
10
257.138450
20
486.625436
70
0
0
VERTEX
8
Layer 1
10
257.138450
20
489.425427
70
0
0
VERTEX
8
Layer 1
10
267.138408
20
489.425427
70
0
0
VERTEX
8
Layer 1
10
267.138408
20
486.625436
70
0
0
SEQEND
8
Layer 1
0
POLYLINE
8
Layer 1
62
250
70
0
10
0.000000
20
0.000000
66
1
0
VERTEX
8
Layer 1
10
225.138507
20
486.625436
70
0
0
VERTEX
8
Layer 1
10
225.138507
20
489.425427
70
0
0
VERTEX
8
Layer 1
10
235.138465
20
489.425427
70
0
0
VERTEX
8
Layer 1
10
235.138465
20
486.625436
70
0
0
SEQEND
8
Layer 1
0
POLYLINE
8
Layer 1
62
250
70
0
10
0.000000
20
0.000000
66
1
0
VERTEX
8
Layer 1
10
289.138358
20
486.625436
70
0
0
VERTEX
8
Layer 1
10
289.138358
20
489.425427
70
0
0
VERTEX
8
Layer 1
10
299.138351
20
489.425427
70
0
0
VERTEX
8
Layer 1
10
299.138351
20
486.625436
70
0
0
SEQEND
8
Layer 1
0
POLYLINE
8
Layer 1
62
250
70
0
10
0.000000
20
0.000000
66
1
0
VERTEX
8
Layer 1
10
267.138408
20
391.875636
70
0
0
VERTEX
8
Layer 1
10
267.138408
20
389.075645
70
0
0
VERTEX
8
Layer 1
10
257.138450
20
389.075645
70
0
0
VERTEX
8
Layer 1
10
257.138450
20
391.875636
70
0
0
SEQEND
8
Layer 1
0
POLYLINE
8
Layer 1
62
250
70
0
10
0.000000
20
0.000000
66
1
0
VERTEX
8
Layer 1
10
235.138465
20
391.875636
70
0
0
VERTEX
8
Layer 1
10
235.138465
20
389.075645
70
0
0
VERTEX
8
Layer 1
10
225.138507
20
389.075645
70
0
0
VERTEX
8
Layer 1
10
225.138507
20
391.875636
70
0
0
SEQEND
8
Layer 1
0
POLYLINE
8
Layer 1
62
250
70
0
10
0.000000
20
0.000000
66
1
0
VERTEX
8
Layer 1
10
299.138351
20
391.875636
70
0
0
VERTEX
8
Layer 1
10
299.138351
20
389.075645
70
0
0
VERTEX
8
Layer 1
10
289.138358
20
389.075645
70
0
0
VERTEX
8
Layer 1
10
289.138358
20
391.875636
70
0
0
SEQEND
8
Layer 1
0
POLYLINE
8
Layer 1
62
250
70
1
10
0.000000
20
0.000000
66
1
0
VERTEX
8
Layer 1
10
216.562039
20
343.241058
70
0
0
VERTEX
8
Layer 1
10
217.542046
20
343.144097
70
0
0
VERTEX
8
Layer 1
10
218.475456
20
342.860454
70
0
0
VERTEX
8
Layer 1
10
219.336041
20
342.400996
70
0
0
VERTEX
8
Layer 1
10
220.097571
20
341.776586
70
0
0
VERTEX
8
Layer 1
10
220.721975
20
341.015052
70
0
0
VERTEX
8
Layer 1
10
221.181428
20
340.154464
70
0
0
VERTEX
8
Layer 1
10
221.465063
20
339.221052
70
0
0
VERTEX
8
Layer 1
10
221.562018
20
338.241044
70
0
0
VERTEX
8
Layer 1
10
221.460430
20
337.233376
70
0
0
VERTEX
8
Layer 1
10
221.169083
20
336.294832
70
0
0
VERTEX
8
Layer 1
10
220.708083
20
335.445518
70
0
0
VERTEX
8
Layer 1
10
220.097537
20
334.705540
70
0
0
VERTEX
8
Layer 1
10
219.357552
20
334.095003
70
0
0
VERTEX
8
Layer 1
10
218.508232
20
333.634013
70
0
0
VERTEX
8
Layer 1
10
217.569685
20
333.342677
70
0
0
VERTEX
8
Layer 1
10
216.562016
20
333.241100
70
0
0
VERTEX
8
Layer 1
10
215.554348
20
333.342687
70
0
0
VERTEX
8
Layer 1
10
214.615803
20
333.634032
70
0
0
VERTEX
8
Layer 1
10
213.766488
20
334.095029
70
0
0
VERTEX
8
Layer 1
10
213.026508
20
334.705573
70
0
0
VERTEX
8
Layer 1
10
212.415969
20
335.445557
70
0
0
VERTEX
8
Layer 1
10
211.954978
20
336.294876
70
0
0
VERTEX
8
Layer 1
10
211.663639
20
337.233422
70
0
0
VERTEX
8
Layer 1
10
211.562060
20
338.241091
70
0
0
VERTEX
8
Layer 1
10
211.663644
20
339.248760
70
0
0
VERTEX
8
Layer 1
10
211.954987
20
340.187305
70
0
0
VERTEX
8
Layer 1
10
212.415982
20
341.036621
70
0
0
VERTEX
8
Layer 1
10
213.026524
20
341.776603
70
0
0
VERTEX
8
Layer 1
10
213.766507
20
342.387143
70
0
0
VERTEX
8
Layer 1
10
214.615825
20
342.848136
70
0
0
VERTEX
8
Layer 1
10
215.554371
20
343.139477
70
0
0
VERTEX
8
Layer 1
10
216.562039
20
343.241058
70
0
0
VERTEX
8
Layer 1
10
216.562039
20
343.241058
70
0
0
SEQEND
8
Layer 1
0
POLYLINE
8
Layer 1
62
250
70
1
10
0.000000
20
0.000000
66
1
0
VERTEX
8
Layer 1
10
135.262145
20
343.241058
70
0
0
VERTEX
8
Layer 1
10
136.242162
20
343.144096
70
0
0
VERTEX
8
Layer 1
10
137.175582
20
342.860452
70
0
0
VERTEX
8
Layer 1
10
138.036175
20
342.400991
70
0
0
VERTEX
8
Layer 1
10
138.797714
20
341.776578
70
0
0
VERTEX
8
Layer 1
10
139.422128
20
341.015039
70
0
0
VERTEX
8
Layer 1
10
139.881589
20
340.154445
70
0
0
VERTEX
8
Layer 1
10
140.165233
20
339.221025
70
0
0
VERTEX
8
Layer 1
10
140.262195
20
338.241009
70
0
0
VERTEX
8
Layer 1
10
140.042654
20
336.774881
70
0
0
VERTEX
8
Layer 1
10
139.419535
20
335.463130
70
0
0
VERTEX
8
Layer 1
10
138.446092
20
334.385458
70
0
0
VERTEX
8
Layer 1
10
137.175582
20
333.621565
70
0
0
VERTEX
8
Layer 1
10
135.737042
20
333.263332
70
0
0
VERTEX
8
Layer 1
10
134.286684
20
333.337034
70
0
0
VERTEX
8
Layer 1
10
132.918524
20
333.823970
70
0
0
VERTEX
8
Layer 1
10
131.726576
20
334.705440
70
0
0
VERTEX
8
Layer 1
10
130.845107
20
335.897388
70
0
0
VERTEX
8
Layer 1
10
130.358170
20
337.265548
70
0
0
VERTEX
8
Layer 1
10
130.284469
20
338.715905
70
0
0
VERTEX
8
Layer 1
10
130.642702
20
340.154445
70
0
0
VERTEX
8
Layer 1
10
131.406594
20
341.424956
70
0
0
VERTEX
8
Layer 1
10
132.484267
20
342.398398
70
0
0
VERTEX
8
Layer 1
10
133.796018
20
343.021517
70
0
0
VERTEX
8
Layer 1
10
135.262145
20
343.241058
70
0
0
VERTEX
8
Layer 1
10
135.262145
20
343.241058
70
0
0
SEQEND
8
Layer 1
0
POLYLINE
8
Layer 1
62
250
70
1
10
0.000000
20
0.000000
66
1
0
VERTEX
8
Layer 1
10
135.262216
20
216.941213
70
0
0
VERTEX
8
Layer 1
10
136.242219
20
216.844252
70
0
0
VERTEX
8
Layer 1
10
137.175625
20
216.560612
70
0
0
VERTEX
8
Layer 1
10
138.036207
20
216.101157
70
0
0
VERTEX
8
Layer 1
10
138.797735
20
215.476753
70
0
0
VERTEX
8
Layer 1
10
139.422140
20
214.715225
70
0
0
VERTEX
8
Layer 1
10
139.881594
20
213.854643
70
0
0
VERTEX
8
Layer 1
10
140.165234
20
212.921236
70
0
0
VERTEX
8
Layer 1
10
140.262195
20
211.941234
70
0
0
VERTEX
8
Layer 1
10
140.042657
20
210.475127
70
0
0
VERTEX
8
Layer 1
10
139.419547
20
209.163394
70
0
0
VERTEX
8
Layer 1
10
138.446118
20
208.085737
70
0
0
VERTEX
8
Layer 1
10
137.175625
20
207.321855
70
0
0
VERTEX
8
Layer 1
10
135.737105
20
206.963627
70
0
0
VERTEX
8
Layer 1
10
134.286768
20
207.037328
70
0
0
VERTEX
8
Layer 1
10
132.918628
20
207.524257
70
0
0
VERTEX
8
Layer 1
10
131.726697
20
208.405715
70
0
0
VERTEX
8
Layer 1
10
130.845239
20
209.597645
70
0
0
VERTEX
8
Layer 1
10
130.358310
20
210.965786
70
0
0
VERTEX
8
Layer 1
10
130.284609
20
212.416123
70
0
0
VERTEX
8
Layer 1
10
130.642838
20
213.854643
70
0
0
VERTEX
8
Layer 1
10
131.406719
20
215.125135
70
0
0
VERTEX
8
Layer 1
10
132.484376
20
216.098564
70
0
0
VERTEX
8
Layer 1
10
133.796109
20
216.721675
70
0
0
VERTEX
8
Layer 1
10
135.262216
20
216.941213
70
0
0
VERTEX
8
Layer 1
10
135.262216
20
216.941213
70
0
0
SEQEND
8
Layer 1
0
POLYLINE
8
Layer 1
62
250
70
1
10
0.000000
20
0.000000
66
1
0
VERTEX
8
Layer 1
10
216.562039
20
216.941107
70
0
0
VERTEX
8
Layer 1
10
217.542042
20
216.844146
70
0
0
VERTEX
8
Layer 1
10
218.475448
20
216.560506
70
0
0
VERTEX
8
Layer 1
10
219.336030
20
216.101052
70
0
0
VERTEX
8
Layer 1
10
220.097558
20
215.476647
70
0
0
VERTEX
8
Layer 1
10
220.721963
20
214.715119
70
0
0
VERTEX
8
Layer 1
10
221.181417
20
213.854537
70
0
0
VERTEX
8
Layer 1
10
221.465057
20
212.921130
70
0
0
VERTEX
8
Layer 1
10
221.562018
20
211.941128
70
0
0
VERTEX
8
Layer 1
10
221.342480
20
210.475021
70
0
0
VERTEX
8
Layer 1
10
220.719370
20
209.163288
70
0
0
VERTEX
8
Layer 1
10
219.745941
20
208.085631
70
0
0
VERTEX
8
Layer 1
10
218.475448
20
207.321750
70
0
0
VERTEX
8
Layer 1
10
217.036929
20
206.963521
70
0
0
VERTEX
8
Layer 1
10
215.586592
20
207.037222
70
0
0
VERTEX
8
Layer 1
10
214.218451
20
207.524151
70
0
0
VERTEX
8
Layer 1
10
213.026520
20
208.405609
70
0
0
VERTEX
8
Layer 1
10
212.145063
20
209.597540
70
0
0
VERTEX
8
Layer 1
10
211.658133
20
210.965680
70
0
0
VERTEX
8
Layer 1
10
211.584433
20
212.416017
70
0
0
VERTEX
8
Layer 1
10
211.942661
20
213.854537
70
0
0
VERTEX
8
Layer 1
10
212.706542
20
215.125030
70
0
0
VERTEX
8
Layer 1
10
213.784200
20
216.098458
70
0
0
VERTEX
8
Layer 1
10
215.095932
20
216.721569
70
0
0
VERTEX
8
Layer 1
10
216.562039
20
216.941107
70
0
0
VERTEX
8
Layer 1
10
216.562039
20
216.941107
70
0
0
SEQEND
8
Layer 1
0
POLYLINE
8
Layer 1
62
250
70
1
10
0.000000
20
0.000000
66
1
0
VERTEX
8
Layer 1
10
125.912214
20
338.241044
70
0
0
VERTEX
8
Layer 1
10
125.912214
20
211.941234
70
0
0
VERTEX
8
Layer 1
10
126.058308
20
209.749835
70
0
0
VERTEX
8
Layer 1
10
126.496587
20
207.850623
70
0
0
VERTEX
8
Layer 1
10
127.227053
20
206.243598
70
0
0
VERTEX
8
Layer 1
10
128.249706
20
204.928759
70
0
0
VERTEX
8
Layer 1
10
129.564545
20
203.906106
70
0
0
VERTEX
8
Layer 1
10
131.171570
20
203.175640
70
0
0
VERTEX
8
Layer 1
10
133.070782
20
202.737361
70
0
0
VERTEX
8
Layer 1
10
135.262181
20
202.591267
70
0
0
VERTEX
8
Layer 1
10
216.562039
20
202.591267
70
0
0
VERTEX
8
Layer 1
10
218.753438
20
202.737361
70
0
0
VERTEX
8
Layer 1
10
220.652649
20
203.175640
70
0
0
VERTEX
8
Layer 1
10
222.259675
20
203.906106
70
0
0
VERTEX
8
Layer 1
10
223.574514
20
204.928759
70
0
0
VERTEX
8
Layer 1
10
224.597167
20
206.243598
70
0
0
VERTEX
8
Layer 1
10
225.327633
20
207.850623
70
0
0
VERTEX
8
Layer 1
10
225.765912
20
209.749835
70
0
0
VERTEX
8
Layer 1
10
225.912006
20
211.941234
70
0
0
VERTEX
8
Layer 1
10
225.912006
20
338.241044
70
0
0
VERTEX
8
Layer 1
10
225.765912
20
340.432451
70
0
0
VERTEX
8
Layer 1
10
225.327633
20
342.331670
70
0
0
VERTEX
8
Layer 1
10
224.597167
20
343.938701
70
0
0
VERTEX
8
Layer 1
10
223.574514
20
345.253545
70
0
0
VERTEX
8
Layer 1
10
222.259675
20
346.276202
70
0
0
VERTEX
8
Layer 1
10
220.652649
20
347.006671
70
0
0
VERTEX
8
Layer 1
10
218.753438
20
347.444952
70
0
0
VERTEX
8
Layer 1
10
216.562039
20
347.591046
70
0
0
VERTEX
8
Layer 1
10
135.262181
20
347.591046
70
0
0
VERTEX
8
Layer 1
10
133.070782
20
347.444952
70
0
0
VERTEX
8
Layer 1
10
131.171570
20
347.006671
70
0
0
VERTEX
8
Layer 1
10
129.564545
20
346.276202
70
0
0
VERTEX
8
Layer 1
10
128.249706
20
345.253545
70
0
0
VERTEX
8
Layer 1
10
127.227053
20
343.938701
70
0
0
VERTEX
8
Layer 1
10
126.496587
20
342.331670
70
0
0
VERTEX
8
Layer 1
10
126.058308
20
340.432451
70
0
0
VERTEX
8
Layer 1
10
125.912214
20
338.241044
70
0
0
VERTEX
8
Layer 1
10
125.912214
20
338.241044
70
0
0
SEQEND
8
Layer 1
0
POLYLINE
8
Layer 1
62
250
70
1
10
0.000000
20
0.000000
66
1
0
VERTEX
8
Layer 1
10
126.937208
20
312.116108
70
0
0
VERTEX
8
Layer 1
10
126.937208
20
302.066126
70
0
0
VERTEX
8
Layer 1
10
128.987230
20
302.066126
70
0
0
VERTEX
8
Layer 1
10
128.987230
20
312.116108
70
0
0
VERTEX
8
Layer 1
10
126.937208
20
312.116108
70
0
0
VERTEX
8
Layer 1
10
126.937208
20
312.116108
70
0
0
SEQEND
8
Layer 1
0
POLYLINE
8
Layer 1
62
250
70
1
10
0.000000
20
0.000000
66
1
0
VERTEX
8
Layer 1
10
126.937208
20
280.116200
70
0
0
VERTEX
8
Layer 1
10
126.937208
20
270.066219
70
0
0
VERTEX
8
Layer 1
10
128.987230
20
270.066219
70
0
0
VERTEX
8
Layer 1
10
128.987230
20
280.116200
70
0
0
VERTEX
8
Layer 1
10
126.937208
20
280.116200
70
0
0
VERTEX
8
Layer 1
10
126.937208
20
280.116200
70
0
0
SEQEND
8
Layer 1
0
POLYLINE
8
Layer 1
62
250
70
1
10
0.000000
20
0.000000
66
1
0
VERTEX
8
Layer 1
10
126.912231
20
248.116257
70
0
0
VERTEX
8
Layer 1
10
126.912231
20
238.066276
70
0
0
VERTEX
8
Layer 1
10
128.912230
20
238.066276
70
0
0
VERTEX
8
Layer 1
10
128.912230
20
248.116257
70
0
0
VERTEX
8
Layer 1
10
126.912231
20
248.116257
70
0
0
VERTEX
8
Layer 1
10
126.912231
20
248.116257
70
0
0
SEQEND
8
Layer 1
0
POLYLINE
8
Layer 1
62
250
70
1
10
0.000000
20
0.000000
66
1
0
VERTEX
8
Layer 1
10
222.837025
20
312.116108
70
0
0
VERTEX
8
Layer 1
10
222.837025
20
302.066126
70
0
0
VERTEX
8
Layer 1
10
224.887012
20
302.066126
70
0
0
VERTEX
8
Layer 1
10
224.887012
20
312.116108
70
0
0
VERTEX
8
Layer 1
10
222.837025
20
312.116108
70
0
0
VERTEX
8
Layer 1
10
222.837025
20
312.116108
70
0
0
SEQEND
8
Layer 1
0
POLYLINE
8
Layer 1
62
250
70
1
10
0.000000
20
0.000000
66
1
0
VERTEX
8
Layer 1
10
222.837025
20
280.116200
70
0
0
VERTEX
8
Layer 1
10
222.837025
20
270.066219
70
0
0
VERTEX
8
Layer 1
10
224.887012
20
270.066219
70
0
0
VERTEX
8
Layer 1
10
224.887012
20
280.116200
70
0
0
VERTEX
8
Layer 1
10
222.837025
20
280.116200
70
0
0
VERTEX
8
Layer 1
10
222.837025
20
280.116200
70
0
0
SEQEND
8
Layer 1
0
POLYLINE
8
Layer 1
62
250
70
1
10
0.000000
20
0.000000
66
1
0
VERTEX
8
Layer 1
10
222.812013
20
248.116257
70
0
0
VERTEX
8
Layer 1
10
222.812013
20
238.066276
70
0
0
VERTEX
8
Layer 1
10
224.812012
20
238.066276
70
0
0
VERTEX
8
Layer 1
10
224.812012
20
248.116257
70
0
0
VERTEX
8
Layer 1
10
222.812013
20
248.116257
70
0
0
VERTEX
8
Layer 1
10
222.812013
20
248.116257
70
0
0
SEQEND
8
Layer 1
0
POLYLINE
8
Layer 1
62
250
70
1
10
0.000000
20
0.000000
66
1
0
VERTEX
8
Layer 1
10
180.937207
20
346.591029
70
0
0
VERTEX
8
Layer 1
10
170.887225
20
346.591029
70
0
0
VERTEX
8
Layer 1
10
170.887225
20
344.541042
70
0
0
VERTEX
8
Layer 1
10
180.937207
20
344.541042
70
0
0
VERTEX
8
Layer 1
10
180.937207
20
346.591029
70
0
0
VERTEX
8
Layer 1
10
180.937207
20
346.591029
70
0
0
SEQEND
8
Layer 1
0
POLYLINE
8
Layer 1
62
250
70
1
10
0.000000
20
0.000000
66
1
0
VERTEX
8
Layer 1
10
202.937051
20
346.566052
70
0
0
VERTEX
8
Layer 1
10
192.887069
20
346.566052
70
0
0
VERTEX
8
Layer 1
10
192.887069
20
344.516030
70
0
0
VERTEX
8
Layer 1
10
202.937051
20
344.516030
70
0
0
VERTEX
8
Layer 1
10
202.937051
20
346.566052
70
0
0
VERTEX
8
Layer 1
10
202.937051
20
346.566052
70
0
0
SEQEND
8
Layer 1
0
POLYLINE
8
Layer 1
62
250
70
1
10
0.000000
20
0.000000
66
1
0
VERTEX
8
Layer 1
10
158.937151
20
346.566052
70
0
0
VERTEX
8
Layer 1
10
148.887169
20
346.566052
70
0
0
VERTEX
8
Layer 1
10
148.887169
20
344.516030
70
0
0
VERTEX
8
Layer 1
10
158.937151
20
344.516030
70
0
0
VERTEX
8
Layer 1
10
158.937151
20
346.566052
70
0
0
VERTEX
8
Layer 1
10
158.937151
20
346.566052
70
0
0
SEQEND
8
Layer 1
0
POLYLINE
8
Layer 1
62
250
70
1
10
0.000000
20
0.000000
66
1
0
VERTEX
8
Layer 1
10
180.937101
20
205.641236
70
0
0
VERTEX
8
Layer 1
10
170.887119
20
205.641236
70
0
0
VERTEX
8
Layer 1
10
170.887119
20
203.591249
70
0
0
VERTEX
8
Layer 1
10
180.937101
20
203.591249
70
0
0
VERTEX
8
Layer 1
10
180.937101
20
205.641236
70
0
0
VERTEX
8
Layer 1
10
180.937101
20
205.641236
70
0
0
SEQEND
8
Layer 1
0
POLYLINE
8
Layer 1
62
250
70
1
10
0.000000
20
0.000000
66
1
0
VERTEX
8
Layer 1
10
202.936945
20
205.616260
70
0
0
VERTEX
8
Layer 1
10
192.886963
20
205.616260
70
0
0
VERTEX
8
Layer 1
10
192.886963
20
203.566237
70
0
0
VERTEX
8
Layer 1
10
202.936945
20
203.566237
70
0
0
VERTEX
8
Layer 1
10
202.936945
20
205.616260
70
0
0
VERTEX
8
Layer 1
10
202.936945
20
205.616260
70
0
0
SEQEND
8
Layer 1
0
POLYLINE
8
Layer 1
62
250
70
1
10
0.000000
20
0.000000
66
1
0
VERTEX
8
Layer 1
10
158.937045
20
205.616260
70
0
0
VERTEX
8
Layer 1
10
148.887063
20
205.616260
70
0
0
VERTEX
8
Layer 1
10
148.887063
20
203.566237
70
0
0
VERTEX
8
Layer 1
10
158.937045
20
203.566237
70
0
0
VERTEX
8
Layer 1
10
158.937045
20
205.616260
70
0
0
VERTEX
8
Layer 1
10
158.937045
20
205.616260
70
0
0
SEQEND
8
Layer 1
0
POLYLINE
8
Layer 1
62
250
70
1
10
0.000000
20
0.000000
66
1
0
VERTEX
8
Layer 1
10
165.862128
20
223.466211
70
0
0
VERTEX
8
Layer 1
10
165.862128
20
212.916239
70
0
0
VERTEX
8
Layer 1
10
165.924627
20
212.478731
70
0
0
VERTEX
8
Layer 1
10
166.112124
20
212.166226
70
0
0
VERTEX
8
Layer 1
10
166.424618
20
211.978723
70
0
0
VERTEX
8
Layer 1
10
166.862110
20
211.916222
70
0
0
VERTEX
8
Layer 1
10
184.962075
20
211.916222
70
0
0
VERTEX
8
Layer 1
10
185.399567
20
211.978723
70
0
0
VERTEX
8
Layer 1
10
185.712061
20
212.166226
70
0
0
VERTEX
8
Layer 1
10
185.899558
20
212.478731
70
0
0
VERTEX
8
Layer 1
10
185.962056
20
212.916239
70
0
0
VERTEX
8
Layer 1
10
185.962056
20
223.466211
70
0
0
VERTEX
8
Layer 1
10
185.899558
20
223.903703
70
0
0
VERTEX
8
Layer 1
10
185.712061
20
224.216198
70
0
0
VERTEX
8
Layer 1
10
185.399567
20
224.403694
70
0
0
VERTEX
8
Layer 1
10
184.962075
20
224.466193
70
0
0
VERTEX
8
Layer 1
10
166.862110
20
224.466193
70
0
0
VERTEX
8
Layer 1
10
166.424618
20
224.403694
70
0
0
VERTEX
8
Layer 1
10
166.112124
20
224.216198
70
0
0
VERTEX
8
Layer 1
10
165.924627
20
223.903703
70
0
0
VERTEX
8
Layer 1
10
165.862128
20
223.466211
70
0
0
VERTEX
8
Layer 1
10
165.862128
20
223.466211
70
0
0
SEQEND
8
Layer 1
0
POLYLINE
8
Layer 1
62
250
70
1
10
0.000000
20
0.000000
66
1
0
VERTEX
8
Layer 1
10
162.412181
20
219.691109
70
0
0
VERTEX
8
Layer 1
10
162.986222
20
219.576925
70
0
0
VERTEX
8
Layer 1
10
163.472871
20
219.251757
70
0
0
VERTEX
8
Layer 1
10
163.798040
20
218.765108
70
0
0
VERTEX
8
Layer 1
10
163.912224
20
218.191066
70
0
0
VERTEX
8
Layer 1
10
163.794343
20
217.607182
70
0
0
VERTEX
8
Layer 1
10
163.472871
20
217.130376
70
0
0
VERTEX
8
Layer 1
10
162.996065
20
216.808904
70
0
0
VERTEX
8
Layer 1
10
162.412181
20
216.691023
70
0
0
VERTEX
8
Layer 1
10
161.828296
20
216.808904
70
0
0
VERTEX
8
Layer 1
10
161.351490
20
217.130376
70
0
0
VERTEX
8
Layer 1
10
161.030019
20
217.607182
70
0
0
VERTEX
8
Layer 1
10
160.912138
20
218.191066
70
0
0
VERTEX
8
Layer 1
10
161.030019
20
218.774951
70
0
0
VERTEX
8
Layer 1
10
161.351490
20
219.251757
70
0
0
VERTEX
8
Layer 1
10
161.828296
20
219.573229
70
0
0
VERTEX
8
Layer 1
10
162.412181
20
219.691109
70
0
0
VERTEX
8
Layer 1
10
162.412181
20
219.691109
70
0
0
SEQEND
8
Layer 1
0
POLYLINE
8
Layer 1
62
250
70
1
10
0.000000
20
0.000000
66
1
0
VERTEX
8
Layer 1
10
189.412145
20
219.691109
70
0
0
VERTEX
8
Layer 1
10
189.996018
20
219.573218
70
0
0
VERTEX
8
Layer 1
10
190.472813
20
219.251744
70
0
0
VERTEX
8
Layer 1
10
190.794275
20
218.774942
70
0
0
VERTEX
8
Layer 1
10
190.912153
20
218.191066
70
0
0
VERTEX
8
Layer 1
10
190.659347
20
217.357683
70
0
0
VERTEX
8
Layer 1
10
189.986143
20
216.805204
70
0
0
VERTEX
8
Layer 1
10
189.119453
20
216.719849
70
0
0
VERTEX
8
Layer 1
10
188.351407
20
217.130388
70
0
0
VERTEX
8
Layer 1
10
187.940885
20
217.898444
70
0
0
VERTEX
8
Layer 1
10
188.026261
20
218.765132
70
0
0
VERTEX
8
Layer 1
10
188.578756
20
219.438324
70
0
0
VERTEX
8
Layer 1
10
189.412145
20
219.691109
70
0
0
VERTEX
8
Layer 1
10
189.412145
20
219.691109
70
0
0
SEQEND
8
Layer 1
0
POLYLINE
8
Layer 1
62
250
70
1
10
0.000000
20
0.000000
66
1
0
VERTEX
8
Layer 1
10
152.132859
20
331.754569
70
0
0
VERTEX
8
Layer 1
10
152.132859
20
332.254560
70
0
0
VERTEX
8
Layer 1
10
152.195360
20
331.817068
70
0
0
VERTEX
8
Layer 1
10
152.382863
20
331.504573
70
0
0
VERTEX
8
Layer 1
10
152.695368
20
331.317077
70
0
0
VERTEX
8
Layer 1
10
153.132876
20
331.254578
70
0
0
VERTEX
8
Layer 1
10
200.132756
20
331.254578
70
0
0
VERTEX
8
Layer 1
10
200.570248
20
331.317077
70
0
0
VERTEX
8
Layer 1
10
200.882742
20
331.504573
70
0
0
VERTEX
8
Layer 1
10
201.070239
20
331.817068
70
0
0
VERTEX
8
Layer 1
10
201.132737
20
332.254560
70
0
0
VERTEX
8
Layer 1
10
201.132737
20
331.754569
70
0
0
VERTEX
8
Layer 1
10
201.070239
20
332.192076
70
0
0
VERTEX
8
Layer 1
10
200.882742
20
332.504581
70
0
0
VERTEX
8
Layer 1
10
200.570248
20
332.692085
70
0
0
VERTEX
8
Layer 1
10
200.132756
20
332.754586
70
0
0
VERTEX
8
Layer 1
10
153.132876
20
332.754586
70
0
0
VERTEX
8
Layer 1
10
152.695368
20
332.692085
70
0
0
VERTEX
8
Layer 1
10
152.382863
20
332.504581
70
0
0
VERTEX
8
Layer 1
10
152.195360
20
332.192076
70
0
0
VERTEX
8
Layer 1
10
152.132859
20
331.754569
70
0
0
VERTEX
8
Layer 1
10
152.132859
20
331.754569
70
0
0
SEQEND
8
Layer 1
0
POLYLINE
8
Layer 1
62
250
70
1
10
0.000000
20
0.000000
66
1
0
VERTEX
8
Layer 1
10
152.132859
20
324.754591
70
0
0
VERTEX
8
Layer 1
10
152.132859
20
325.254582
70
0
0
VERTEX
8
Layer 1
10
152.195360
20
324.817090
70
0
0
VERTEX
8
Layer 1
10
152.382863
20
324.504596
70
0
0
VERTEX
8
Layer 1
10
152.695368
20
324.317099
70
0
0
VERTEX
8
Layer 1
10
153.132876
20
324.254600
70
0
0
VERTEX
8
Layer 1
10
200.132756
20
324.254600
70
0
0
VERTEX
8
Layer 1
10
200.570248
20
324.317099
70
0
0
VERTEX
8
Layer 1
10
200.882742
20
324.504596
70
0
0
VERTEX
8
Layer 1
10
201.070239
20
324.817090
70
0
0
VERTEX
8
Layer 1
10
201.132737
20
325.254582
70
0
0
VERTEX
8
Layer 1
10
201.132737
20
324.754591
70
0
0
VERTEX
8
Layer 1
10
201.070239
20
325.192083
70
0
0
VERTEX
8
Layer 1
10
200.882742
20
325.504577
70
0
0
VERTEX
8
Layer 1
10
200.570248
20
325.692074
70
0
0
VERTEX
8
Layer 1
10
200.132756
20
325.754573
70
0
0
VERTEX
8
Layer 1
10
153.132876
20
325.754573
70
0
0
VERTEX
8
Layer 1
10
152.695368
20
325.692074
70
0
0
VERTEX
8
Layer 1
10
152.382863
20
325.504577
70
0
0
VERTEX
8
Layer 1
10
152.195360
20
325.192083
70
0
0
VERTEX
8
Layer 1
10
152.132859
20
324.754591
70
0
0
VERTEX
8
Layer 1
10
152.132859
20
324.754591
70
0
0
SEQEND
8
Layer 1
0
POLYLINE
8
Layer 1
62
250
70
1
10
0.000000
20
0.000000
66
1
0
VERTEX
8
Layer 1
10
152.132859
20
317.754613
70
0
0
VERTEX
8
Layer 1
10
152.132859
20
318.254604
70
0
0
VERTEX
8
Layer 1
10
152.195360
20
317.817097
70
0
0
VERTEX
8
Layer 1
10
152.382863
20
317.504592
70
0
0
VERTEX
8
Layer 1
10
152.695368
20
317.317088
70
0
0
VERTEX
8
Layer 1
10
153.132876
20
317.254587
70
0
0
VERTEX
8
Layer 1
10
200.132756
20
317.254587
70
0
0
VERTEX
8
Layer 1
10
200.570248
20
317.317088
70
0
0
VERTEX
8
Layer 1
10
200.882742
20
317.504592
70
0
0
VERTEX
8
Layer 1
10
201.070239
20
317.817097
70
0
0
VERTEX
8
Layer 1
10
201.132737
20
318.254604
70
0
0
VERTEX
8
Layer 1
10
201.132737
20
317.754613
70
0
0
VERTEX
8
Layer 1
10
201.070239
20
318.192105
70
0
0
VERTEX
8
Layer 1
10
200.882742
20
318.504600
70
0
0
VERTEX
8
Layer 1
10
200.570248
20
318.692096
70
0
0
VERTEX
8
Layer 1
10
200.132756
20
318.754595
70
0
0
VERTEX
8
Layer 1
10
153.132876
20
318.754595
70
0
0
VERTEX
8
Layer 1
10
152.695368
20
318.692096
70
0
0
VERTEX
8
Layer 1
10
152.382863
20
318.504600
70
0
0
VERTEX
8
Layer 1
10
152.195360
20
318.192105
70
0
0
VERTEX
8
Layer 1
10
152.132859
20
317.754613
70
0
0
VERTEX
8
Layer 1
10
152.132859
20
317.754613
70
0
0
SEQEND
8
Layer 1
0
POLYLINE
8
Layer 1
62
250
70
1
10
0.000000
20
0.000000
66
1
0
VERTEX
8
Layer 1
10
152.132859
20
310.754601
70
0
0
VERTEX
8
Layer 1
10
152.132859
20
311.254627
70
0
0
VERTEX
8
Layer 1
10
152.195360
20
310.817119
70
0
0
VERTEX
8
Layer 1
10
152.382863
20
310.504614
70
0
0
VERTEX
8
Layer 1
10
152.695368
20
310.317111
70
0
0
VERTEX
8
Layer 1
10
153.132876
20
310.254610
70
0
0
VERTEX
8
Layer 1
10
200.132756
20
310.254610
70
0
0
VERTEX
8
Layer 1
10
200.570248
20
310.317111
70
0
0
VERTEX
8
Layer 1
10
200.882742
20
310.504614
70
0
0
VERTEX
8
Layer 1
10
201.070239
20
310.817119
70
0
0
VERTEX
8
Layer 1
10
201.132737
20
311.254627
70
0
0
VERTEX
8
Layer 1
10
201.132737
20
310.754601
70
0
0
VERTEX
8
Layer 1
10
201.070239
20
311.192108
70
0
0
VERTEX
8
Layer 1
10
200.882742
20
311.504613
70
0
0
VERTEX
8
Layer 1
10
200.570248
20
311.692116
70
0
0
VERTEX
8
Layer 1
10
200.132756
20
311.754618
70
0
0
VERTEX
8
Layer 1
10
153.132876
20
311.754618
70
0
0
VERTEX
8
Layer 1
10
152.695368
20
311.692116
70
0
0
VERTEX
8
Layer 1
10
152.382863
20
311.504613
70
0
0
VERTEX
8
Layer 1
10
152.195360
20
311.192108
70
0
0
VERTEX
8
Layer 1
10
152.132859
20
310.754601
70
0
0
VERTEX
8
Layer 1
10
152.132859
20
310.754601
70
0
0
SEQEND
8
Layer 1
0
POLYLINE
8
Layer 1
62
250
70
1
10
0.000000
20
0.000000
66
1
0
VERTEX
8
Layer 1
10
152.132859
20
296.754645
70
0
0
VERTEX
8
Layer 1
10
152.132859
20
297.254636
70
0
0
VERTEX
8
Layer 1
10
152.195360
20
296.817144
70
0
0
VERTEX
8
Layer 1
10
152.382863
20
296.504650
70
0
0
VERTEX
8
Layer 1
10
152.695368
20
296.317153
70
0
0
VERTEX
8
Layer 1
10
153.132876
20
296.254654
70
0
0
VERTEX
8
Layer 1
10
200.132756
20
296.254654
70
0
0
VERTEX
8
Layer 1
10
200.570248
20
296.317153
70
0
0
VERTEX
8
Layer 1
10
200.882742
20
296.504650
70
0
0
VERTEX
8
Layer 1
10
201.070239
20
296.817144
70
0
0
VERTEX
8
Layer 1
10
201.132737
20
297.254636
70
0
0
VERTEX
8
Layer 1
10
201.132737
20
296.754645
70
0
0
VERTEX
8
Layer 1
10
201.070239
20
297.192153
70
0
0
VERTEX
8
Layer 1
10
200.882742
20
297.504658
70
0
0
VERTEX
8
Layer 1
10
200.570248
20
297.692161
70
0
0
VERTEX
8
Layer 1
10
200.132756
20
297.754662
70
0
0
VERTEX
8
Layer 1
10
153.132876
20
297.754662
70
0
0
VERTEX
8
Layer 1
10
152.695368
20
297.692161
70
0
0
VERTEX
8
Layer 1
10
152.382863
20
297.504658
70
0
0
VERTEX
8
Layer 1
10
152.195360
20
297.192153
70
0
0
VERTEX
8
Layer 1
10
152.132859
20
296.754645
70
0
0
VERTEX
8
Layer 1
10
152.132859
20
296.754645
70
0
0
SEQEND
8
Layer 1
0
POLYLINE
8
Layer 1
62
250
70
1
10
0.000000
20
0.000000
66
1
0
VERTEX
8
Layer 1
10
152.132859
20
303.754623
70
0
0
VERTEX
8
Layer 1
10
152.132859
20
304.254649
70
0
0
VERTEX
8
Layer 1
10
152.195360
20
303.817142
70
0
0
VERTEX
8
Layer 1
10
152.382863
20
303.504636
70
0
0
VERTEX
8
Layer 1
10
152.695368
20
303.317133
70
0
0
VERTEX
8
Layer 1
10
153.132876
20
303.254632
70
0
0
VERTEX
8
Layer 1
10
200.132756
20
303.254632
70
0
0
VERTEX
8
Layer 1
10
200.570248
20
303.317133
70
0
0
VERTEX
8
Layer 1
10
200.882742
20
303.504636
70
0
0
VERTEX
8
Layer 1
10
201.070239
20
303.817142
70
0
0
VERTEX
8
Layer 1
10
201.132737
20
304.254649
70
0
0
VERTEX
8
Layer 1
10
201.132737
20
303.754623
70
0
0
VERTEX
8
Layer 1
10
201.070239
20
304.192130
70
0
0
VERTEX
8
Layer 1
10
200.882742
20
304.504636
70
0
0
VERTEX
8
Layer 1
10
200.570248
20
304.692139
70
0
0
VERTEX
8
Layer 1
10
200.132756
20
304.754640
70
0
0
VERTEX
8
Layer 1
10
153.132876
20
304.754640
70
0
0
VERTEX
8
Layer 1
10
152.695368
20
304.692139
70
0
0
VERTEX
8
Layer 1
10
152.382863
20
304.504636
70
0
0
VERTEX
8
Layer 1
10
152.195360
20
304.192130
70
0
0
VERTEX
8
Layer 1
10
152.132859
20
303.754623
70
0
0
VERTEX
8
Layer 1
10
152.132859
20
303.754623
70
0
0
SEQEND
8
Layer 1
0
POLYLINE
8
Layer 1
62
250
70
1
10
0.000000
20
0.000000
66
1
0
VERTEX
8
Layer 1
10
152.132859
20
289.754668
70
0
0
VERTEX
8
Layer 1
10
152.132859
20
290.254659
70
0
0
VERTEX
8
Layer 1
10
152.195360
20
289.817167
70
0
0
VERTEX
8
Layer 1
10
152.382863
20
289.504672
70
0
0
VERTEX
8
Layer 1
10
152.695368
20
289.317176
70
0
0
VERTEX
8
Layer 1
10
153.132876
20
289.254677
70
0
0
VERTEX
8
Layer 1
10
200.132756
20
289.254677
70
0
0
VERTEX
8
Layer 1
10
200.570248
20
289.317176
70
0
0
VERTEX
8
Layer 1
10
200.882742
20
289.504672
70
0
0
VERTEX
8
Layer 1
10
201.070239
20
289.817167
70
0
0
VERTEX
8
Layer 1
10
201.132737
20
290.254659
70
0
0
VERTEX
8
Layer 1
10
201.132737
20
289.754668
70
0
0
VERTEX
8
Layer 1
10
201.070239
20
290.192160
70
0
0
VERTEX
8
Layer 1
10
200.882742
20
290.504654
70
0
0
VERTEX
8
Layer 1
10
200.570248
20
290.692151
70
0
0
VERTEX
8
Layer 1
10
200.132756
20
290.754649
70
0
0
VERTEX
8
Layer 1
10
153.132876
20
290.754649
70
0
0
VERTEX
8
Layer 1
10
152.695368
20
290.692151
70
0
0
VERTEX
8
Layer 1
10
152.382863
20
290.504654
70
0
0
VERTEX
8
Layer 1
10
152.195360
20
290.192160
70
0
0
VERTEX
8
Layer 1
10
152.132859
20
289.754668
70
0
0
VERTEX
8
Layer 1
10
152.132859
20
289.754668
70
0
0
SEQEND
8
Layer 1
0
POLYLINE
8
Layer 1
62
250
70
1
10
0.000000
20
0.000000
66
1
0
VERTEX
8
Layer 1
10
152.132859
20
282.754690
70
0
0
VERTEX
8
Layer 1
10
152.132859
20
283.254681
70
0
0
VERTEX
8
Layer 1
10
152.195360
20
282.817173
70
0
0
VERTEX
8
Layer 1
10
152.382863
20
282.504668
70
0
0
VERTEX
8
Layer 1
10
152.695368
20
282.317165
70
0
0
VERTEX
8
Layer 1
10
153.132876
20
282.254664
70
0
0
VERTEX
8
Layer 1
10
200.132756
20
282.254664
70
0
0
VERTEX
8
Layer 1
10
200.570248
20
282.317165
70
0
0
VERTEX
8
Layer 1
10
200.882742
20
282.504668
70
0
0
VERTEX
8
Layer 1
10
201.070239
20
282.817173
70
0
0
VERTEX
8
Layer 1
10
201.132737
20
283.254681
70
0
0
VERTEX
8
Layer 1
10
201.132737
20
282.754690
70
0
0
VERTEX
8
Layer 1
10
201.070239
20
283.192182
70
0
0
VERTEX
8
Layer 1
10
200.882742
20
283.504676
70
0
0
VERTEX
8
Layer 1
10
200.570248
20
283.692173
70
0
0
VERTEX
8
Layer 1
10
200.132756
20
283.754672
70
0
0
VERTEX
8
Layer 1
10
153.132876
20
283.754672
70
0
0
VERTEX
8
Layer 1
10
152.695368
20
283.692173
70
0
0
VERTEX
8
Layer 1
10
152.382863
20
283.504676
70
0
0
VERTEX
8
Layer 1
10
152.195360
20
283.192182
70
0
0
VERTEX
8
Layer 1
10
152.132859
20
282.754690
70
0
0
VERTEX
8
Layer 1
10
152.132859
20
282.754690
70
0
0
SEQEND
8
Layer 1
0
POLYLINE
8
Layer 1
62
250
70
1
10
0.000000
20
0.000000
66
1
0
VERTEX
8
Layer 1
10
152.132859
20
275.754677
70
0
0
VERTEX
8
Layer 1
10
152.132859
20
276.254703
70
0
0
VERTEX
8
Layer 1
10
152.195360
20
275.817196
70
0
0
VERTEX
8
Layer 1
10
152.382863
20
275.504691
70
0
0
VERTEX
8
Layer 1
10
152.695368
20
275.317187
70
0
0
VERTEX
8
Layer 1
10
153.132876
20
275.254686
70
0
0
VERTEX
8
Layer 1
10
200.132756
20
275.254686
70
0
0
VERTEX
8
Layer 1
10
200.570248
20
275.317187
70
0
0
VERTEX
8
Layer 1
10
200.882742
20
275.504691
70
0
0
VERTEX
8
Layer 1
10
201.070239
20
275.817196
70
0
0
VERTEX
8
Layer 1
10
201.132737
20
276.254703
70
0
0
VERTEX
8
Layer 1
10
201.132737
20
275.754677
70
0
0
VERTEX
8
Layer 1
10
201.070239
20
276.192185
70
0
0
VERTEX
8
Layer 1
10
200.882742
20
276.504690
70
0
0
VERTEX
8
Layer 1
10
200.570248
20
276.692193
70
0
0
VERTEX
8
Layer 1
10
200.132756
20
276.754694
70
0
0
VERTEX
8
Layer 1
10
153.132876
20
276.754694
70
0
0
VERTEX
8
Layer 1
10
152.695368
20
276.692193
70
0
0
VERTEX
8
Layer 1
10
152.382863
20
276.504690
70
0
0
VERTEX
8
Layer 1
10
152.195360
20
276.192185
70
0
0
VERTEX
8
Layer 1
10
152.132859
20
275.754677
70
0
0
VERTEX
8
Layer 1
10
152.132859
20
275.754677
70
0
0
SEQEND
8
Layer 1
0
POLYLINE
8
Layer 1
62
250
70
1
10
0.000000
20
0.000000
66
1
0
VERTEX
8
Layer 1
10
152.132859
20
268.754700
70
0
0
VERTEX
8
Layer 1
10
152.132859
20
269.254726
70
0
0
VERTEX
8
Layer 1
10
152.195360
20
268.817218
70
0
0
VERTEX
8
Layer 1
10
152.382863
20
268.504713
70
0
0
VERTEX
8
Layer 1
10
152.695368
20
268.317210
70
0
0
VERTEX
8
Layer 1
10
153.132876
20
268.254709
70
0
0
VERTEX
8
Layer 1
10
200.132756
20
268.254709
70
0
0
VERTEX
8
Layer 1
10
200.570248
20
268.317210
70
0
0
VERTEX
8
Layer 1
10
200.882742
20
268.504713
70
0
0
VERTEX
8
Layer 1
10
201.070239
20
268.817218
70
0
0
VERTEX
8
Layer 1
10
201.132737
20
269.254726
70
0
0
VERTEX
8
Layer 1
10
201.132737
20
268.754700
70
0
0
VERTEX
8
Layer 1
10
201.070239
20
269.192207
70
0
0
VERTEX
8
Layer 1
10
200.882742
20
269.504712
70
0
0
VERTEX
8
Layer 1
10
200.570248
20
269.692215
70
0
0
VERTEX
8
Layer 1
10
200.132756
20
269.754717
70
0
0
VERTEX
8
Layer 1
10
153.132876
20
269.754717
70
0
0
VERTEX
8
Layer 1
10
152.695368
20
269.692215
70
0
0
VERTEX
8
Layer 1
10
152.382863
20
269.504712
70
0
0
VERTEX
8
Layer 1
10
152.195360
20
269.192207
70
0
0
VERTEX
8
Layer 1
10
152.132859
20
268.754700
70
0
0
VERTEX
8
Layer 1
10
152.132859
20
268.754700
70
0
0
SEQEND
8
Layer 1
0
POLYLINE
8
Layer 1
62
250
70
1
10
0.000000
20
0.000000
66
1
0
VERTEX
8
Layer 1
10
152.132859
20
261.754722
70
0
0
VERTEX
8
Layer 1
10
152.132859
20
262.254713
70
0
0
VERTEX
8
Layer 1
10
152.195360
20
261.817221
70
0
0
VERTEX
8
Layer 1
10
152.382863
20
261.504727
70
0
0
VERTEX
8
Layer 1
10
152.695368
20
261.317230
70
0
0
VERTEX
8
Layer 1
10
153.132876
20
261.254731
70
0
0
VERTEX
8
Layer 1
10
200.132756
20
261.254731
70
0
0
VERTEX
8
Layer 1
10
200.570248
20
261.317230
70
0
0
VERTEX
8
Layer 1
10
200.882742
20
261.504727
70
0
0
VERTEX
8
Layer 1
10
201.070239
20
261.817221
70
0
0
VERTEX
8
Layer 1
10
201.132737
20
262.254713
70
0
0
VERTEX
8
Layer 1
10
201.132737
20
261.754722
70
0
0
VERTEX
8
Layer 1
10
201.070239
20
262.192229
70
0
0
VERTEX
8
Layer 1
10
200.882742
20
262.504735
70
0
0
VERTEX
8
Layer 1
10
200.570248
20
262.692238
70
0
0
VERTEX
8
Layer 1
10
200.132756
20
262.754739
70
0
0
VERTEX
8
Layer 1
10
153.132876
20
262.754739
70
0
0
VERTEX
8
Layer 1
10
152.695368
20
262.692238
70
0
0
VERTEX
8
Layer 1
10
152.382863
20
262.504735
70
0
0
VERTEX
8
Layer 1
10
152.195360
20
262.192229
70
0
0
VERTEX
8
Layer 1
10
152.132859
20
261.754722
70
0
0
VERTEX
8
Layer 1
10
152.132859
20
261.754722
70
0
0
SEQEND
8
Layer 1
0
POLYLINE
8
Layer 1
62
250
70
1
10
0.000000
20
0.000000
66
1
0
VERTEX
8
Layer 1
10
152.132859
20
247.754767
70
0
0
VERTEX
8
Layer 1
10
152.132859
20
248.254758
70
0
0
VERTEX
8
Layer 1
10
152.195360
20
247.817250
70
0
0
VERTEX
8
Layer 1
10
152.382863
20
247.504745
70
0
0
VERTEX
8
Layer 1
10
152.695368
20
247.317242
70
0
0
VERTEX
8
Layer 1
10
153.132876
20
247.254741
70
0
0
VERTEX
8
Layer 1
10
200.132756
20
247.254741
70
0
0
VERTEX
8
Layer 1
10
200.570248
20
247.317242
70
0
0
VERTEX
8
Layer 1
10
200.882742
20
247.504745
70
0
0
VERTEX
8
Layer 1
10
201.070239
20
247.817250
70
0
0
VERTEX
8
Layer 1
10
201.132737
20
248.254758
70
0
0
VERTEX
8
Layer 1
10
201.132737
20
247.754767
70
0
0
VERTEX
8
Layer 1
10
201.070239
20
248.192259
70
0
0
VERTEX
8
Layer 1
10
200.882742
20
248.504753
70
0
0
VERTEX
8
Layer 1
10
200.570248
20
248.692250
70
0
0
VERTEX
8
Layer 1
10
200.132756
20
248.754748
70
0
0
VERTEX
8
Layer 1
10
153.132876
20
248.754748
70
0
0
VERTEX
8
Layer 1
10
152.695368
20
248.692250
70
0
0
VERTEX
8
Layer 1
10
152.382863
20
248.504753
70
0
0
VERTEX
8
Layer 1
10
152.195360
20
248.192259
70
0
0
VERTEX
8
Layer 1
10
152.132859
20
247.754767
70
0
0
VERTEX
8
Layer 1
10
152.132859
20
247.754767
70
0
0
SEQEND
8
Layer 1
0
POLYLINE
8
Layer 1
62
250
70
1
10
0.000000
20
0.000000
66
1
0
VERTEX
8
Layer 1
10
152.132859
20
254.754744
70
0
0
VERTEX
8
Layer 1
10
152.132859
20
255.254735
70
0
0
VERTEX
8
Layer 1
10
152.195360
20
254.817243
70
0
0
VERTEX
8
Layer 1
10
152.382863
20
254.504749
70
0
0
VERTEX
8
Layer 1
10
152.695368
20
254.317252
70
0
0
VERTEX
8
Layer 1
10
153.132876
20
254.254753
70
0
0
VERTEX
8
Layer 1
10
200.132756
20
254.254753
70
0
0
VERTEX
8
Layer 1
10
200.570248
20
254.317252
70
0
0
VERTEX
8
Layer 1
10
200.882742
20
254.504749
70
0
0
VERTEX
8
Layer 1
10
201.070239
20
254.817243
70
0
0
VERTEX
8
Layer 1
10
201.132737
20
255.254735
70
0
0
VERTEX
8
Layer 1
10
201.132737
20
254.754744
70
0
0
VERTEX
8
Layer 1
10
201.070239
20
255.192236
70
0
0
VERTEX
8
Layer 1
10
200.882742
20
255.504731
70
0
0
VERTEX
8
Layer 1
10
200.570248
20
255.692227
70
0
0
VERTEX
8
Layer 1
10
200.132756
20
255.754726
70
0
0
VERTEX
8
Layer 1
10
153.132876
20
255.754726
70
0
0
VERTEX
8
Layer 1
10
152.695368
20
255.692227
70
0
0
VERTEX
8
Layer 1
10
152.382863
20
255.504731
70
0
0
VERTEX
8
Layer 1
10
152.195360
20
255.192236
70
0
0
VERTEX
8
Layer 1
10
152.132859
20
254.754744
70
0
0
VERTEX
8
Layer 1
10
152.132859
20
254.754744
70
0
0
SEQEND
8
Layer 1
0
POLYLINE
8
Layer 1
62
250
70
1
10
0.000000
20
0.000000
66
1
0
VERTEX
8
Layer 1
10
152.132859
20
240.754789
70
0
0
VERTEX
8
Layer 1
10
152.132859
20
241.254780
70
0
0
VERTEX
8
Layer 1
10
152.195360
20
240.817272
70
0
0
VERTEX
8
Layer 1
10
152.382863
20
240.504767
70
0
0
VERTEX
8
Layer 1
10
152.695368
20
240.317264
70
0
0
VERTEX
8
Layer 1
10
153.132876
20
240.254763
70
0
0
VERTEX
8
Layer 1
10
200.132756
20
240.254763
70
0
0
VERTEX
8
Layer 1
10
200.570248
20
240.317264
70
0
0
VERTEX
8
Layer 1
10
200.882742
20
240.504767
70
0
0
VERTEX
8
Layer 1
10
201.070239
20
240.817272
70
0
0
VERTEX
8
Layer 1
10
201.132737
20
241.254780
70
0
0
VERTEX
8
Layer 1
10
201.132737
20
240.754789
70
0
0
VERTEX
8
Layer 1
10
201.070239
20
241.192281
70
0
0
VERTEX
8
Layer 1
10
200.882742
20
241.504775
70
0
0
VERTEX
8
Layer 1
10
200.570248
20
241.692272
70
0
0
VERTEX
8
Layer 1
10
200.132756
20
241.754771
70
0
0
VERTEX
8
Layer 1
10
153.132876
20
241.754771
70
0
0
VERTEX
8
Layer 1
10
152.695368
20
241.692272
70
0
0
VERTEX
8
Layer 1
10
152.382863
20
241.504775
70
0
0
VERTEX
8
Layer 1
10
152.195360
20
241.192281
70
0
0
VERTEX
8
Layer 1
10
152.132859
20
240.754789
70
0
0
VERTEX
8
Layer 1
10
152.132859
20
240.754789
70
0
0
SEQEND
8
Layer 1
0
POLYLINE
8
Layer 1
62
250
70
0
10
0.000000
20
0.000000
66
1
0
VERTEX
8
Layer 1
10
66.568667
20
391.875636
70
0
0
VERTEX
8
Layer 1
10
59.818773
20
391.875636
70
0
0
VERTEX
8
Layer 1
10
59.818773
20
486.625436
70
0
0
VERTEX
8
Layer 1
10
66.568667
20
486.625436
70
0
0
SEQEND
8
Layer 1
0
POLYLINE
8
Layer 1
62
250
70
0
10
0.000000
20
0.000000
66
1
0
VERTEX
8
Layer 1
10
76.568625
20
486.625436
70
0
0
VERTEX
8
Layer 1
10
88.568617
20
486.625436
70
0
0
SEQEND
8
Layer 1
0
POLYLINE
8
Layer 1
62
250
70
0
10
0.000000
20
0.000000
66
1
0
VERTEX
8
Layer 1
10
98.568575
20
486.625436
70
0
0
VERTEX
8
Layer 1
10
110.568567
20
486.625436
70
0
0
SEQEND
8
Layer 1
0
POLYLINE
8
Layer 1
62
250
70
0
10
0.000000
20
0.000000
66
1
0
VERTEX
8
Layer 1
10
120.568525
20
486.625436
70
0
0
VERTEX
8
Layer 1
10
127.318630
20
486.625436
70
0
0
VERTEX
8
Layer 1
10
127.318630
20
391.875636
70
0
0
VERTEX
8
Layer 1
10
120.568525
20
391.875636
70
0
0
SEQEND
8
Layer 1
0
POLYLINE
8
Layer 1
62
250
70
0
10
0.000000
20
0.000000
66
1
0
VERTEX
8
Layer 1
10
110.568567
20
391.875636
70
0
0
VERTEX
8
Layer 1
10
98.568575
20
391.875636
70
0
0
SEQEND
8
Layer 1
0
POLYLINE
8
Layer 1
62
250
70
0
10
0.000000
20
0.000000
66
1
0
VERTEX
8
Layer 1
10
88.568617
20
391.875636
70
0
0
VERTEX
8
Layer 1
10
76.568625
20
391.875636
70
0
0
SEQEND
8
Layer 1
0
POLYLINE
8
Layer 1
62
250
70
0
10
0.000000
20
0.000000
66
1
0
VERTEX
8
Layer 1
10
98.568575
20
391.875636
70
0
0
VERTEX
8
Layer 1
10
98.568575
20
389.075645
70
0
0
VERTEX
8
Layer 1
10
88.568617
20
389.075645
70
0
0
VERTEX
8
Layer 1
10
88.568617
20
391.875636
70
0
0
SEQEND
8
Layer 1
0
POLYLINE
8
Layer 1
62
250
70
0
10
0.000000
20
0.000000
66
1
0
VERTEX
8
Layer 1
10
76.568625
20
391.875636
70
0
0
VERTEX
8
Layer 1
10
76.568625
20
389.075645
70
0
0
VERTEX
8
Layer 1
10
66.568667
20
389.075645
70
0
0
VERTEX
8
Layer 1
10
66.568667
20
391.875636
70
0
0
SEQEND
8
Layer 1
0
POLYLINE
8
Layer 1
62
250
70
0
10
0.000000
20
0.000000
66
1
0
VERTEX
8
Layer 1
10
120.568525
20
391.875636
70
0
0
VERTEX
8
Layer 1
10
120.568525
20
389.075645
70
0
0
VERTEX
8
Layer 1
10
110.568567
20
389.075645
70
0
0
VERTEX
8
Layer 1
10
110.568567
20
391.875636
70
0
0
SEQEND
8
Layer 1
0
POLYLINE
8
Layer 1
62
250
70
0
10
0.000000
20
0.000000
66
1
0
VERTEX
8
Layer 1
10
88.568617
20
486.625436
70
0
0
VERTEX
8
Layer 1
10
88.568617
20
489.425427
70
0
0
VERTEX
8
Layer 1
10
98.568575
20
489.425427
70
0
0
VERTEX
8
Layer 1
10
98.568575
20
486.625436
70
0
0
SEQEND
8
Layer 1
0
POLYLINE
8
Layer 1
62
250
70
0
10
0.000000
20
0.000000
66
1
0
VERTEX
8
Layer 1
10
66.568667
20
486.625436
70
0
0
VERTEX
8
Layer 1
10
66.568667
20
489.425427
70
0
0
VERTEX
8
Layer 1
10
76.568625
20
489.425427
70
0
0
VERTEX
8
Layer 1
10
76.568625
20
486.625436
70
0
0
SEQEND
8
Layer 1
0
POLYLINE
8
Layer 1
62
250
70
0
10
0.000000
20
0.000000
66
1
0
VERTEX
8
Layer 1
10
110.568567
20
486.625436
70
0
0
VERTEX
8
Layer 1
10
110.568567
20
489.425427
70
0
0
VERTEX
8
Layer 1
10
120.568525
20
489.425427
70
0
0
VERTEX
8
Layer 1
10
120.568525
20
486.625436
70
0
0
SEQEND
8
Layer 1
0
POLYLINE
8
Layer 1
62
7
70
0
10
0.000000
20
0.000000
66
1
0
VERTEX
8
Layer 1
10
455.398489
20
443.265615
70
0
0
VERTEX
8
Layer 1
10
450.661399
20
443.265615
70
0
0
VERTEX
8
Layer 1
10
450.808243
20
443.792068
70
0
0
VERTEX
8
Layer 1
10
451.102723
20
444.257800
70
0
0
VERTEX
8
Layer 1
10
452.286996
20
445.183310
70
0
0
VERTEX
8
Layer 1
10
453.556993
20
445.894509
70
0
0
VERTEX
8
Layer 1
10
454.385071
20
446.462832
70
0
0
VERTEX
8
Layer 1
10
454.980977
20
447.116881
70
0
0
VERTEX
8
Layer 1
10
455.341140
20
447.851892
70
0
0
VERTEX
8
Layer 1
10
455.461989
20
448.663103
70
0
0
VERTEX
8
Layer 1
10
455.242914
20
449.747363
70
0
0
VERTEX
8
Layer 1
10
454.623790
20
450.631598
70
0
0
VERTEX
8
Layer 1
10
453.720505
20
451.168172
70
0
0
VERTEX
8
Layer 1
10
452.579095
20
451.342797
70
0
0
VERTEX
8
Layer 1
10
451.777608
20
451.266994
70
0
0
VERTEX
8
Layer 1
10
451.091611
20
451.041172
70
0
0
VERTEX
8
Layer 1
10
450.527057
20
450.667714
70
0
0
VERTEX
8
Layer 1
10
450.089900
20
450.148999
70
0
0
VERTEX
8
Layer 1
10
449.739064
20
449.325089
70
0
0
VERTEX
8
Layer 1
10
449.607302
20
448.167804
70
0
0
VERTEX
8
Layer 1
10
450.724899
20
448.167804
70
0
0
VERTEX
8
Layer 1
10
450.991598
20
449.463201
70
0
0
VERTEX
8
Layer 1
10
451.623422
20
450.123599
70
0
0
VERTEX
8
Layer 1
10
452.540995
20
450.364899
70
0
0
VERTEX
8
Layer 1
10
453.247431
20
450.234327
70
0
0
VERTEX
8
Layer 1
10
453.810992
20
449.872775
70
0
0
VERTEX
8
Layer 1
10
454.184054
20
449.325486
70
0
0
VERTEX
8
Layer 1
10
454.318991
20
448.637703
70
0
0
VERTEX
8
Layer 1
10
454.241005
20
448.105494
70
0
0
VERTEX
8
Layer 1
10
454.009429
20
447.618530
70
0
0
VERTEX
8
Layer 1
10
453.099794
20
446.808907
70
0
0
VERTEX
8
Layer 1
10
451.931396
20
446.123108
70
0
0
VERTEX
8
Layer 1
10
450.757840
20
445.332733
70
0
0
VERTEX
8
Layer 1
10
450.001001
20
444.495924
70
0
0
VERTEX
8
Layer 1
10
449.577536
20
443.485284
70
0
0
VERTEX
8
Layer 1
10
449.404102
20
442.173417
70
0
0
VERTEX
8
Layer 1
10
455.398489
20
442.173417
70
0
0
VERTEX
8
Layer 1
10
455.398489
20
443.265615
70
0
0
SEQEND
8
Layer 1
0
POLYLINE
8
Layer 1
62
7
70
0
10
0.000000
20
0.000000
66
1
0
VERTEX
8
Layer 1
10
460.453078
20
448.815502
70
0
0
VERTEX
8
Layer 1
10
460.453078
20
442.160717
70
0
0
VERTEX
8
Layer 1
10
461.519875
20
442.160717
70
0
0
VERTEX
8
Layer 1
10
461.519875
20
446.339008
70
0
0
VERTEX
8
Layer 1
10
461.642509
20
447.018059
70
0
0
VERTEX
8
Layer 1
10
461.977074
20
447.570905
70
0
0
VERTEX
8
Layer 1
10
462.473564
20
447.942776
70
0
0
VERTEX
8
Layer 1
10
463.081972
20
448.078904
70
0
0
VERTEX
8
Layer 1
10
463.606639
20
447.990203
70
0
0
VERTEX
8
Layer 1
10
463.993195
20
447.731242
70
0
0
VERTEX
8
Layer 1
10
464.232113
20
447.312738
70
0
0
VERTEX
8
Layer 1
10
464.313869
20
446.745407
70
0
0
VERTEX
8
Layer 1
10
464.313869
20
442.160717
70
0
0
VERTEX
8
Layer 1
10
465.380667
20
442.160717
70
0
0
VERTEX
8
Layer 1
10
465.380667
20
446.339008
70
0
0
VERTEX
8
Layer 1
10
465.503301
20
447.018059
70
0
0
VERTEX
8
Layer 1
10
465.837866
20
447.570905
70
0
0
VERTEX
8
Layer 1
10
466.334355
20
447.942776
70
0
0
VERTEX
8
Layer 1
10
466.942763
20
448.078904
70
0
0
VERTEX
8
Layer 1
10
467.462073
20
447.988417
70
0
0
VERTEX
8
Layer 1
10
467.849224
20
447.726480
70
0
0
VERTEX
8
Layer 1
10
468.091119
20
447.307381
70
0
0
VERTEX
8
Layer 1
10
468.174661
20
446.745407
70
0
0
VERTEX
8
Layer 1
10
468.174661
20
442.160717
70
0
0
VERTEX
8
Layer 1
10
469.241458
20
442.160717
70
0
0
VERTEX
8
Layer 1
10
469.241458
20
447.151806
70
0
0
VERTEX
8
Layer 1
10
469.114855
20
447.945157
70
0
0
VERTEX
8
Layer 1
10
468.742984
20
448.526578
70
0
0
VERTEX
8
Layer 1
10
468.137751
20
448.884162
70
0
0
VERTEX
8
Layer 1
10
467.311062
20
449.006002
70
0
0
VERTEX
8
Layer 1
10
466.188702
20
448.778990
70
0
0
VERTEX
8
Layer 1
10
465.266367
20
447.990004
70
0
0
VERTEX
8
Layer 1
10
464.941922
20
448.448791
70
0
0
VERTEX
8
Layer 1
10
464.547231
20
448.764702
70
0
0
VERTEX
8
Layer 1
10
463.475671
20
449.006002
70
0
0
VERTEX
8
Layer 1
10
462.859722
20
448.941907
70
0
0
VERTEX
8
Layer 1
10
462.329498
20
448.740890
70
0
0
VERTEX
8
Layer 1
10
461.430975
20
447.875704
70
0
0
VERTEX
8
Layer 1
10
461.430975
20
448.815502
70
0
0
VERTEX
8
Layer 1
10
460.453078
20
448.815502
70
0
0
SEQEND
8
Layer 1
0
POLYLINE
8
Layer 1
62
7
70
0
10
0.000000
20
0.000000
66
1
0
VERTEX
8
Layer 1
10
471.032154
20
448.815502
70
0
0
VERTEX
8
Layer 1
10
471.032154
20
442.160717
70
0
0
VERTEX
8
Layer 1
10
472.098952
20
442.160717
70
0
0
VERTEX
8
Layer 1
10
472.098952
20
446.339008
70
0
0
VERTEX
8
Layer 1
10
472.221586
20
447.018059
70
0
0
VERTEX
8
Layer 1
10
472.556151
20
447.570905
70
0
0
VERTEX
8
Layer 1
10
473.052640
20
447.942776
70
0
0
VERTEX
8
Layer 1
10
473.661048
20
448.078904
70
0
0
VERTEX
8
Layer 1
10
474.185716
20
447.990203
70
0
0
VERTEX
8
Layer 1
10
474.572271
20
447.731242
70
0
0
VERTEX
8
Layer 1
10
474.811190
20
447.312738
70
0
0
VERTEX
8
Layer 1
10
474.892946
20
446.745407
70
0
0
VERTEX
8
Layer 1
10
474.892946
20
442.160717
70
0
0
VERTEX
8
Layer 1
10
475.959743
20
442.160717
70
0
0
VERTEX
8
Layer 1
10
475.959743
20
446.339008
70
0
0
VERTEX
8
Layer 1
10
476.082378
20
447.018059
70
0
0
VERTEX
8
Layer 1
10
476.416942
20
447.570905
70
0
0
VERTEX
8
Layer 1
10
476.913432
20
447.942776
70
0
0
VERTEX
8
Layer 1
10
477.521840
20
448.078904
70
0
0
VERTEX
8
Layer 1
10
478.041150
20
447.988417
70
0
0
VERTEX
8
Layer 1
10
478.428300
20
447.726480
70
0
0
VERTEX
8
Layer 1
10
478.670195
20
447.307381
70
0
0
VERTEX
8
Layer 1
10
478.753737
20
446.745407
70
0
0
VERTEX
8
Layer 1
10
478.753737
20
442.160717
70
0
0
VERTEX
8
Layer 1
10
479.820535
20
442.160717
70
0
0
VERTEX
8
Layer 1
10
479.820535
20
447.151806
70
0
0
VERTEX
8
Layer 1
10
479.693932
20
447.945157
70
0
0
VERTEX
8
Layer 1
10
479.322061
20
448.526578
70
0
0
VERTEX
8
Layer 1
10
478.716828
20
448.884162
70
0
0
VERTEX
8
Layer 1
10
477.890139
20
449.006002
70
0
0
VERTEX
8
Layer 1
10
476.767779
20
448.778990
70
0
0
VERTEX
8
Layer 1
10
475.845444
20
447.990004
70
0
0
VERTEX
8
Layer 1
10
475.520999
20
448.448791
70
0
0
VERTEX
8
Layer 1
10
475.126308
20
448.764702
70
0
0
VERTEX
8
Layer 1
10
474.054748
20
449.006002
70
0
0
VERTEX
8
Layer 1
10
473.438799
20
448.941907
70
0
0
VERTEX
8
Layer 1
10
472.908575
20
448.740890
70
0
0
VERTEX
8
Layer 1
10
472.010052
20
447.875704
70
0
0
VERTEX
8
Layer 1
10
472.010052
20
448.815502
70
0
0
VERTEX
8
Layer 1
10
471.032154
20
448.815502
70
0
0
SEQEND
8
Layer 1
0
POLYLINE
8
Layer 1
62
7
70
0
10
0.000000
20
0.000000
66
1
0
VERTEX
8
Layer 1
10
257.294518
20
273.381084
70
0
0
VERTEX
8
Layer 1
10
257.434218
20
273.381084
70
0
0
VERTEX
8
Layer 1
10
257.904117
20
273.381084
70
0
0
VERTEX
8
Layer 1
10
258.710168
20
273.274523
70
0
0
VERTEX
8
Layer 1
10
259.294764
20
272.957223
70
0
0
VERTEX
8
Layer 1
10
259.650760
20
272.432753
70
0
0
VERTEX
8
Layer 1
10
259.771013
20
271.704688
70
0
0
VERTEX
8
Layer 1
10
259.643815
20
270.927410
70
0
0
VERTEX
8
Layer 1
10
259.277301
20
270.344203
70
0
0
VERTEX
8
Layer 1
10
258.694095
20
269.977690
70
0
0
VERTEX
8
Layer 1
10
257.916817
20
269.850492
70
0
0
VERTEX
8
Layer 1
10
257.110170
20
269.968760
70
0
0
VERTEX
8
Layer 1
10
256.530932
20
270.329916
70
0
0
VERTEX
8
Layer 1
10
256.168388
20
270.943483
70
0
0
VERTEX
8
Layer 1
10
256.011821
20
271.818988
70
0
0
VERTEX
8
Layer 1
10
254.894224
20
271.818988
70
0
0
VERTEX
8
Layer 1
10
255.029161
20
270.882365
70
0
0
VERTEX
8
Layer 1
10
255.287923
20
270.193391
70
0
0
VERTEX
8
Layer 1
10
255.715753
20
269.609986
70
0
0
VERTEX
8
Layer 1
10
256.291221
20
269.193268
70
0
0
VERTEX
8
Layer 1
10
257.009563
20
268.943238
70
0
0
VERTEX
8
Layer 1
10
257.866017
20
268.859894
70
0
0
VERTEX
8
Layer 1
10
259.124505
20
269.061705
70
0
0
VERTEX
8
Layer 1
10
260.085337
20
269.636180
70
0
0
VERTEX
8
Layer 1
10
260.698508
20
270.536886
70
0
0
VERTEX
8
Layer 1
10
260.914010
20
271.717388
70
0
0
VERTEX
8
Layer 1
10
260.827690
20
272.498039
70
0
0
VERTEX
8
Layer 1
10
260.556824
20
273.104860
70
0
0
VERTEX
8
Layer 1
10
260.083551
20
273.564043
70
0
0
VERTEX
8
Layer 1
10
259.390014
20
273.901783
70
0
0
VERTEX
8
Layer 1
10
259.940081
20
274.213726
70
0
0
VERTEX
8
Layer 1
10
260.332987
20
274.635206
70
0
0
VERTEX
8
Layer 1
10
260.568730
20
275.166224
70
0
0
VERTEX
8
Layer 1
10
260.647311
20
275.806779
70
0
0
VERTEX
8
Layer 1
10
260.459788
20
276.866036
70
0
0
VERTEX
8
Layer 1
10
259.918650
20
277.660975
70
0
0
VERTEX
8
Layer 1
10
259.056044
20
278.160639
70
0
0
VERTEX
8
Layer 1
10
257.904117
20
278.334073
70
0
0
VERTEX
8
Layer 1
10
256.702779
20
278.144963
70
0
0
VERTEX
8
Layer 1
10
255.827672
20
277.583187
70
0
0
VERTEX
8
Layer 1
10
255.285938
20
276.657082
70
0
0
VERTEX
8
Layer 1
10
255.084723
20
275.374980
70
0
0
VERTEX
8
Layer 1
10
256.202321
20
275.374980
70
0
0
VERTEX
8
Layer 1
10
256.405520
20
276.530677
70
0
0
VERTEX
8
Layer 1
10
256.994481
20
277.138688
70
0
0
VERTEX
8
Layer 1
10
257.916817
20
277.356175
70
0
0
VERTEX
8
Layer 1
10
258.582772
20
277.247432
70
0
0
VERTEX
8
Layer 1
10
259.082039
20
276.933901
70
0
0
VERTEX
8
Layer 1
10
259.395570
20
276.434634
70
0
0
VERTEX
8
Layer 1
10
259.504313
20
275.768679
70
0
0
VERTEX
8
Layer 1
10
259.328101
20
274.978106
70
0
0
VERTEX
8
Layer 1
10
258.780415
20
274.511382
70
0
0
VERTEX
8
Layer 1
10
257.294518
20
274.320882
70
0
0
VERTEX
8
Layer 1
10
257.294518
20
273.381084
70
0
0
SEQEND
8
Layer 1
0
POLYLINE
8
Layer 1
62
7
70
0
10
0.000000
20
0.000000
66
1
0
VERTEX
8
Layer 1
10
262.438003
20
275.806779
70
0
0
VERTEX
8
Layer 1
10
262.438003
20
269.151993
70
0
0
VERTEX
8
Layer 1
10
263.504801
20
269.151993
70
0
0
VERTEX
8
Layer 1
10
263.504801
20
273.330284
70
0
0
VERTEX
8
Layer 1
10
263.627435
20
274.009336
70
0
0
VERTEX
8
Layer 1
10
263.962000
20
274.562182
70
0
0
VERTEX
8
Layer 1
10
264.458490
20
274.934053
70
0
0
VERTEX
8
Layer 1
10
265.066898
20
275.070180
70
0
0
VERTEX
8
Layer 1
10
265.591565
20
274.981479
70
0
0
VERTEX
8
Layer 1
10
265.978121
20
274.722519
70
0
0
VERTEX
8
Layer 1
10
266.217039
20
274.304015
70
0
0
VERTEX
8
Layer 1
10
266.298795
20
273.736683
70
0
0
VERTEX
8
Layer 1
10
266.298795
20
269.151993
70
0
0
VERTEX
8
Layer 1
10
267.365593
20
269.151993
70
0
0
VERTEX
8
Layer 1
10
267.365593
20
273.330284
70
0
0
VERTEX
8
Layer 1
10
267.488227
20
274.009336
70
0
0
VERTEX
8
Layer 1
10
267.822792
20
274.562182
70
0
0
VERTEX
8
Layer 1
10
268.319281
20
274.934053
70
0
0
VERTEX
8
Layer 1
10
268.927689
20
275.070180
70
0
0
VERTEX
8
Layer 1
10
269.446999
20
274.979693
70
0
0
VERTEX
8
Layer 1
10
269.834150
20
274.717756
70
0
0
VERTEX
8
Layer 1
10
270.076044
20
274.298657
70
0
0
VERTEX
8
Layer 1
10
270.159586
20
273.736683
70
0
0
VERTEX
8
Layer 1
10
270.159586
20
269.151993
70
0
0
VERTEX
8
Layer 1
10
271.226384
20
269.151993
70
0
0
VERTEX
8
Layer 1
10
271.226384
20
274.143082
70
0
0
VERTEX
8
Layer 1
10
271.099781
20
274.936434
70
0
0
VERTEX
8
Layer 1
10
270.727910
20
275.517854
70
0
0
VERTEX
8
Layer 1
10
270.122677
20
275.875438
70
0
0
VERTEX
8
Layer 1
10
269.295988
20
275.997278
70
0
0
VERTEX
8
Layer 1
10
268.173628
20
275.770266
70
0
0
VERTEX
8
Layer 1
10
267.251293
20
274.981281
70
0
0
VERTEX
8
Layer 1
10
266.926848
20
275.440067
70
0
0
VERTEX
8
Layer 1
10
266.532157
20
275.755979
70
0
0
VERTEX
8
Layer 1
10
265.460597
20
275.997278
70
0
0
VERTEX
8
Layer 1
10
264.844648
20
275.933183
70
0
0
VERTEX
8
Layer 1
10
264.314424
20
275.732166
70
0
0
VERTEX
8
Layer 1
10
263.415901
20
274.866981
70
0
0
VERTEX
8
Layer 1
10
263.415901
20
275.806779
70
0
0
VERTEX
8
Layer 1
10
262.438003
20
275.806779
70
0
0
SEQEND
8
Layer 1
0
POLYLINE
8
Layer 1
62
7
70
0
10
0.000000
20
0.000000
66
1
0
VERTEX
8
Layer 1
10
273.017084
20
275.806779
70
0
0
VERTEX
8
Layer 1
10
273.017084
20
269.151993
70
0
0
VERTEX
8
Layer 1
10
274.083881
20
269.151993
70
0
0
VERTEX
8
Layer 1
10
274.083881
20
273.330284
70
0
0
VERTEX
8
Layer 1
10
274.206515
20
274.009336
70
0
0
VERTEX
8
Layer 1
10
274.541080
20
274.562182
70
0
0
VERTEX
8
Layer 1
10
275.037570
20
274.934053
70
0
0
VERTEX
8
Layer 1
10
275.645978
20
275.070180
70
0
0
VERTEX
8
Layer 1
10
276.170645
20
274.981479
70
0
0
VERTEX
8
Layer 1
10
276.557201
20
274.722519
70
0
0
VERTEX
8
Layer 1
10
276.796119
20
274.304015
70
0
0
VERTEX
8
Layer 1
10
276.877875
20
273.736683
70
0
0
VERTEX
8
Layer 1
10
276.877875
20
269.151993
70
0
0
VERTEX
8
Layer 1
10
277.944673
20
269.151993
70
0
0
VERTEX
8
Layer 1
10
277.944673
20
273.330284
70
0
0
VERTEX
8
Layer 1
10
278.067307
20
274.009336
70
0
0
VERTEX
8
Layer 1
10
278.401872
20
274.562182
70
0
0
VERTEX
8
Layer 1
10
278.898361
20
274.934053
70
0
0
VERTEX
8
Layer 1
10
279.506769
20
275.070180
70
0
0
VERTEX
8
Layer 1
10
280.026079
20
274.979693
70
0
0
VERTEX
8
Layer 1
10
280.413230
20
274.717756
70
0
0
VERTEX
8
Layer 1
10
280.655125
20
274.298657
70
0
0
VERTEX
8
Layer 1
10
280.738667
20
273.736683
70
0
0
VERTEX
8
Layer 1
10
280.738667
20
269.151993
70
0
0
VERTEX
8
Layer 1
10
281.805464
20
269.151993
70
0
0
VERTEX
8
Layer 1
10
281.805464
20
274.143082
70
0
0
VERTEX
8
Layer 1
10
281.678861
20
274.936434
70
0
0
VERTEX
8
Layer 1
10
281.306990
20
275.517854
70
0
0
VERTEX
8
Layer 1
10
280.701757
20
275.875438
70
0
0
VERTEX
8
Layer 1
10
279.875069
20
275.997278
70
0
0
VERTEX
8
Layer 1
10
278.752708
20
275.770266
70
0
0
VERTEX
8
Layer 1
10
277.830373
20
274.981281
70
0
0
VERTEX
8
Layer 1
10
277.505928
20
275.440067
70
0
0
VERTEX
8
Layer 1
10
277.111237
20
275.755979
70
0
0
VERTEX
8
Layer 1
10
276.039677
20
275.997278
70
0
0
VERTEX
8
Layer 1
10
275.423728
20
275.933183
70
0
0
VERTEX
8
Layer 1
10
274.893504
20
275.732166
70
0
0
VERTEX
8
Layer 1
10
273.994981
20
274.866981
70
0
0
VERTEX
8
Layer 1
10
273.994981
20
275.806779
70
0
0
VERTEX
8
Layer 1
10
273.017084
20
275.806779
70
0
0
SEQEND
8
Layer 1
0
POLYLINE
8
Layer 1
62
250
70
0
10
0.000000
20
0.000000
66
1
0
VERTEX
8
Layer 1
10
139.510780
20
391.875636
70
0
0
VERTEX
8
Layer 1
10
132.760921
20
391.875636
70
0
0
VERTEX
8
Layer 1
10
132.760921
20
486.625436
70
0
0
VERTEX
8
Layer 1
10
139.510780
20
486.625436
70
0
0
SEQEND
8
Layer 1
0
POLYLINE
8
Layer 1
62
250
70
0
10
0.000000
20
0.000000
66
1
0
VERTEX
8
Layer 1
10
149.510773
20
486.625436
70
0
0
VERTEX
8
Layer 1
10
161.510730
20
486.625436
70
0
0
SEQEND
8
Layer 1
0
POLYLINE
8
Layer 1
62
250
70
0
10
0.000000
20
0.000000
66
1
0
VERTEX
8
Layer 1
10
171.510723
20
486.625436
70
0
0
VERTEX
8
Layer 1
10
183.510680
20
486.625436
70
0
0
SEQEND
8
Layer 1
0
POLYLINE
8
Layer 1
62
250
70
0
10
0.000000
20
0.000000
66
1
0
VERTEX
8
Layer 1
10
193.510673
20
486.625436
70
0
0
VERTEX
8
Layer 1
10
200.260743
20
486.625436
70
0
0
VERTEX
8
Layer 1
10
200.260743
20
391.875636
70
0
0
VERTEX
8
Layer 1
10
193.510673
20
391.875636
70
0
0
SEQEND
8
Layer 1
0
POLYLINE
8
Layer 1
62
250
70
0
10
0.000000
20
0.000000
66
1
0
VERTEX
8
Layer 1
10
183.510680
20
391.875636
70
0
0
VERTEX
8
Layer 1
10
171.510723
20
391.875636
70
0
0
SEQEND
8
Layer 1
0
POLYLINE
8
Layer 1
62
250
70
0
10
0.000000
20
0.000000
66
1
0
VERTEX
8
Layer 1
10
161.510730
20
391.875636
70
0
0
VERTEX
8
Layer 1
10
149.510773
20
391.875636
70
0
0
SEQEND
8
Layer 1
0
POLYLINE
8
Layer 1
62
250
70
0
10
0.000000
20
0.000000
66
1
0
VERTEX
8
Layer 1
10
171.510723
20
391.875636
70
0
0
VERTEX
8
Layer 1
10
171.510723
20
389.075645
70
0
0
VERTEX
8
Layer 1
10
161.510730
20
389.075645
70
0
0
VERTEX
8
Layer 1
10
161.510730
20
391.875636
70
0
0
SEQEND
8
Layer 1
0
POLYLINE
8
Layer 1
62
250
70
0
10
0.000000
20
0.000000
66
1
0
VERTEX
8
Layer 1
10
149.510773
20
391.875636
70
0
0
VERTEX
8
Layer 1
10
149.510773
20
389.075645
70
0
0
VERTEX
8
Layer 1
10
139.510780
20
389.075645
70
0
0
VERTEX
8
Layer 1
10
139.510780
20
391.875636
70
0
0
SEQEND
8
Layer 1
0
POLYLINE
8
Layer 1
62
250
70
0
10
0.000000
20
0.000000
66
1
0
VERTEX
8
Layer 1
10
193.510673
20
391.875636
70
0
0
VERTEX
8
Layer 1
10
193.510673
20
389.075645
70
0
0
VERTEX
8
Layer 1
10
183.510680
20
389.075645
70
0
0
VERTEX
8
Layer 1
10
183.510680
20
391.875636
70
0
0
SEQEND
8
Layer 1
0
POLYLINE
8
Layer 1
62
250
70
0
10
0.000000
20
0.000000
66
1
0
VERTEX
8
Layer 1
10
161.510730
20
486.625436
70
0
0
VERTEX
8
Layer 1
10
161.510730
20
489.425427
70
0
0
VERTEX
8
Layer 1
10
171.510723
20
489.425427
70
0
0
VERTEX
8
Layer 1
10
171.510723
20
486.625436
70
0
0
SEQEND
8
Layer 1
0
POLYLINE
8
Layer 1
62
250
70
0
10
0.000000
20
0.000000
66
1
0
VERTEX
8
Layer 1
10
139.510780
20
486.625436
70
0
0
VERTEX
8
Layer 1
10
139.510780
20
489.425427
70
0
0
VERTEX
8
Layer 1
10
149.510773
20
489.425427
70
0
0
VERTEX
8
Layer 1
10
149.510773
20
486.625436
70
0
0
SEQEND
8
Layer 1
0
POLYLINE
8
Layer 1
62
250
70
0
10
0.000000
20
0.000000
66
1
0
VERTEX
8
Layer 1
10
183.510680
20
486.625436
70
0
0
VERTEX
8
Layer 1
10
183.510680
20
489.425427
70
0
0
VERTEX
8
Layer 1
10
193.510673
20
489.425427
70
0
0
VERTEX
8
Layer 1
10
193.510673
20
486.625436
70
0
0
SEQEND
8
Layer 1
0
POLYLINE
8
Layer 1
62
250
70
0
10
0.000000
20
0.000000
66
1
0
VERTEX
8
Layer 1
10
341.555058
20
391.875636
70
0
0
VERTEX
8
Layer 1
10
322.555088
20
391.875636
70
0
0
VERTEX
8
Layer 1
10
322.555088
20
486.625436
70
0
0
VERTEX
8
Layer 1
10
341.555058
20
486.625436
70
0
0
SEQEND
8
Layer 1
0
POLYLINE
8
Layer 1
62
250
70
0
10
0.000000
20
0.000000
66
1
0
VERTEX
8
Layer 1
10
351.555016
20
486.625436
70
0
0
VERTEX
8
Layer 1
10
373.554966
20
486.625436
70
0
0
SEQEND
8
Layer 1
0
POLYLINE
8
Layer 1
62
250
70
0
10
0.000000
20
0.000000
66
1
0
VERTEX
8
Layer 1
10
383.554959
20
486.625436
70
0
0
VERTEX
8
Layer 1
10
405.554909
20
486.625436
70
0
0
SEQEND
8
Layer 1
0
POLYLINE
8
Layer 1
62
250
70
0
10
0.000000
20
0.000000
66
1
0
VERTEX
8
Layer 1
10
415.554867
20
486.625436
70
0
0
VERTEX
8
Layer 1
10
434.554836
20
486.625436
70
0
0
VERTEX
8
Layer 1
10
434.554836
20
391.875636
70
0
0
VERTEX
8
Layer 1
10
415.554867
20
391.875636
70
0
0
SEQEND
8
Layer 1
0
POLYLINE
8
Layer 1
62
250
70
0
10
0.000000
20
0.000000
66
1
0
VERTEX
8
Layer 1
10
405.554909
20
391.875636
70
0
0
VERTEX
8
Layer 1
10
383.554959
20
391.875636
70
0
0
SEQEND
8
Layer 1
0
POLYLINE
8
Layer 1
62
250
70
0
10
0.000000
20
0.000000
66
1
0
VERTEX
8
Layer 1
10
373.554966
20
391.875636
70
0
0
VERTEX
8
Layer 1
10
351.555016
20
391.875636
70
0
0
SEQEND
8
Layer 1
0
POLYLINE
8
Layer 1
62
250
70
0
10
0.000000
20
0.000000
66
1
0
VERTEX
8
Layer 1
10
373.554966
20
486.625436
70
0
0
VERTEX
8
Layer 1
10
373.554966
20
489.425427
70
0
0
VERTEX
8
Layer 1
10
383.554959
20
489.425427
70
0
0
VERTEX
8
Layer 1
10
383.554959
20
486.625436
70
0
0
SEQEND
8
Layer 1
0
POLYLINE
8
Layer 1
62
250
70
0
10
0.000000
20
0.000000
66
1
0
VERTEX
8
Layer 1
10
341.555058
20
486.625436
70
0
0
VERTEX
8
Layer 1
10
341.555058
20
489.425427
70
0
0
VERTEX
8
Layer 1
10
351.555016
20
489.425427
70
0
0
VERTEX
8
Layer 1
10
351.555016
20
486.625436
70
0
0
SEQEND
8
Layer 1
0
POLYLINE
8
Layer 1
62
250
70
0
10
0.000000
20
0.000000
66
1
0
VERTEX
8
Layer 1
10
405.554909
20
486.625436
70
0
0
VERTEX
8
Layer 1
10
405.554909
20
489.425427
70
0
0
VERTEX
8
Layer 1
10
415.554867
20
489.425427
70
0
0
VERTEX
8
Layer 1
10
415.554867
20
486.625436
70
0
0
SEQEND
8
Layer 1
0
POLYLINE
8
Layer 1
62
250
70
0
10
0.000000
20
0.000000
66
1
0
VERTEX
8
Layer 1
10
383.554959
20
391.875636
70
0
0
VERTEX
8
Layer 1
10
383.554959
20
389.075645
70
0
0
VERTEX
8
Layer 1
10
373.554966
20
389.075645
70
0
0
VERTEX
8
Layer 1
10
373.554966
20
391.875636
70
0
0
SEQEND
8
Layer 1
0
POLYLINE
8
Layer 1
62
250
70
0
10
0.000000
20
0.000000
66
1
0
VERTEX
8
Layer 1
10
351.555016
20
391.875636
70
0
0
VERTEX
8
Layer 1
10
351.555016
20
389.075645
70
0
0
VERTEX
8
Layer 1
10
341.555058
20
389.075645
70
0
0
VERTEX
8
Layer 1
10
341.555058
20
391.875636
70
0
0
SEQEND
8
Layer 1
0
POLYLINE
8
Layer 1
62
250
70
0
10
0.000000
20
0.000000
66
1
0
VERTEX
8
Layer 1
10
415.554867
20
391.875636
70
0
0
VERTEX
8
Layer 1
10
415.554867
20
389.075645
70
0
0
VERTEX
8
Layer 1
10
405.554909
20
389.075645
70
0
0
VERTEX
8
Layer 1
10
405.554909
20
391.875636
70
0
0
SEQEND
8
Layer 1
0
POLYLINE
8
Layer 1
62
7
70
1
10
0.000000
20
0.000000
66
1
0
VERTEX
8
Layer 1
10
26.299878
20
469.524535
70
0
0
VERTEX
8
Layer 1
10
28.209954
20
469.524535
70
0
0
VERTEX
8
Layer 1
10
28.221313
20
471.400497
70
0
0
VERTEX
8
Layer 1
10
28.221313
20
475.413900
70
0
0
VERTEX
8
Layer 1
10
29.400726
20
475.348200
70
0
0
VERTEX
8
Layer 1
10
29.891131
20
475.151770
70
0
0
VERTEX
8
Layer 1
10
30.337623
20
474.744682
70
0
0
VERTEX
8
Layer 1
10
30.702019
20
474.000936
70
0
0
VERTEX
8
Layer 1
10
30.836308
20
473.026341
70
0
0
VERTEX
8
Layer 1
10
30.696595
20
471.827336
70
0
0
VERTEX
8
Layer 1
10
30.463896
20
471.292988
70
0
0
VERTEX
8
Layer 1
10
30.071029
20
470.835525
70
0
0
VERTEX
8
Layer 1
10
29.313864
20
470.489874
70
0
0
VERTEX
8
Layer 1
10
28.312295
20
470.445460
70
0
0
VERTEX
8
Layer 1
10
28.312295
20
469.524535
70
0
0
VERTEX
8
Layer 1
10
29.551565
20
469.524535
70
0
0
VERTEX
8
Layer 1
10
30.637426
20
469.698565
70
0
0
VERTEX
8
Layer 1
10
31.583455
20
470.175832
70
0
0
VERTEX
8
Layer 1
10
32.016100
20
470.573165
70
0
0
VERTEX
8
Layer 1
10
32.062526
20
470.629045
70
0
0
VERTEX
8
Layer 1
10
32.291619
20
470.922943
70
0
0
VERTEX
8
Layer 1
10
32.450263
20
471.173591
70
0
0
VERTEX
8
Layer 1
10
32.591091
20
471.453449
70
0
0
VERTEX
8
Layer 1
10
32.801880
20
472.074474
70
0
0
VERTEX
8
Layer 1
10
32.894162
20
472.810300
70
0
0
VERTEX
8
Layer 1
10
32.773054
20
473.803403
70
0
0
VERTEX
8
Layer 1
10
32.655438
20
474.140552
70
0
0
VERTEX
8
Layer 1
10
32.135339
20
475.007536
70
0
0
VERTEX
8
Layer 1
10
32.031799
20
475.131361
70
0
0
VERTEX
8
Layer 1
10
31.919228
20
475.246190
70
0
0
VERTEX
8
Layer 1
10
31.418531
20
475.666418
70
0
0
VERTEX
8
Layer 1
10
30.229003
20
476.195341
70
0
0
VERTEX
8
Layer 1
10
28.869400
20
476.334825
70
0
0
VERTEX
8
Layer 1
10
26.299878
20
476.334825
70
0
0
VERTEX
8
Layer 1
10
26.299878
20
469.524535
70
0
0
VERTEX
8
Layer 1
10
26.299878
20
469.524535
70
0
0
SEQEND
8
Layer 1
0
POLYLINE
8
Layer 1
62
7
70
1
10
0.000000
20
0.000000
66
1
0
VERTEX
8
Layer 1
10
19.319056
20
469.524535
70
0
0
VERTEX
8
Layer 1
10
21.183624
20
469.524535
70
0
0
VERTEX
8
Layer 1
10
21.183624
20
475.493487
70
0
0
VERTEX
8
Layer 1
10
22.253729
20
475.425692
70
0
0
VERTEX
8
Layer 1
10
22.709674
20
475.227264
70
0
0
VERTEX
8
Layer 1
10
23.020886
20
474.818095
70
0
0
VERTEX
8
Layer 1
10
23.097122
20
474.541871
70
0
0
VERTEX
8
Layer 1
10
23.115294
20
474.008904
70
0
0
VERTEX
8
Layer 1
10
22.955164
20
473.505941
70
0
0
VERTEX
8
Layer 1
10
22.648059
20
473.200569
70
0
0
VERTEX
8
Layer 1
10
22.234405
20
473.044262
70
0
0
VERTEX
8
Layer 1
10
21.968129
20
473.003587
70
0
0
VERTEX
8
Layer 1
10
21.968129
20
471.616538
70
0
0
VERTEX
8
Layer 1
10
22.710443
20
470.050843
70
0
0
VERTEX
8
Layer 1
10
22.835502
20
469.789330
70
0
0
VERTEX
8
Layer 1
10
22.957281
20
469.524535
70
0
0
VERTEX
8
Layer 1
10
25.094721
20
469.524535
70
0
0
VERTEX
8
Layer 1
10
24.894873
20
469.893152
70
0
0
VERTEX
8
Layer 1
10
24.278290
20
470.993358
70
0
0
VERTEX
8
Layer 1
10
24.177431
20
471.176731
70
0
0
VERTEX
8
Layer 1
10
23.457519
20
472.457841
70
0
0
VERTEX
8
Layer 1
10
24.326267
20
472.817038
70
0
0
VERTEX
8
Layer 1
10
24.746918
20
473.226330
70
0
0
VERTEX
8
Layer 1
10
24.990491
20
473.796420
70
0
0
VERTEX
8
Layer 1
10
25.032778
20
474.438463
70
0
0
VERTEX
8
Layer 1
10
24.883408
20
475.059035
70
0
0
VERTEX
8
Layer 1
10
24.552009
20
475.564712
70
0
0
VERTEX
8
Layer 1
10
24.483782
20
475.632940
70
0
0
VERTEX
8
Layer 1
10
24.404055
20
475.701026
70
0
0
VERTEX
8
Layer 1
10
23.462457
20
476.191950
70
0
0
VERTEX
8
Layer 1
10
22.457008
20
476.334825
70
0
0
VERTEX
8
Layer 1
10
19.319056
20
476.334825
70
0
0
VERTEX
8
Layer 1
10
19.319056
20
469.524535
70
0
0
VERTEX
8
Layer 1
10
19.319056
20
469.524535
70
0
0
SEQEND
8
Layer 1
0
POLYLINE
8
Layer 1
62
7
70
1
10
0.000000
20
0.000000
66
1
0
VERTEX
8
Layer 1
10
34.315360
20
472.310062
70
0
0
VERTEX
8
Layer 1
10
38.453822
20
472.310062
70
0
0
VERTEX
8
Layer 1
10
38.453822
20
473.344687
70
0
0
VERTEX
8
Layer 1
10
34.315360
20
473.344687
70
0
0
VERTEX
8
Layer 1
10
34.315360
20
472.310062
70
0
0
VERTEX
8
Layer 1
10
34.315360
20
472.310062
70
0
0
SEQEND
8
Layer 1
0
POLYLINE
8
Layer 1
62
7
70
1
10
0.000000
20
0.000000
66
1
0
VERTEX
8
Layer 1
10
45.070825
20
470.775200
70
0
0
VERTEX
8
Layer 1
10
45.070825
20
470.763806
70
0
0
VERTEX
8
Layer 1
10
45.122718
20
470.679245
70
0
0
VERTEX
8
Layer 1
10
45.426424
20
470.266672
70
0
0
VERTEX
8
Layer 1
10
45.552930
20
470.097586
70
0
0
VERTEX
8
Layer 1
10
45.673438
20
469.933862
70
0
0
VERTEX
8
Layer 1
10
45.887133
20
469.645326
70
0
0
VERTEX
8
Layer 1
10
46.151310
20
469.546760
70
0
0
VERTEX
8
Layer 1
10
46.357416
20
469.633274
70
0
0
VERTEX
8
Layer 1
10
46.376382
20
469.840941
70
0
0
VERTEX
8
Layer 1
10
45.766148
20
470.674624
70
0
0
VERTEX
8
Layer 1
10
45.639325
20
470.843392
70
0
0
VERTEX
8
Layer 1
10
45.859281
20
470.919027
70
0
0
VERTEX
8
Layer 1
10
45.957777
20
470.968346
70
0
0
VERTEX
8
Layer 1
10
46.264164
20
471.253178
70
0
0
VERTEX
8
Layer 1
10
46.320114
20
471.356400
70
0
0
VERTEX
8
Layer 1
10
46.365772
20
471.839405
70
0
0
VERTEX
8
Layer 1
10
46.124887
20
472.249914
70
0
0
VERTEX
8
Layer 1
10
45.734791
20
472.458026
70
0
0
VERTEX
8
Layer 1
10
45.218674
20
472.537498
70
0
0
VERTEX
8
Layer 1
10
44.013482
20
472.537427
70
0
0
VERTEX
8
Layer 1
10
44.013482
20
469.865600
70
0
0
VERTEX
8
Layer 1
10
44.117657
20
469.583237
70
0
0
VERTEX
8
Layer 1
10
44.434415
20
469.569761
70
0
0
VERTEX
8
Layer 1
10
44.570869
20
469.819880
70
0
0
VERTEX
8
Layer 1
10
44.570587
20
472.116776
70
0
0
VERTEX
8
Layer 1
10
45.395243
20
472.084806
70
0
0
VERTEX
8
Layer 1
10
45.733602
20
471.924252
70
0
0
VERTEX
8
Layer 1
10
45.809399
20
471.560129
70
0
0
VERTEX
8
Layer 1
10
45.511064
20
471.277991
70
0
0
VERTEX
8
Layer 1
10
45.048106
20
471.218606
70
0
0
VERTEX
8
Layer 1
10
45.048106
20
470.991206
70
0
0
VERTEX
8
Layer 1
10
45.070825
20
470.775200
70
0
0
VERTEX
8
Layer 1
10
45.070825
20
470.775200
70
0
0
SEQEND
8
Layer 1
0
POLYLINE
8
Layer 1
62
7
70
1
10
0.000000
20
0.000000
66
1
0
VERTEX
8
Layer 1
10
43.751968
20
475.322954
70
0
0
VERTEX
8
Layer 1
10
43.873323
20
474.750750
70
0
0
VERTEX
8
Layer 1
10
44.383897
20
474.322554
70
0
0
VERTEX
8
Layer 1
10
45.059465
20
474.197384
70
0
0
VERTEX
8
Layer 1
10
45.171684
20
474.312566
70
0
0
VERTEX
8
Layer 1
10
45.261959
20
474.461050
70
0
0
VERTEX
8
Layer 1
10
45.273028
20
474.628632
70
0
0
VERTEX
8
Layer 1
10
44.802820
20
474.657017
70
0
0
VERTEX
8
Layer 1
10
44.550867
20
474.768848
70
0
0
VERTEX
8
Layer 1
10
44.318598
20
475.136790
70
0
0
VERTEX
8
Layer 1
10
44.380969
20
475.558045
70
0
0
VERTEX
8
Layer 1
10
44.632179
20
475.800663
70
0
0
VERTEX
8
Layer 1
10
44.988645
20
475.906042
70
0
0
VERTEX
8
Layer 1
10
45.671463
20
475.775779
70
0
0
VERTEX
8
Layer 1
10
45.938453
20
475.333203
70
0
0
VERTEX
8
Layer 1
10
45.813914
20
474.818660
70
0
0
VERTEX
8
Layer 1
10
45.749427
20
474.712615
70
0
0
VERTEX
8
Layer 1
10
45.624085
20
474.496857
70
0
0
VERTEX
8
Layer 1
10
45.443251
20
474.245644
70
0
0
VERTEX
8
Layer 1
10
45.369239
20
474.149124
70
0
0
VERTEX
8
Layer 1
10
45.328987
20
474.098395
70
0
0
VERTEX
8
Layer 1
10
45.244215
20
474.012635
70
0
0
VERTEX
8
Layer 1
10
45.067756
20
473.847994
70
0
0
VERTEX
8
Layer 1
10
44.981572
20
473.763645
70
0
0
VERTEX
8
Layer 1
10
44.890626
20
473.684058
70
0
0
VERTEX
8
Layer 1
10
44.663120
20
473.490878
70
0
0
VERTEX
8
Layer 1
10
44.613026
20
473.450026
70
0
0
VERTEX
8
Layer 1
10
44.480012
20
473.317629
70
0
0
VERTEX
8
Layer 1
10
44.453359
20
473.136654
70
0
0
VERTEX
8
Layer 1
10
44.752479
20
473.003587
70
0
0
VERTEX
8
Layer 1
10
45.437395
20
473.512468
70
0
0
VERTEX
8
Layer 1
10
45.642147
20
473.705648
70
0
0
VERTEX
8
Layer 1
10
46.336624
20
474.602901
70
0
0
VERTEX
8
Layer 1
10
46.450747
20
474.886710
70
0
0
VERTEX
8
Layer 1
10
46.442422
20
475.568946
70
0
0
VERTEX
8
Layer 1
10
45.978652
20
476.123427
70
0
0
VERTEX
8
Layer 1
10
45.207279
20
476.334825
70
0
0
VERTEX
8
Layer 1
10
44.603916
20
476.275404
70
0
0
VERTEX
8
Layer 1
10
44.081673
20
475.993760
70
0
0
VERTEX
8
Layer 1
10
43.883377
20
475.760045
70
0
0
VERTEX
8
Layer 1
10
43.751968
20
475.322954
70
0
0
VERTEX
8
Layer 1
10
43.751968
20
475.322954
70
0
0
SEQEND
8
Layer 1
0
POLYLINE
8
Layer 1
62
7
70
1
10
0.000000
20
0.000000
66
1
0
VERTEX
8
Layer 1
10
39.590787
20
475.254727
70
0
0
VERTEX
8
Layer 1
10
39.666570
20
474.956458
70
0
0
VERTEX
8
Layer 1
10
39.860741
20
474.731550
70
0
0
VERTEX
8
Layer 1
10
40.405173
20
474.454700
70
0
0
VERTEX
8
Layer 1
10
40.802435
20
474.306216
70
0
0
VERTEX
8
Layer 1
10
41.163431
20
474.132826
70
0
0
VERTEX
8
Layer 1
10
41.349021
20
473.945712
70
0
0
VERTEX
8
Layer 1
10
41.377810
20
473.731926
70
0
0
VERTEX
8
Layer 1
10
41.251810
20
473.539802
70
0
0
VERTEX
8
Layer 1
10
40.973038
20
473.417676
70
0
0
VERTEX
8
Layer 1
10
40.334264
20
473.462832
70
0
0
VERTEX
8
Layer 1
10
40.126761
20
473.721488
70
0
0
VERTEX
8
Layer 1
10
39.982239
20
473.893368
70
0
0
VERTEX
8
Layer 1
10
39.800636
20
473.918364
70
0
0
VERTEX
8
Layer 1
10
39.579392
20
473.731225
70
0
0
VERTEX
8
Layer 1
10
39.697714
20
473.349273
70
0
0
VERTEX
8
Layer 1
10
40.105722
20
473.067470
70
0
0
VERTEX
8
Layer 1
10
40.602657
20
472.969473
70
0
0
VERTEX
8
Layer 1
10
41.116697
20
473.002961
70
0
0
VERTEX
8
Layer 1
10
41.578191
20
473.187736
70
0
0
VERTEX
8
Layer 1
10
41.828451
20
473.426355
70
0
0
VERTEX
8
Layer 1
10
41.932820
20
473.931262
70
0
0
VERTEX
8
Layer 1
10
41.682860
20
474.356663
70
0
0
VERTEX
8
Layer 1
10
40.987837
20
474.723264
70
0
0
VERTEX
8
Layer 1
10
40.326045
20
474.989510
70
0
0
VERTEX
8
Layer 1
10
40.172651
20
475.160106
70
0
0
VERTEX
8
Layer 1
10
40.181777
20
475.372418
70
0
0
VERTEX
8
Layer 1
10
40.371983
20
475.553383
70
0
0
VERTEX
8
Layer 1
10
40.761830
20
475.629941
70
0
0
VERTEX
8
Layer 1
10
41.118006
20
475.564209
70
0
0
VERTEX
8
Layer 1
10
41.302382
20
475.419598
70
0
0
VERTEX
8
Layer 1
10
41.580414
20
475.209254
70
0
0
VERTEX
8
Layer 1
10
41.782083
20
475.255001
70
0
0
VERTEX
8
Layer 1
10
41.876041
20
475.391181
70
0
0
VERTEX
8
Layer 1
10
41.736800
20
475.718100
70
0
0
VERTEX
8
Layer 1
10
41.341756
20
475.957741
70
0
0
VERTEX
8
Layer 1
10
40.864135
20
476.050592
70
0
0
VERTEX
8
Layer 1
10
40.378291
20
476.014609
70
0
0
VERTEX
8
Layer 1
10
39.947691
20
475.841466
70
0
0
VERTEX
8
Layer 1
10
39.693807
20
475.602138
70
0
0
VERTEX
8
Layer 1
10
39.590787
20
475.254727
70
0
0
VERTEX
8
Layer 1
10
39.590787
20
475.254727
70
0
0
SEQEND
8
Layer 1
0
POLYLINE
8
Layer 1
62
7
70
1
10
0.000000
20
0.000000
66
1
0
VERTEX
8
Layer 1
10
39.602146
20
469.786049
70
0
0
VERTEX
8
Layer 1
10
39.698662
20
469.585469
70
0
0
VERTEX
8
Layer 1
10
39.909133
20
469.547289
70
0
0
VERTEX
8
Layer 1
10
40.098592
20
469.624543
70
0
0
VERTEX
8
Layer 1
10
40.159252
20
469.831522
70
0
0
VERTEX
8
Layer 1
10
40.159252
20
472.116776
70
0
0
VERTEX
8
Layer 1
10
41.358200
20
472.042340
70
0
0
VERTEX
8
Layer 1
10
41.565637
20
471.890514
70
0
0
VERTEX
8
Layer 1
10
41.625887
20
471.639257
70
0
0
VERTEX
8
Layer 1
10
41.543711
20
471.414329
70
0
0
VERTEX
8
Layer 1
10
41.340433
20
471.287419
70
0
0
VERTEX
8
Layer 1
10
40.830057
20
471.218606
70
0
0
VERTEX
8
Layer 1
10
40.261557
20
471.218606
70
0
0
VERTEX
8
Layer 1
10
40.261557
20
470.797919
70
0
0
VERTEX
8
Layer 1
10
41.034703
20
470.797919
70
0
0
VERTEX
8
Layer 1
10
41.802244
20
471.001339
70
0
0
VERTEX
8
Layer 1
10
42.076096
20
471.263393
70
0
0
VERTEX
8
Layer 1
10
42.182992
20
471.639257
70
0
0
VERTEX
8
Layer 1
10
42.087645
20
472.050948
70
0
0
VERTEX
8
Layer 1
10
41.821537
20
472.323785
70
0
0
VERTEX
8
Layer 1
10
41.034703
20
472.537427
70
0
0
VERTEX
8
Layer 1
10
39.602146
20
472.537427
70
0
0
VERTEX
8
Layer 1
10
39.602146
20
469.786049
70
0
0
VERTEX
8
Layer 1
10
39.602146
20
469.786049
70
0
0
SEQEND
8
Layer 1
0
POLYLINE
8
Layer 1
62
7
70
1
10
0.000000
20
0.000000
66
1
0
VERTEX
8
Layer 1
10
48.117866
20
474.606676
70
0
0
VERTEX
8
Layer 1
10
48.210201
20
473.712955
70
0
0
VERTEX
8
Layer 1
10
48.393152
20
473.316334
70
0
0
VERTEX
8
Layer 1
10
48.727323
20
473.067334
70
0
0
VERTEX
8
Layer 1
10
49.493555
20
472.980868
70
0
0
VERTEX
8
Layer 1
10
49.493555
20
473.401519
70
0
0
VERTEX
8
Layer 1
10
49.149672
20
473.417676
70
0
0
VERTEX
8
Layer 1
10
48.867728
20
473.537444
70
0
0
VERTEX
8
Layer 1
10
48.698537
20
474.141363
70
0
0
VERTEX
8
Layer 1
10
48.677687
20
474.625902
70
0
0
VERTEX
8
Layer 1
10
48.787189
20
475.540406
70
0
0
VERTEX
8
Layer 1
10
49.011556
20
475.827672
70
0
0
VERTEX
8
Layer 1
10
49.493555
20
475.868665
70
0
0
VERTEX
8
Layer 1
10
49.493555
20
476.289352
70
0
0
VERTEX
8
Layer 1
10
48.818229
20
476.226487
70
0
0
VERTEX
8
Layer 1
10
48.522667
20
476.091708
70
0
0
VERTEX
8
Layer 1
10
48.318984
20
475.838079
70
0
0
VERTEX
8
Layer 1
10
48.117866
20
474.606676
70
0
0
VERTEX
8
Layer 1
10
48.117866
20
474.606676
70
0
0
SEQEND
8
Layer 1
0
POLYLINE
8
Layer 1
62
7
70
1
10
0.000000
20
0.000000
66
1
0
VERTEX
8
Layer 1
10
49.664087
20
475.857306
70
0
0
VERTEX
8
Layer 1
10
50.030548
20
475.792077
70
0
0
VERTEX
8
Layer 1
10
50.211350
20
475.506398
70
0
0
VERTEX
8
Layer 1
10
50.297542
20
474.432488
70
0
0
VERTEX
8
Layer 1
10
50.231204
20
473.845188
70
0
0
VERTEX
8
Layer 1
10
50.062584
20
473.491901
70
0
0
VERTEX
8
Layer 1
10
49.664087
20
473.412879
70
0
0
VERTEX
8
Layer 1
10
49.664087
20
472.992227
70
0
0
VERTEX
8
Layer 1
10
49.818427
20
472.985525
70
0
0
VERTEX
8
Layer 1
10
50.260540
20
473.074058
70
0
0
VERTEX
8
Layer 1
10
50.626110
20
473.383175
70
0
0
VERTEX
8
Layer 1
10
50.822708
20
473.996769
70
0
0
VERTEX
8
Layer 1
10
50.857885
20
474.720376
70
0
0
VERTEX
8
Layer 1
10
50.804390
20
475.358854
70
0
0
VERTEX
8
Layer 1
10
50.639904
20
475.878084
70
0
0
VERTEX
8
Layer 1
10
50.261974
20
476.193679
70
0
0
VERTEX
8
Layer 1
10
49.664087
20
476.289352
70
0
0
VERTEX
8
Layer 1
10
49.664087
20
475.857306
70
0
0
VERTEX
8
Layer 1
10
49.664087
20
475.857306
70
0
0
SEQEND
8
Layer 1
0
POLYLINE
8
Layer 1
62
7
70
1
10
0.000000
20
0.000000
66
1
0
VERTEX
8
Layer 1
10
48.186057
20
471.173097
70
0
0
VERTEX
8
Layer 1
10
48.298311
20
470.398540
70
0
0
VERTEX
8
Layer 1
10
48.736914
20
469.794930
70
0
0
VERTEX
8
Layer 1
10
49.459441
20
469.524535
70
0
0
VERTEX
8
Layer 1
10
49.539028
20
469.524535
70
0
0
VERTEX
8
Layer 1
10
49.539028
20
469.945222
70
0
0
VERTEX
8
Layer 1
10
49.199186
20
470.047500
70
0
0
VERTEX
8
Layer 1
10
48.949551
20
470.308917
70
0
0
VERTEX
8
Layer 1
10
48.743163
20
471.036679
70
0
0
VERTEX
8
Layer 1
10
48.843448
20
471.626588
70
0
0
VERTEX
8
Layer 1
10
49.177255
20
472.069257
70
0
0
VERTEX
8
Layer 1
10
49.335546
20
472.149725
70
0
0
VERTEX
8
Layer 1
10
49.539028
20
472.185003
70
0
0
VERTEX
8
Layer 1
10
49.539028
20
472.605654
70
0
0
VERTEX
8
Layer 1
10
48.965073
20
472.484312
70
0
0
VERTEX
8
Layer 1
10
48.553228
20
472.158897
70
0
0
VERTEX
8
Layer 1
10
48.301310
20
471.740010
70
0
0
VERTEX
8
Layer 1
10
48.186057
20
471.173097
70
0
0
VERTEX
8
Layer 1
10
48.186057
20
471.173097
70
0
0
SEQEND
8
Layer 1
0
POLYLINE
8
Layer 1
62
7
70
1
10
0.000000
20
0.000000
66
1
0
VERTEX
8
Layer 1
10
49.709560
20
472.150889
70
0
0
VERTEX
8
Layer 1
10
50.070773
20
471.899765
70
0
0
VERTEX
8
Layer 1
10
50.285010
20
471.452955
70
0
0
VERTEX
8
Layer 1
10
50.318982
20
471.270887
70
0
0
VERTEX
8
Layer 1
10
50.322933
20
470.878105
70
0
0
VERTEX
8
Layer 1
10
50.220787
20
470.475825
70
0
0
VERTEX
8
Layer 1
10
49.985926
20
470.134981
70
0
0
VERTEX
8
Layer 1
10
49.709560
20
469.979335
70
0
0
VERTEX
8
Layer 1
10
49.709560
20
469.535930
70
0
0
VERTEX
8
Layer 1
10
50.213502
20
469.702793
70
0
0
VERTEX
8
Layer 1
10
50.568784
20
470.029641
70
0
0
VERTEX
8
Layer 1
10
50.800911
20
470.477055
70
0
0
VERTEX
8
Layer 1
10
50.889740
20
471.060491
70
0
0
VERTEX
8
Layer 1
10
50.805180
20
471.643420
70
0
0
VERTEX
8
Layer 1
10
50.579715
20
472.087103
70
0
0
VERTEX
8
Layer 1
10
50.220663
20
472.423233
70
0
0
VERTEX
8
Layer 1
10
49.709560
20
472.594295
70
0
0
VERTEX
8
Layer 1
10
49.709560
20
472.150889
70
0
0
VERTEX
8
Layer 1
10
49.709560
20
472.150889
70
0
0
SEQEND
8
Layer 1
0
POLYLINE
8
Layer 1
62
7
70
1
10
0.000000
20
0.000000
66
1
0
VERTEX
8
Layer 1
10
45.070825
20
470.763806
70
0
0
VERTEX
8
Layer 1
10
45.070825
20
470.775200
70
0
0
VERTEX
8
Layer 1
10
45.070825
20
470.763806
70
0
0
VERTEX
8
Layer 1
10
45.070825
20
470.763806
70
0
0
SEQEND
8
Layer 1
0
POLYLINE
8
Layer 1
62
250
70
1
10
0.000000
20
0.000000
66
1
0
VERTEX
8
Layer 1
10
18.722369
20
477.179655
70
0
0
VERTEX
8
Layer 1
10
18.722369
20
468.610772
70
0
0
VERTEX
8
Layer 1
10
51.604890
20
468.610772
70
0
0
VERTEX
8
Layer 1
10
51.604890
20
477.179655
70
0
0
VERTEX
8
Layer 1
10
18.722369
20
477.179655
70
0
0
VERTEX
8
Layer 1
10
18.722369
20
477.179655
70
0
0
SEQEND
8
Layer 1
0
POLYLINE
8
Layer 1
62
250
70
1
10
0.000000
20
0.000000
66
1
0
VERTEX
8
Layer 1
10
152.921456
20
238.684376
70
0
0
VERTEX
8
Layer 1
10
153.495485
20
238.570195
70
0
0
VERTEX
8
Layer 1
10
153.982122
20
238.245034
70
0
0
VERTEX
8
Layer 1
10
154.307283
20
237.758396
70
0
0
VERTEX
8
Layer 1
10
154.421464
20
237.184368
70
0
0
VERTEX
8
Layer 1
10
154.168667
20
236.351009
70
0
0
VERTEX
8
Layer 1
10
153.495485
20
235.798542
70
0
0
VERTEX
8
Layer 1
10
152.628819
20
235.713183
70
0
0
VERTEX
8
Layer 1
10
151.860791
20
236.123703
70
0
0
VERTEX
8
Layer 1
10
151.450271
20
236.891731
70
0
0
VERTEX
8
Layer 1
10
151.535630
20
237.758396
70
0
0
VERTEX
8
Layer 1
10
152.088097
20
238.431579
70
0
0
VERTEX
8
Layer 1
10
152.921456
20
238.684376
70
0
0
VERTEX
8
Layer 1
10
152.921456
20
238.684376
70
0
0
SEQEND
8
Layer 1
0
POLYLINE
8
Layer 1
62
250
70
1
10
0.000000
20
0.000000
66
1
0
VERTEX
8
Layer 1
10
200.221373
20
238.684376
70
0
0
VERTEX
8
Layer 1
10
200.805233
20
238.566488
70
0
0
VERTEX
8
Layer 1
10
201.282016
20
238.245022
70
0
0
VERTEX
8
Layer 1
10
201.603471
20
237.768231
70
0
0
VERTEX
8
Layer 1
10
201.721346
20
237.184368
70
0
0
VERTEX
8
Layer 1
10
201.468546
20
236.351005
70
0
0
VERTEX
8
Layer 1
10
200.795358
20
235.798538
70
0
0
VERTEX
8
Layer 1
10
199.928688
20
235.713185
70
0
0
VERTEX
8
Layer 1
10
199.160660
20
236.123715
70
0
0
VERTEX
8
Layer 1
10
198.750148
20
236.891753
70
0
0
VERTEX
8
Layer 1
10
198.835522
20
237.758421
70
0
0
VERTEX
8
Layer 1
10
199.388004
20
238.431596
70
0
0
VERTEX
8
Layer 1
10
200.221373
20
238.684376
70
0
0
VERTEX
8
Layer 1
10
200.221373
20
238.684376
70
0
0
SEQEND
8
Layer 1
0
POLYLINE
8
Layer 1
62
250
70
1
10
0.000000
20
0.000000
66
1
0
VERTEX
8
Layer 1
10
200.221373
20
337.084147
70
0
0
VERTEX
8
Layer 1
10
200.805224
20
336.966263
70
0
0
VERTEX
8
Layer 1
10
201.282004
20
336.644805
70
0
0
VERTEX
8
Layer 1
10
201.603461
20
336.168026
70
0
0
VERTEX
8
Layer 1
10
201.721346
20
335.584175
70
0
0
VERTEX
8
Layer 1
10
201.468564
20
334.750802
70
0
0
VERTEX
8
Layer 1
10
200.795382
20
334.198320
70
0
0
VERTEX
8
Layer 1
10
199.928710
20
334.112952
70
0
0
VERTEX
8
Layer 1
10
199.160672
20
334.523474
70
0
0
VERTEX
8
Layer 1
10
198.750151
20
335.291511
70
0
0
VERTEX
8
Layer 1
10
198.835518
20
336.158184
70
0
0
VERTEX
8
Layer 1
10
199.388000
20
336.831365
70
0
0
VERTEX
8
Layer 1
10
200.221373
20
337.084147
70
0
0
VERTEX
8
Layer 1
10
200.221373
20
337.084147
70
0
0
SEQEND
8
Layer 1
0
POLYLINE
8
Layer 1
62
250
70
1
10
0.000000
20
0.000000
66
1
0
VERTEX
8
Layer 1
10
152.921456
20
337.084147
70
0
0
VERTEX
8
Layer 1
10
153.505319
20
336.966273
70
0
0
VERTEX
8
Layer 1
10
153.982110
20
336.644818
70
0
0
VERTEX
8
Layer 1
10
154.303576
20
336.168034
70
0
0
VERTEX
8
Layer 1
10
154.421464
20
335.584175
70
0
0
VERTEX
8
Layer 1
10
154.168685
20
334.750805
70
0
0
VERTEX
8
Layer 1
10
153.495509
20
334.198323
70
0
0
VERTEX
8
Layer 1
10
152.628841
20
334.112950
70
0
0
VERTEX
8
Layer 1
10
151.860803
20
334.523461
70
0
0
VERTEX
8
Layer 1
10
151.450273
20
335.291489
70
0
0
VERTEX
8
Layer 1
10
151.535627
20
336.158159
70
0
0
VERTEX
8
Layer 1
10
152.088093
20
336.831348
70
0
0
VERTEX
8
Layer 1
10
152.921456
20
337.084147
70
0
0
VERTEX
8
Layer 1
10
152.921456
20
337.084147
70
0
0
SEQEND
8
Layer 1
0
POLYLINE
8
Layer 1
62
250
70
1
10
0.000000
20
0.000000
66
1
0
VERTEX
8
Layer 1
10
387.936449
20
289.291754
70
0
0
VERTEX
8
Layer 1
10
367.636496
20
289.291754
70
0
0
VERTEX
8
Layer 1
10
367.636496
20
262.291825
70
0
0
VERTEX
8
Layer 1
10
387.936449
20
262.291825
70
0
0
VERTEX
8
Layer 1
10
387.936449
20
289.291754
70
0
0
VERTEX
8
Layer 1
10
387.936449
20
289.291754
70
0
0
SEQEND
8
Layer 1
0
POLYLINE
8
Layer 1
62
250
70
1
10
0.000000
20
0.000000
66
1
0
VERTEX
8
Layer 1
10
408.957090
20
289.291754
70
0
0
VERTEX
8
Layer 1
10
388.657137
20
289.291754
70
0
0
VERTEX
8
Layer 1
10
388.657137
20
262.291825
70
0
0
VERTEX
8
Layer 1
10
408.957090
20
262.291825
70
0
0
VERTEX
8
Layer 1
10
408.957090
20
289.291754
70
0
0
VERTEX
8
Layer 1
10
408.957090
20
289.291754
70
0
0
SEQEND
8
Layer 1
0
POLYLINE
8
Layer 1
62
7
70
0
10
0.000000
20
0.000000
66
1
0
VERTEX
8
Layer 1
10
421.258565
20
280.828778
70
0
0
VERTEX
8
Layer 1
10
416.610375
20
280.828778
70
0
0
VERTEX
8
Layer 1
10
415.937277
20
275.926589
70
0
0
VERTEX
8
Layer 1
10
416.965975
20
275.926589
70
0
0
VERTEX
8
Layer 1
10
417.726385
20
276.579050
70
0
0
VERTEX
8
Layer 1
10
418.629671
20
276.764787
70
0
0
VERTEX
8
Layer 1
10
419.444255
20
276.614967
70
0
0
VERTEX
8
Layer 1
10
420.060005
20
276.185351
70
0
0
VERTEX
8
Layer 1
10
420.449537
20
275.505704
70
0
0
VERTEX
8
Layer 1
10
420.585467
20
274.605792
70
0
0
VERTEX
8
Layer 1
10
420.449339
20
273.733859
70
0
0
VERTEX
8
Layer 1
10
420.058418
20
273.078620
70
0
0
VERTEX
8
Layer 1
10
419.438897
20
272.666268
70
0
0
VERTEX
8
Layer 1
10
418.616971
20
272.522996
70
0
0
VERTEX
8
Layer 1
10
417.954191
20
272.616262
70
0
0
VERTEX
8
Layer 1
10
417.429524
20
272.897646
70
0
0
VERTEX
8
Layer 1
10
417.038206
20
273.369529
70
0
0
VERTEX
8
Layer 1
10
416.775475
20
274.034293
70
0
0
VERTEX
8
Layer 1
10
415.657877
20
274.034293
70
0
0
VERTEX
8
Layer 1
10
415.888064
20
273.170695
70
0
0
VERTEX
8
Layer 1
10
416.203976
20
272.611896
70
0
0
VERTEX
8
Layer 1
10
416.656413
20
272.153904
70
0
0
VERTEX
8
Layer 1
10
417.232674
20
271.814973
70
0
0
VERTEX
8
Layer 1
10
418.642371
20
271.532399
70
0
0
VERTEX
8
Layer 1
10
419.890738
20
271.768539
70
0
0
VERTEX
8
Layer 1
10
420.866453
20
272.430922
70
0
0
VERTEX
8
Layer 1
10
421.501651
20
273.450491
70
0
0
VERTEX
8
Layer 1
10
421.728464
20
274.758192
70
0
0
VERTEX
8
Layer 1
10
421.516930
20
275.976595
70
0
0
VERTEX
8
Layer 1
10
420.922016
20
276.923537
70
0
0
VERTEX
8
Layer 1
10
420.003252
20
277.537104
70
0
0
VERTEX
8
Layer 1
10
418.820171
20
277.755385
70
0
0
VERTEX
8
Layer 1
10
417.945460
20
277.625210
70
0
0
VERTEX
8
Layer 1
10
417.156474
20
277.209286
70
0
0
VERTEX
8
Layer 1
10
417.512073
20
279.723881
70
0
0
VERTEX
8
Layer 1
10
421.258565
20
279.723881
70
0
0
VERTEX
8
Layer 1
10
421.258565
20
280.828778
70
0
0
SEQEND
8
Layer 1
0
POLYLINE
8
Layer 1
62
7
70
0
10
0.000000
20
0.000000
66
1
0
VERTEX
8
Layer 1
10
428.218115
20
271.824498
70
0
0
VERTEX
8
Layer 1
10
430.821609
20
279.584181
70
0
0
VERTEX
8
Layer 1
10
430.821609
20
271.824498
70
0
0
VERTEX
8
Layer 1
10
431.939206
20
271.824498
70
0
0
VERTEX
8
Layer 1
10
431.939206
20
281.082778
70
0
0
VERTEX
8
Layer 1
10
430.300910
20
281.082778
70
0
0
VERTEX
8
Layer 1
10
427.608516
20
273.018295
70
0
0
VERTEX
8
Layer 1
10
424.865322
20
281.082778
70
0
0
VERTEX
8
Layer 1
10
423.227026
20
281.082778
70
0
0
VERTEX
8
Layer 1
10
423.227026
20
271.824498
70
0
0
VERTEX
8
Layer 1
10
424.344623
20
271.824498
70
0
0
VERTEX
8
Layer 1
10
424.344623
20
279.584181
70
0
0
VERTEX
8
Layer 1
10
426.973517
20
271.824498
70
0
0
VERTEX
8
Layer 1
10
428.218115
20
271.824498
70
0
0
SEQEND
8
Layer 1
0
POLYLINE
8
Layer 1
62
7
70
0
10
0.000000
20
0.000000
66
1
0
VERTEX
8
Layer 1
10
438.797191
20
271.824498
70
0
0
VERTEX
8
Layer 1
10
441.400685
20
279.584181
70
0
0
VERTEX
8
Layer 1
10
441.400685
20
271.824498
70
0
0
VERTEX
8
Layer 1
10
442.518283
20
271.824498
70
0
0
VERTEX
8
Layer 1
10
442.518283
20
281.082778
70
0
0
VERTEX
8
Layer 1
10
440.879987
20
281.082778
70
0
0
VERTEX
8
Layer 1
10
438.187593
20
273.018295
70
0
0
VERTEX
8
Layer 1
10
435.444399
20
281.082778
70
0
0
VERTEX
8
Layer 1
10
433.806102
20
281.082778
70
0
0
VERTEX
8
Layer 1
10
433.806102
20
271.824498
70
0
0
VERTEX
8
Layer 1
10
434.923700
20
271.824498
70
0
0
VERTEX
8
Layer 1
10
434.923700
20
279.584181
70
0
0
VERTEX
8
Layer 1
10
437.552594
20
271.824498
70
0
0
VERTEX
8
Layer 1
10
438.797191
20
271.824498
70
0
0
SEQEND
8
Layer 1
0
POLYLINE
8
Layer 1
62
250
70
0
10
0.000000
20
0.000000
66
1
0
VERTEX
8
Layer 1
10
35.249936
20
154.870946
70
0
0
VERTEX
8
Layer 1
10
35.249936
20
168.370946
70
0
0
VERTEX
8
Layer 1
10
106.569769
20
168.370946
70
0
0
VERTEX
8
Layer 1
10
106.569769
20
154.870946
70
0
0
SEQEND
8
Layer 1
0
POLYLINE
8
Layer 1
62
250
70
0
10
0.000000
20
0.000000
66
1
0
VERTEX
8
Layer 1
10
106.569769
20
142.850987
70
0
0
VERTEX
8
Layer 1
10
106.569769
20
129.351023
70
0
0
VERTEX
8
Layer 1
10
35.249936
20
129.351023
70
0
0
VERTEX
8
Layer 1
10
35.249936
20
142.850987
70
0
0
VERTEX
8
Layer 1
10
31.879928
20
142.850987
70
0
0
VERTEX
8
Layer 1
10
31.879928
20
154.870946
70
0
0
VERTEX
8
Layer 1
10
35.249936
20
154.870946
70
0
0
SEQEND
8
Layer 1
0
POLYLINE
8
Layer 1
62
250
70
0
10
0.000000
20
0.000000
66
1
0
VERTEX
8
Layer 1
10
106.569769
20
154.870946
70
0
0
VERTEX
8
Layer 1
10
109.939742
20
154.870946
70
0
0
VERTEX
8
Layer 1
10
109.939742
20
142.850987
70
0
0
VERTEX
8
Layer 1
10
106.569769
20
142.850987
70
0
0
SEQEND
8
Layer 1
0
POLYLINE
8
Layer 1
62
250
70
1
10
0.000000
20
0.000000
66
1
0
VERTEX
8
Layer 1
10
19.099241
20
337.882658
70
0
0
VERTEX
8
Layer 1
10
19.099241
20
211.582848
70
0
0
VERTEX
8
Layer 1
10
19.245335
20
209.391441
70
0
0
VERTEX
8
Layer 1
10
19.683616
20
207.492222
70
0
0
VERTEX
8
Layer 1
10
20.414085
20
205.885190
70
0
0
VERTEX
8
Layer 1
10
21.436741
20
204.570346
70
0
0
VERTEX
8
Layer 1
10
22.751585
20
203.547690
70
0
0
VERTEX
8
Layer 1
10
24.358617
20
202.817221
70
0
0
VERTEX
8
Layer 1
10
26.257836
20
202.378940
70
0
0
VERTEX
8
Layer 1
10
28.449243
20
202.232846
70
0
0
VERTEX
8
Layer 1
10
109.749066
20
202.232846
70
0
0
VERTEX
8
Layer 1
10
111.940472
20
202.378940
70
0
0
VERTEX
8
Layer 1
10
113.839692
20
202.817221
70
0
0
VERTEX
8
Layer 1
10
115.446723
20
203.547690
70
0
0
VERTEX
8
Layer 1
10
116.761567
20
204.570346
70
0
0
VERTEX
8
Layer 1
10
117.784223
20
205.885190
70
0
0
VERTEX
8
Layer 1
10
118.514692
20
207.492222
70
0
0
VERTEX
8
Layer 1
10
118.952974
20
209.391441
70
0
0
VERTEX
8
Layer 1
10
119.099067
20
211.582848
70
0
0
VERTEX
8
Layer 1
10
119.099067
20
337.882658
70
0
0
VERTEX
8
Layer 1
10
118.952974
20
340.074056
70
0
0
VERTEX
8
Layer 1
10
118.514692
20
341.973268
70
0
0
VERTEX
8
Layer 1
10
117.784223
20
343.580294
70
0
0
VERTEX
8
Layer 1
10
116.761567
20
344.895133
70
0
0
VERTEX
8
Layer 1
10
115.446723
20
345.917785
70
0
0
VERTEX
8
Layer 1
10
113.839692
20
346.648251
70
0
0
VERTEX
8
Layer 1
10
111.940472
20
347.086531
70
0
0
VERTEX
8
Layer 1
10
109.749066
20
347.232624
70
0
0
VERTEX
8
Layer 1
10
28.449243
20
347.232624
70
0
0
VERTEX
8
Layer 1
10
26.257836
20
347.086531
70
0
0
VERTEX
8
Layer 1
10
24.358617
20
346.648251
70
0
0
VERTEX
8
Layer 1
10
22.751585
20
345.917785
70
0
0
VERTEX
8
Layer 1
10
21.436741
20
344.895133
70
0
0
VERTEX
8
Layer 1
10
20.414085
20
343.580294
70
0
0
VERTEX
8
Layer 1
10
19.683616
20
341.973268
70
0
0
VERTEX
8
Layer 1
10
19.245335
20
340.074056
70
0
0
VERTEX
8
Layer 1
10
19.099241
20
337.882658
70
0
0
VERTEX
8
Layer 1
10
19.099241
20
337.882658
70
0
0
SEQEND
8
Layer 1
0
POLYLINE
8
Layer 1
62
250
70
1
10
0.000000
20
0.000000
66
1
0
VERTEX
8
Layer 1
10
28.449278
20
340.132670
70
0
0
VERTEX
8
Layer 1
10
29.310328
20
339.961394
70
0
0
VERTEX
8
Layer 1
10
30.040289
20
339.473644
70
0
0
VERTEX
8
Layer 1
10
30.528028
20
338.743676
70
0
0
VERTEX
8
Layer 1
10
30.699290
20
337.882623
70
0
0
VERTEX
8
Layer 1
10
30.522460
20
337.006822
70
0
0
VERTEX
8
Layer 1
10
30.040256
20
336.291639
70
0
0
VERTEX
8
Layer 1
10
29.325059
20
335.809453
70
0
0
VERTEX
8
Layer 1
10
28.449254
20
335.632646
70
0
0
VERTEX
8
Layer 1
10
27.573453
20
335.809471
70
0
0
VERTEX
8
Layer 1
10
26.858267
20
336.291672
70
0
0
VERTEX
8
Layer 1
10
26.376077
20
337.006866
70
0
0
VERTEX
8
Layer 1
10
26.199266
20
337.882670
70
0
0
VERTEX
8
Layer 1
10
26.376087
20
338.758472
70
0
0
VERTEX
8
Layer 1
10
26.858283
20
339.473661
70
0
0
VERTEX
8
Layer 1
10
27.573475
20
339.955854
70
0
0
VERTEX
8
Layer 1
10
28.449278
20
340.132670
70
0
0
VERTEX
8
Layer 1
10
28.449278
20
340.132670
70
0
0
SEQEND
8
Layer 1
0
POLYLINE
8
Layer 1
62
250
70
1
10
0.000000
20
0.000000
66
1
0
VERTEX
8
Layer 1
10
109.749101
20
340.132670
70
0
0
VERTEX
8
Layer 1
10
110.610151
20
339.961394
70
0
0
VERTEX
8
Layer 1
10
111.340112
20
339.473644
70
0
0
VERTEX
8
Layer 1
10
111.827851
20
338.743676
70
0
0
VERTEX
8
Layer 1
10
111.999113
20
337.882623
70
0
0
VERTEX
8
Layer 1
10
111.822283
20
337.006822
70
0
0
VERTEX
8
Layer 1
10
111.340079
20
336.291639
70
0
0
VERTEX
8
Layer 1
10
110.624883
20
335.809453
70
0
0
VERTEX
8
Layer 1
10
109.749078
20
335.632646
70
0
0
VERTEX
8
Layer 1
10
108.873276
20
335.809471
70
0
0
VERTEX
8
Layer 1
10
108.158090
20
336.291672
70
0
0
VERTEX
8
Layer 1
10
107.675901
20
337.006866
70
0
0
VERTEX
8
Layer 1
10
107.499089
20
337.882670
70
0
0
VERTEX
8
Layer 1
10
107.675910
20
338.758472
70
0
0
VERTEX
8
Layer 1
10
108.158107
20
339.473661
70
0
0
VERTEX
8
Layer 1
10
108.873298
20
339.955854
70
0
0
VERTEX
8
Layer 1
10
109.749101
20
340.132670
70
0
0
VERTEX
8
Layer 1
10
109.749101
20
340.132670
70
0
0
SEQEND
8
Layer 1
0
POLYLINE
8
Layer 1
62
250
70
1
10
0.000000
20
0.000000
66
1
0
VERTEX
8
Layer 1
10
109.749101
20
213.832718
70
0
0
VERTEX
8
Layer 1
10
110.610143
20
213.661446
70
0
0
VERTEX
8
Layer 1
10
111.340100
20
213.173705
70
0
0
VERTEX
8
Layer 1
10
111.827841
20
212.443749
70
0
0
VERTEX
8
Layer 1
10
111.999113
20
211.582706
70
0
0
VERTEX
8
Layer 1
10
111.900320
20
210.922952
70
0
0
VERTEX
8
Layer 1
10
111.619917
20
210.332667
70
0
0
VERTEX
8
Layer 1
10
111.181870
20
209.847717
70
0
0
VERTEX
8
Layer 1
10
110.610143
20
209.503967
70
0
0
VERTEX
8
Layer 1
10
109.962803
20
209.342762
70
0
0
VERTEX
8
Layer 1
10
109.310146
20
209.375928
70
0
0
VERTEX
8
Layer 1
10
108.694476
20
209.595048
70
0
0
VERTEX
8
Layer 1
10
108.158103
20
209.991708
70
0
0
VERTEX
8
Layer 1
10
107.761443
20
210.528082
70
0
0
VERTEX
8
Layer 1
10
107.542323
20
211.143751
70
0
0
VERTEX
8
Layer 1
10
107.509157
20
211.796409
70
0
0
VERTEX
8
Layer 1
10
107.670361
20
212.443749
70
0
0
VERTEX
8
Layer 1
10
108.014111
20
213.015476
70
0
0
VERTEX
8
Layer 1
10
108.499062
20
213.453523
70
0
0
VERTEX
8
Layer 1
10
109.089347
20
213.733925
70
0
0
VERTEX
8
Layer 1
10
109.749101
20
213.832718
70
0
0
VERTEX
8
Layer 1
10
109.749101
20
213.832718
70
0
0
SEQEND
8
Layer 1
0
POLYLINE
8
Layer 1
62
250
70
1
10
0.000000
20
0.000000
66
1
0
VERTEX
8
Layer 1
10
28.449278
20
213.832824
70
0
0
VERTEX
8
Layer 1
10
29.310320
20
213.661552
70
0
0
VERTEX
8
Layer 1
10
30.040276
20
213.173811
70
0
0
VERTEX
8
Layer 1
10
30.528018
20
212.443854
70
0
0
VERTEX
8
Layer 1
10
30.699290
20
211.582812
70
0
0
VERTEX
8
Layer 1
10
30.600497
20
210.923058
70
0
0
VERTEX
8
Layer 1
10
30.320094
20
210.332773
70
0
0
VERTEX
8
Layer 1
10
29.882047
20
209.847822
70
0
0
VERTEX
8
Layer 1
10
29.310320
20
209.504073
70
0
0
VERTEX
8
Layer 1
10
28.662980
20
209.342868
70
0
0
VERTEX
8
Layer 1
10
28.010322
20
209.376034
70
0
0
VERTEX
8
Layer 1
10
27.394653
20
209.595154
70
0
0
VERTEX
8
Layer 1
10
26.858279
20
209.991814
70
0
0
VERTEX
8
Layer 1
10
26.461620
20
210.528188
70
0
0
VERTEX
8
Layer 1
10
26.242499
20
211.143857
70
0
0
VERTEX
8
Layer 1
10
26.209334
20
211.796515
70
0
0
VERTEX
8
Layer 1
10
26.370538
20
212.443854
70
0
0
VERTEX
8
Layer 1
10
26.714288
20
213.015582
70
0
0
VERTEX
8
Layer 1
10
27.199238
20
213.453629
70
0
0
VERTEX
8
Layer 1
10
27.789524
20
213.734031
70
0
0
VERTEX
8
Layer 1
10
28.449278
20
213.832824
70
0
0
VERTEX
8
Layer 1
10
28.449278
20
213.832824
70
0
0
SEQEND
8
Layer 1
0
POLYLINE
8
Layer 1
62
250
70
1
10
0.000000
20
0.000000
66
1
0
VERTEX
8
Layer 1
10
20.124270
20
311.757722
70
0
0
VERTEX
8
Layer 1
10
20.124270
20
301.707740
70
0
0
VERTEX
8
Layer 1
10
22.174257
20
301.707740
70
0
0
VERTEX
8
Layer 1
10
22.174257
20
311.757722
70
0
0
VERTEX
8
Layer 1
10
20.124270
20
311.757722
70
0
0
VERTEX
8
Layer 1
10
20.124270
20
311.757722
70
0
0
SEQEND
8
Layer 1
0
POLYLINE
8
Layer 1
62
250
70
1
10
0.000000
20
0.000000
66
1
0
VERTEX
8
Layer 1
10
20.124270
20
279.757779
70
0
0
VERTEX
8
Layer 1
10
20.124270
20
269.707797
70
0
0
VERTEX
8
Layer 1
10
22.174257
20
269.707797
70
0
0
VERTEX
8
Layer 1
10
22.174257
20
279.757779
70
0
0
VERTEX
8
Layer 1
10
20.124270
20
279.757779
70
0
0
VERTEX
8
Layer 1
10
20.124270
20
279.757779
70
0
0
SEQEND
8
Layer 1
0
POLYLINE
8
Layer 1
62
250
70
1
10
0.000000
20
0.000000
66
1
0
VERTEX
8
Layer 1
10
20.099258
20
247.757871
70
0
0
VERTEX
8
Layer 1
10
20.099258
20
237.707889
70
0
0
VERTEX
8
Layer 1
10
22.099257
20
237.707889
70
0
0
VERTEX
8
Layer 1
10
22.099257
20
247.757871
70
0
0
VERTEX
8
Layer 1
10
20.099258
20
247.757871
70
0
0
VERTEX
8
Layer 1
10
20.099258
20
247.757871
70
0
0
SEQEND
8
Layer 1
0
POLYLINE
8
Layer 1
62
250
70
1
10
0.000000
20
0.000000
66
1
0
VERTEX
8
Layer 1
10
116.024051
20
311.757722
70
0
0
VERTEX
8
Layer 1
10
116.024051
20
301.707740
70
0
0
VERTEX
8
Layer 1
10
118.074039
20
301.707740
70
0
0
VERTEX
8
Layer 1
10
118.074039
20
311.757722
70
0
0
VERTEX
8
Layer 1
10
116.024051
20
311.757722
70
0
0
VERTEX
8
Layer 1
10
116.024051
20
311.757722
70
0
0
SEQEND
8
Layer 1
0
POLYLINE
8
Layer 1
62
250
70
1
10
0.000000
20
0.000000
66
1
0
VERTEX
8
Layer 1
10
116.024051
20
279.757779
70
0
0
VERTEX
8
Layer 1
10
116.024051
20
269.707797
70
0
0
VERTEX
8
Layer 1
10
118.074039
20
269.707797
70
0
0
VERTEX
8
Layer 1
10
118.074039
20
279.757779
70
0
0
VERTEX
8
Layer 1
10
116.024051
20
279.757779
70
0
0
VERTEX
8
Layer 1
10
116.024051
20
279.757779
70
0
0
SEQEND
8
Layer 1
0
POLYLINE
8
Layer 1
62
250
70
1
10
0.000000
20
0.000000
66
1
0
VERTEX
8
Layer 1
10
115.999040
20
247.757871
70
0
0
VERTEX
8
Layer 1
10
115.999040
20
237.707889
70
0
0
VERTEX
8
Layer 1
10
117.999038
20
237.707889
70
0
0
VERTEX
8
Layer 1
10
117.999038
20
247.757871
70
0
0
VERTEX
8
Layer 1
10
115.999040
20
247.757871
70
0
0
VERTEX
8
Layer 1
10
115.999040
20
247.757871
70
0
0
SEQEND
8
Layer 1
0
POLYLINE
8
Layer 1
62
250
70
1
10
0.000000
20
0.000000
66
1
0
VERTEX
8
Layer 1
10
74.124233
20
346.232643
70
0
0
VERTEX
8
Layer 1
10
64.074252
20
346.232643
70
0
0
VERTEX
8
Layer 1
10
64.074252
20
344.182655
70
0
0
VERTEX
8
Layer 1
10
74.124233
20
344.182655
70
0
0
VERTEX
8
Layer 1
10
74.124233
20
346.232643
70
0
0
VERTEX
8
Layer 1
10
74.124233
20
346.232643
70
0
0
SEQEND
8
Layer 1
0
POLYLINE
8
Layer 1
62
250
70
1
10
0.000000
20
0.000000
66
1
0
VERTEX
8
Layer 1
10
96.124077
20
346.207631
70
0
0
VERTEX
8
Layer 1
10
86.074096
20
346.207631
70
0
0
VERTEX
8
Layer 1
10
86.074096
20
344.157644
70
0
0
VERTEX
8
Layer 1
10
96.124077
20
344.157644
70
0
0
VERTEX
8
Layer 1
10
96.124077
20
346.207631
70
0
0
VERTEX
8
Layer 1
10
96.124077
20
346.207631
70
0
0
SEQEND
8
Layer 1
0
POLYLINE
8
Layer 1
62
250
70
1
10
0.000000
20
0.000000
66
1
0
VERTEX
8
Layer 1
10
52.124178
20
346.207631
70
0
0
VERTEX
8
Layer 1
10
42.074196
20
346.207631
70
0
0
VERTEX
8
Layer 1
10
42.074196
20
344.157644
70
0
0
VERTEX
8
Layer 1
10
52.124178
20
344.157644
70
0
0
VERTEX
8
Layer 1
10
52.124178
20
346.207631
70
0
0
VERTEX
8
Layer 1
10
52.124178
20
346.207631
70
0
0
SEQEND
8
Layer 1
0
POLYLINE
8
Layer 1
62
250
70
1
10
0.000000
20
0.000000
66
1
0
VERTEX
8
Layer 1
10
74.124127
20
205.282850
70
0
0
VERTEX
8
Layer 1
10
64.074146
20
205.282850
70
0
0
VERTEX
8
Layer 1
10
64.074146
20
203.232863
70
0
0
VERTEX
8
Layer 1
10
74.124127
20
203.232863
70
0
0
VERTEX
8
Layer 1
10
74.124127
20
205.282850
70
0
0
VERTEX
8
Layer 1
10
74.124127
20
205.282850
70
0
0
SEQEND
8
Layer 1
0
POLYLINE
8
Layer 1
62
250
70
1
10
0.000000
20
0.000000
66
1
0
VERTEX
8
Layer 1
10
96.123971
20
205.257838
70
0
0
VERTEX
8
Layer 1
10
86.074025
20
205.257838
70
0
0
VERTEX
8
Layer 1
10
86.074025
20
203.207851
70
0
0
VERTEX
8
Layer 1
10
96.123971
20
203.207851
70
0
0
VERTEX
8
Layer 1
10
96.123971
20
205.257838
70
0
0
VERTEX
8
Layer 1
10
96.123971
20
205.257838
70
0
0
SEQEND
8
Layer 1
0
POLYLINE
8
Layer 1
62
250
70
1
10
0.000000
20
0.000000
66
1
0
VERTEX
8
Layer 1
10
52.124072
20
205.257838
70
0
0
VERTEX
8
Layer 1
10
42.074090
20
205.257838
70
0
0
VERTEX
8
Layer 1
10
42.074090
20
203.207851
70
0
0
VERTEX
8
Layer 1
10
52.124072
20
203.207851
70
0
0
VERTEX
8
Layer 1
10
52.124072
20
205.257838
70
0
0
VERTEX
8
Layer 1
10
52.124072
20
205.257838
70
0
0
SEQEND
8
Layer 1
0
POLYLINE
8
Layer 1
62
250
70
0
10
0.000000
20
0.000000
66
1
0
VERTEX
8
Layer 1
10
96.511603
20
260.995122
70
0
0
VERTEX
8
Layer 1
10
95.535529
20
261.922636
70
0
0
VERTEX
8
Layer 1
10
94.789553
20
263.049753
70
0
0
VERTEX
8
Layer 1
10
94.313074
20
264.337056
70
0
0
VERTEX
8
Layer 1
10
94.145492
20
265.745124
70
0
0
VERTEX
8
Layer 1
10
94.266374
20
266.944252
70
0
0
VERTEX
8
Layer 1
10
94.613070
20
268.061123
70
0
0
VERTEX
8
Layer 1
10
95.161653
20
269.071811
70
0
0
VERTEX
8
Layer 1
10
95.888197
20
269.952391
70
0
0
VERTEX
8
Layer 1
10
96.768777
20
270.678935
70
0
0
VERTEX
8
Layer 1
10
97.779465
20
271.227518
70
0
0
VERTEX
8
Layer 1
10
98.896336
20
271.574214
70
0
0
VERTEX
8
Layer 1
10
100.095464
20
271.695096
70
0
0
VERTEX
8
Layer 1
10
101.294604
20
271.574214
70
0
0
VERTEX
8
Layer 1
10
102.411484
20
271.227518
70
0
0
VERTEX
8
Layer 1
10
103.422179
20
270.678935
70
0
0
VERTEX
8
Layer 1
10
104.302762
20
269.952391
70
0
0
VERTEX
8
Layer 1
10
105.029309
20
269.071811
70
0
0
VERTEX
8
Layer 1
10
105.577893
20
268.061123
70
0
0
VERTEX
8
Layer 1
10
105.924590
20
266.944252
70
0
0
VERTEX
8
Layer 1
10
106.045472
20
265.745124
70
0
0
VERTEX
8
Layer 1
10
105.877859
20
264.337056
70
0
0
VERTEX
8
Layer 1
10
105.401319
20
263.049753
70
0
0
VERTEX
8
Layer 1
10
104.655301
20
261.922636
70
0
0
VERTEX
8
Layer 1
10
103.679255
20
260.995122
70
0
0
SEQEND
8
Layer 1
0
POLYLINE
8
Layer 1
62
250
70
0
10
0.000000
20
0.000000
66
1
0
VERTEX
8
Layer 1
10
96.511603
20
237.979880
70
0
0
VERTEX
8
Layer 1
10
95.535529
20
238.907393
70
0
0
VERTEX
8
Layer 1
10
94.789553
20
240.034511
70
0
0
VERTEX
8
Layer 1
10
94.313074
20
241.321814
70
0
0
VERTEX
8
Layer 1
10
94.145492
20
242.729882
70
0
0
VERTEX
8
Layer 1
10
94.266374
20
243.929010
70
0
0
VERTEX
8
Layer 1
10
94.613070
20
245.045881
70
0
0
VERTEX
8
Layer 1
10
95.161653
20
246.056569
70
0
0
VERTEX
8
Layer 1
10
95.888197
20
246.937149
70
0
0
VERTEX
8
Layer 1
10
96.768777
20
247.663693
70
0
0
VERTEX
8
Layer 1
10
97.779465
20
248.212276
70
0
0
VERTEX
8
Layer 1
10
98.896336
20
248.558972
70
0
0
VERTEX
8
Layer 1
10
100.095464
20
248.679854
70
0
0
VERTEX
8
Layer 1
10
101.294604
20
248.558972
70
0
0
VERTEX
8
Layer 1
10
102.411484
20
248.212276
70
0
0
VERTEX
8
Layer 1
10
103.422179
20
247.663693
70
0
0
VERTEX
8
Layer 1
10
104.302762
20
246.937149
70
0
0
VERTEX
8
Layer 1
10
105.029309
20
246.056569
70
0
0
VERTEX
8
Layer 1
10
105.577893
20
245.045881
70
0
0
VERTEX
8
Layer 1
10
105.924590
20
243.929010
70
0
0
VERTEX
8
Layer 1
10
106.045472
20
242.729882
70
0
0
VERTEX
8
Layer 1
10
105.877859
20
241.321814
70
0
0
VERTEX
8
Layer 1
10
105.401319
20
240.034511
70
0
0
VERTEX
8
Layer 1
10
104.655301
20
238.907393
70
0
0
VERTEX
8
Layer 1
10
103.679255
20
237.979880
70
0
0
SEQEND
8
Layer 1
0
POLYLINE
8
Layer 1
62
250
70
1
10
0.000000
20
0.000000
66
1
0
VERTEX
8
Layer 1
10
58.027266
20
276.395109
70
0
0
VERTEX
8
Layer 1
10
35.427313
20
276.395109
70
0
0
VERTEX
8
Layer 1
10
35.427313
20
256.295145
70
0
0
VERTEX
8
Layer 1
10
58.027266
20
256.295145
70
0
0
VERTEX
8
Layer 1
10
58.027266
20
276.395109
70
0
0
VERTEX
8
Layer 1
10
58.027266
20
276.395109
70
0
0
SEQEND
8
Layer 1
0
POLYLINE
8
Layer 1
62
250
70
1
10
0.000000
20
0.000000
66
1
0
VERTEX
8
Layer 1
10
72.377246
20
269.195106
70
0
0
VERTEX
8
Layer 1
10
72.377246
20
263.495112
70
0
0
VERTEX
8
Layer 1
10
85.577209
20
263.495112
70
0
0
VERTEX
8
Layer 1
10
85.577209
20
269.195106
70
0
0
VERTEX
8
Layer 1
10
72.377246
20
269.195106
70
0
0
VERTEX
8
Layer 1
10
72.377246
20
269.195106
70
0
0
SEQEND
8
Layer 1
0
POLYLINE
8
Layer 1
62
250
70
1
10
0.000000
20
0.000000
66
1
0
VERTEX
8
Layer 1
10
72.377246
20
246.179864
70
0
0
VERTEX
8
Layer 1
10
72.377246
20
240.479870
70
0
0
VERTEX
8
Layer 1
10
85.577209
20
240.479870
70
0
0
VERTEX
8
Layer 1
10
85.577209
20
246.179864
70
0
0
VERTEX
8
Layer 1
10
72.377246
20
246.179864
70
0
0
VERTEX
8
Layer 1
10
72.377246
20
246.179864
70
0
0
SEQEND
8
Layer 1
0
POLYLINE
8
Layer 1
62
250
70
1
10
0.000000
20
0.000000
66
1
0
VERTEX
8
Layer 1
10
69.086154
20
227.203919
70
0
0
VERTEX
8
Layer 1
10
70.656125
20
227.048586
70
0
0
VERTEX
8
Layer 1
10
72.151448
20
226.594192
70
0
0
VERTEX
8
Layer 1
10
73.530105
20
225.858141
70
0
0
VERTEX
8
Layer 1
10
74.750077
20
224.857838
70
0
0
VERTEX
8
Layer 1
10
75.750374
20
223.637862
70
0
0
VERTEX
8
Layer 1
10
76.486419
20
222.259202
70
0
0
VERTEX
8
Layer 1
10
76.940807
20
220.763877
70
0
0
VERTEX
8
Layer 1
10
77.096133
20
219.193905
70
0
0
VERTEX
8
Layer 1
10
76.933391
20
217.579618
70
0
0
VERTEX
8
Layer 1
10
76.466656
20
216.076066
70
0
0
VERTEX
8
Layer 1
10
75.728137
20
214.715460
70
0
0
VERTEX
8
Layer 1
10
74.750043
20
213.530010
70
0
0
VERTEX
8
Layer 1
10
73.564586
20
212.551925
70
0
0
VERTEX
8
Layer 1
10
72.203975
20
211.813416
70
0
0
VERTEX
8
Layer 1
10
70.700420
20
211.346692
70
0
0
VERTEX
8
Layer 1
10
69.086131
20
211.183963
70
0
0
VERTEX
8
Layer 1
10
67.471843
20
211.346701
70
0
0
VERTEX
8
Layer 1
10
65.968291
20
211.813434
70
0
0
VERTEX
8
Layer 1
10
64.607684
20
212.551952
70
0
0
VERTEX
8
Layer 1
10
63.422232
20
213.530043
70
0
0
VERTEX
8
Layer 1
10
62.444146
20
214.715499
70
0
0
VERTEX
8
Layer 1
10
61.705634
20
216.076109
70
0
0
VERTEX
8
Layer 1
10
61.238908
20
217.579664
70
0
0
VERTEX
8
Layer 1
10
61.076176
20
219.193953
70
0
0
VERTEX
8
Layer 1
10
61.238913
20
220.808241
70
0
0
VERTEX
8
Layer 1
10
61.705643
20
222.311794
70
0
0
VERTEX
8
Layer 1
10
62.444159
20
223.672402
70
0
0
VERTEX
8
Layer 1
10
63.422249
20
224.857855
70
0
0
VERTEX
8
Layer 1
10
64.607703
20
225.835943
70
0
0
VERTEX
8
Layer 1
10
65.968312
20
226.574456
70
0
0
VERTEX
8
Layer 1
10
67.471866
20
227.041185
70
0
0
VERTEX
8
Layer 1
10
69.086154
20
227.203919
70
0
0
VERTEX
8
Layer 1
10
69.086154
20
227.203919
70
0
0
SEQEND
8
Layer 1
0
POLYLINE
8
Layer 1
62
250
70
1
10
0.000000
20
0.000000
66
1
0
VERTEX
8
Layer 1
10
58.027266
20
253.379831
70
0
0
VERTEX
8
Layer 1
10
35.427313
20
253.379831
70
0
0
VERTEX
8
Layer 1
10
35.427313
20
233.279903
70
0
0
VERTEX
8
Layer 1
10
58.027266
20
233.279903
70
0
0
VERTEX
8
Layer 1
10
58.027266
20
253.379831
70
0
0
VERTEX
8
Layer 1
10
58.027266
20
253.379831
70
0
0
SEQEND
8
Layer 1
0
POLYLINE
8
Layer 1
62
250
70
0
10
0.000000
20
0.000000
66
1
0
VERTEX
8
Layer 1
10
30.099251
20
309.377430
70
0
0
VERTEX
8
Layer 1
10
30.099251
20
325.377384
70
0
0
VERTEX
8
Layer 1
10
108.099057
20
325.377384
70
0
0
VERTEX
8
Layer 1
10
108.099057
20
309.377430
70
0
0
SEQEND
8
Layer 1
0
POLYLINE
8
Layer 1
62
250
70
0
10
0.000000
20
0.000000
66
1
0
VERTEX
8
Layer 1
10
108.099057
20
297.377438
70
0
0
VERTEX
8
Layer 1
10
108.099057
20
281.377484
70
0
0
VERTEX
8
Layer 1
10
30.099251
20
281.377484
70
0
0
VERTEX
8
Layer 1
10
30.099251
20
297.377438
70
0
0
VERTEX
8
Layer 1
10
28.599243
20
297.377438
70
0
0
VERTEX
8
Layer 1
10
28.599243
20
309.377430
70
0
0
VERTEX
8
Layer 1
10
30.099251
20
309.377430
70
0
0
SEQEND
8
Layer 1
0
POLYLINE
8
Layer 1
62
250
70
0
10
0.000000
20
0.000000
66
1
0
VERTEX
8
Layer 1
10
108.099057
20
309.377430
70
0
0
VERTEX
8
Layer 1
10
109.599065
20
309.377430
70
0
0
VERTEX
8
Layer 1
10
109.599065
20
297.377438
70
0
0
VERTEX
8
Layer 1
10
108.099057
20
297.377438
70
0
0
SEQEND
8
Layer 1
0
POLYLINE
8
Layer 1
62
250
70
1
10
0.000000
20
0.000000
66
1
0
VERTEX
8
Layer 1
10
20.909939
20
183.366191
70
0
0
VERTEX
8
Layer 1
10
20.909939
20
57.066380
70
0
0
VERTEX
8
Layer 1
10
21.056033
20
54.874982
70
0
0
VERTEX
8
Layer 1
10
21.494315
20
52.975770
70
0
0
VERTEX
8
Layer 1
10
22.224783
20
51.368745
70
0
0
VERTEX
8
Layer 1
10
23.247440
20
50.053906
70
0
0
VERTEX
8
Layer 1
10
24.562284
20
49.031253
70
0
0
VERTEX
8
Layer 1
10
26.169315
20
48.300787
70
0
0
VERTEX
8
Layer 1
10
28.068534
20
47.862507
70
0
0
VERTEX
8
Layer 1
10
30.259941
20
47.716414
70
0
0
VERTEX
8
Layer 1
10
111.559764
20
47.716414
70
0
0
VERTEX
8
Layer 1
10
113.751163
20
47.862507
70
0
0
VERTEX
8
Layer 1
10
115.650375
20
48.300787
70
0
0
VERTEX
8
Layer 1
10
117.257400
20
49.031253
70
0
0
VERTEX
8
Layer 1
10
118.572239
20
50.053906
70
0
0
VERTEX
8
Layer 1
10
119.594892
20
51.368745
70
0
0
VERTEX
8
Layer 1
10
120.325358
20
52.975770
70
0
0
VERTEX
8
Layer 1
10
120.763637
20
54.874982
70
0
0
VERTEX
8
Layer 1
10
120.909731
20
57.066380
70
0
0
VERTEX
8
Layer 1
10
120.909731
20
183.366191
70
0
0
VERTEX
8
Layer 1
10
120.763637
20
185.557589
70
0
0
VERTEX
8
Layer 1
10
120.325358
20
187.456801
70
0
0
VERTEX
8
Layer 1
10
119.594892
20
189.063827
70
0
0
VERTEX
8
Layer 1
10
118.572239
20
190.378666
70
0
0
VERTEX
8
Layer 1
10
117.257400
20
191.401318
70
0
0
VERTEX
8
Layer 1
10
115.650375
20
192.131784
70
0
0
VERTEX
8
Layer 1
10
113.751163
20
192.570064
70
0
0
VERTEX
8
Layer 1
10
111.559764
20
192.716157
70
0
0
VERTEX
8
Layer 1
10
30.259941
20
192.716157
70
0
0
VERTEX
8
Layer 1
10
28.068534
20
192.570064
70
0
0
VERTEX
8
Layer 1
10
26.169315
20
192.131784
70
0
0
VERTEX
8
Layer 1
10
24.562284
20
191.401318
70
0
0
VERTEX
8
Layer 1
10
23.247440
20
190.378666
70
0
0
VERTEX
8
Layer 1
10
22.224783
20
189.063827
70
0
0
VERTEX
8
Layer 1
10
21.494315
20
187.456801
70
0
0
VERTEX
8
Layer 1
10
21.056033
20
185.557589
70
0
0
VERTEX
8
Layer 1
10
20.909939
20
183.366191
70
0
0
VERTEX
8
Layer 1
10
20.909939
20
183.366191
70
0
0
SEQEND
8
Layer 1
0
POLYLINE
8
Layer 1
62
250
70
1
10
0.000000
20
0.000000
66
1
0
VERTEX
8
Layer 1
10
30.259976
20
185.616203
70
0
0
VERTEX
8
Layer 1
10
31.121027
20
185.444927
70
0
0
VERTEX
8
Layer 1
10
31.850987
20
184.957177
70
0
0
VERTEX
8
Layer 1
10
32.338726
20
184.227209
70
0
0
VERTEX
8
Layer 1
10
32.509988
20
183.366156
70
0
0
VERTEX
8
Layer 1
10
32.333158
20
182.490355
70
0
0
VERTEX
8
Layer 1
10
31.850954
20
181.775172
70
0
0
VERTEX
8
Layer 1
10
31.135758
20
181.292986
70
0
0
VERTEX
8
Layer 1
10
30.259953
20
181.116179
70
0
0
VERTEX
8
Layer 1
10
29.384151
20
181.293004
70
0
0
VERTEX
8
Layer 1
10
28.668965
20
181.775205
70
0
0
VERTEX
8
Layer 1
10
28.186776
20
182.490398
70
0
0
VERTEX
8
Layer 1
10
28.009965
20
183.366203
70
0
0
VERTEX
8
Layer 1
10
28.186785
20
184.242005
70
0
0
VERTEX
8
Layer 1
10
28.668982
20
184.957194
70
0
0
VERTEX
8
Layer 1
10
29.384173
20
185.439387
70
0
0
VERTEX
8
Layer 1
10
30.259976
20
185.616203
70
0
0
VERTEX
8
Layer 1
10
30.259976
20
185.616203
70
0
0
SEQEND
8
Layer 1
0
POLYLINE
8
Layer 1
62
250
70
1
10
0.000000
20
0.000000
66
1
0
VERTEX
8
Layer 1
10
111.559800
20
185.616203
70
0
0
VERTEX
8
Layer 1
10
112.420850
20
185.444927
70
0
0
VERTEX
8
Layer 1
10
113.150811
20
184.957177
70
0
0
VERTEX
8
Layer 1
10
113.638549
20
184.227209
70
0
0
VERTEX
8
Layer 1
10
113.809811
20
183.366156
70
0
0
VERTEX
8
Layer 1
10
113.632982
20
182.490355
70
0
0
VERTEX
8
Layer 1
10
113.150777
20
181.775172
70
0
0
VERTEX
8
Layer 1
10
112.435581
20
181.292986
70
0
0
VERTEX
8
Layer 1
10
111.559776
20
181.116179
70
0
0
VERTEX
8
Layer 1
10
110.683975
20
181.293004
70
0
0
VERTEX
8
Layer 1
10
109.968789
20
181.775205
70
0
0
VERTEX
8
Layer 1
10
109.486599
20
182.490398
70
0
0
VERTEX
8
Layer 1
10
109.309788
20
183.366203
70
0
0
VERTEX
8
Layer 1
10
109.486608
20
184.242005
70
0
0
VERTEX
8
Layer 1
10
109.968805
20
184.957194
70
0
0
VERTEX
8
Layer 1
10
110.683996
20
185.439387
70
0
0
VERTEX
8
Layer 1
10
111.559800
20
185.616203
70
0
0
VERTEX
8
Layer 1
10
111.559800
20
185.616203
70
0
0
SEQEND
8
Layer 1
0
POLYLINE
8
Layer 1
62
250
70
1
10
0.000000
20
0.000000
66
1
0
VERTEX
8
Layer 1
10
111.559800
20
59.316286
70
0
0
VERTEX
8
Layer 1
10
112.420850
20
59.145011
70
0
0
VERTEX
8
Layer 1
10
113.150811
20
58.657261
70
0
0
VERTEX
8
Layer 1
10
113.638549
20
57.927292
70
0
0
VERTEX
8
Layer 1
10
113.809811
20
57.066239
70
0
0
VERTEX
8
Layer 1
10
113.632982
20
56.190439
70
0
0
VERTEX
8
Layer 1
10
113.150777
20
55.475255
70
0
0
VERTEX
8
Layer 1
10
112.435581
20
54.993070
70
0
0
VERTEX
8
Layer 1
10
111.559776
20
54.816263
70
0
0
VERTEX
8
Layer 1
10
110.683975
20
54.993088
70
0
0
VERTEX
8
Layer 1
10
109.968789
20
55.475289
70
0
0
VERTEX
8
Layer 1
10
109.486599
20
56.190482
70
0
0
VERTEX
8
Layer 1
10
109.309788
20
57.066286
70
0
0
VERTEX
8
Layer 1
10
109.486608
20
57.942089
70
0
0
VERTEX
8
Layer 1
10
109.968805
20
58.657277
70
0
0
VERTEX
8
Layer 1
10
110.683996
20
59.139470
70
0
0
VERTEX
8
Layer 1
10
111.559800
20
59.316286
70
0
0
VERTEX
8
Layer 1
10
111.559800
20
59.316286
70
0
0
SEQEND
8
Layer 1
0
POLYLINE
8
Layer 1
62
250
70
1
10
0.000000
20
0.000000
66
1
0
VERTEX
8
Layer 1
10
30.259976
20
59.316357
70
0
0
VERTEX
8
Layer 1
10
31.121019
20
59.145085
70
0
0
VERTEX
8
Layer 1
10
31.850975
20
58.657344
70
0
0
VERTEX
8
Layer 1
10
32.338716
20
57.927387
70
0
0
VERTEX
8
Layer 1
10
32.509988
20
57.066345
70
0
0
VERTEX
8
Layer 1
10
32.411195
20
56.406591
70
0
0
VERTEX
8
Layer 1
10
32.130793
20
55.816306
70
0
0
VERTEX
8
Layer 1
10
31.692746
20
55.331355
70
0
0
VERTEX
8
Layer 1
10
31.121019
20
54.987605
70
0
0
VERTEX
8
Layer 1
10
30.473679
20
54.826401
70
0
0
VERTEX
8
Layer 1
10
29.821021
20
54.859567
70
0
0
VERTEX
8
Layer 1
10
29.205352
20
55.078687
70
0
0
VERTEX
8
Layer 1
10
28.668978
20
55.475347
70
0
0
VERTEX
8
Layer 1
10
28.272318
20
56.011721
70
0
0
VERTEX
8
Layer 1
10
28.053198
20
56.627390
70
0
0
VERTEX
8
Layer 1
10
28.020032
20
57.280047
70
0
0
VERTEX
8
Layer 1
10
28.181237
20
57.927387
70
0
0
VERTEX
8
Layer 1
10
28.524986
20
58.499114
70
0
0
VERTEX
8
Layer 1
10
29.009937
20
58.937162
70
0
0
VERTEX
8
Layer 1
10
29.600222
20
59.217564
70
0
0
VERTEX
8
Layer 1
10
30.259976
20
59.316357
70
0
0
VERTEX
8
Layer 1
10
30.259976
20
59.316357
70
0
0
SEQEND
8
Layer 1
0
POLYLINE
8
Layer 1
62
250
70
1
10
0.000000
20
0.000000
66
1
0
VERTEX
8
Layer 1
10
21.934968
20
157.241255
70
0
0
VERTEX
8
Layer 1
10
21.934968
20
147.191273
70
0
0
VERTEX
8
Layer 1
10
23.984955
20
147.191273
70
0
0
VERTEX
8
Layer 1
10
23.984955
20
157.241255
70
0
0
VERTEX
8
Layer 1
10
21.934968
20
157.241255
70
0
0
VERTEX
8
Layer 1
10
21.934968
20
157.241255
70
0
0
SEQEND
8
Layer 1
0
POLYLINE
8
Layer 1
62
250
70
1
10
0.000000
20
0.000000
66
1
0
VERTEX
8
Layer 1
10
21.934968
20
125.241312
70
0
0
VERTEX
8
Layer 1
10
21.934968
20
115.191365
70
0
0
VERTEX
8
Layer 1
10
23.984955
20
115.191365
70
0
0
VERTEX
8
Layer 1
10
23.984955
20
125.241312
70
0
0
VERTEX
8
Layer 1
10
21.934968
20
125.241312
70
0
0
VERTEX
8
Layer 1
10
21.934968
20
125.241312
70
0
0
SEQEND
8
Layer 1
0
POLYLINE
8
Layer 1
62
250
70
1
10
0.000000
20
0.000000
66
1
0
VERTEX
8
Layer 1
10
21.909956
20
93.241404
70
0
0
VERTEX
8
Layer 1
10
21.909956
20
83.191422
70
0
0
VERTEX
8
Layer 1
10
23.909955
20
83.191422
70
0
0
VERTEX
8
Layer 1
10
23.909955
20
93.241404
70
0
0
VERTEX
8
Layer 1
10
21.909956
20
93.241404
70
0
0
VERTEX
8
Layer 1
10
21.909956
20
93.241404
70
0
0
SEQEND
8
Layer 1
0
POLYLINE
8
Layer 1
62
250
70
1
10
0.000000
20
0.000000
66
1
0
VERTEX
8
Layer 1
10
117.834750
20
157.241255
70
0
0
VERTEX
8
Layer 1
10
117.834750
20
147.191273
70
0
0
VERTEX
8
Layer 1
10
119.884737
20
147.191273
70
0
0
VERTEX
8
Layer 1
10
119.884737
20
157.241255
70
0
0
VERTEX
8
Layer 1
10
117.834750
20
157.241255
70
0
0
VERTEX
8
Layer 1
10
117.834750
20
157.241255
70
0
0
SEQEND
8
Layer 1
0
POLYLINE
8
Layer 1
62
250
70
1
10
0.000000
20
0.000000
66
1
0
VERTEX
8
Layer 1
10
117.834750
20
125.241312
70
0
0
VERTEX
8
Layer 1
10
117.834750
20
115.191365
70
0
0
VERTEX
8
Layer 1
10
119.884737
20
115.191365
70
0
0
VERTEX
8
Layer 1
10
119.884737
20
125.241312
70
0
0
VERTEX
8
Layer 1
10
117.834750
20
125.241312
70
0
0
VERTEX
8
Layer 1
10
117.834750
20
125.241312
70
0
0
SEQEND
8
Layer 1
0
POLYLINE
8
Layer 1
62
250
70
1
10
0.000000
20
0.000000
66
1
0
VERTEX
8
Layer 1
10
117.809738
20
93.241404
70
0
0
VERTEX
8
Layer 1
10
117.809738
20
83.191422
70
0
0
VERTEX
8
Layer 1
10
119.809737
20
83.191422
70
0
0
VERTEX
8
Layer 1
10
119.809737
20
93.241404
70
0
0
VERTEX
8
Layer 1
10
117.809738
20
93.241404
70
0
0
VERTEX
8
Layer 1
10
117.809738
20
93.241404
70
0
0
SEQEND
8
Layer 1
0
POLYLINE
8
Layer 1
62
250
70
1
10
0.000000
20
0.000000
66
1
0
VERTEX
8
Layer 1
10
75.934932
20
191.716176
70
0
0
VERTEX
8
Layer 1
10
65.884950
20
191.716176
70
0
0
VERTEX
8
Layer 1
10
65.884950
20
189.666188
70
0
0
VERTEX
8
Layer 1
10
75.934932
20
189.666188
70
0
0
VERTEX
8
Layer 1
10
75.934932
20
191.716176
70
0
0
VERTEX
8
Layer 1
10
75.934932
20
191.716176
70
0
0
SEQEND
8
Layer 1
0
POLYLINE
8
Layer 1
62
250
70
1
10
0.000000
20
0.000000
66
1
0
VERTEX
8
Layer 1
10
97.934776
20
191.691164
70
0
0
VERTEX
8
Layer 1
10
87.884794
20
191.691164
70
0
0
VERTEX
8
Layer 1
10
87.884794
20
189.641176
70
0
0
VERTEX
8
Layer 1
10
97.934776
20
189.641176
70
0
0
VERTEX
8
Layer 1
10
97.934776
20
191.691164
70
0
0
VERTEX
8
Layer 1
10
97.934776
20
191.691164
70
0
0
SEQEND
8
Layer 1
0
POLYLINE
8
Layer 1
62
250
70
1
10
0.000000
20
0.000000
66
1
0
VERTEX
8
Layer 1
10
53.934876
20
191.691164
70
0
0
VERTEX
8
Layer 1
10
43.884894
20
191.691164
70
0
0
VERTEX
8
Layer 1
10
43.884894
20
189.641176
70
0
0
VERTEX
8
Layer 1
10
53.934876
20
189.641176
70
0
0
VERTEX
8
Layer 1
10
53.934876
20
191.691164
70
0
0
VERTEX
8
Layer 1
10
53.934876
20
191.691164
70
0
0
SEQEND
8
Layer 1
0
POLYLINE
8
Layer 1
62
250
70
1
10
0.000000
20
0.000000
66
1
0
VERTEX
8
Layer 1
10
75.934826
20
50.766383
70
0
0
VERTEX
8
Layer 1
10
65.884844
20
50.766383
70
0
0
VERTEX
8
Layer 1
10
65.884844
20
48.716396
70
0
0
VERTEX
8
Layer 1
10
75.934826
20
48.716396
70
0
0
VERTEX
8
Layer 1
10
75.934826
20
50.766383
70
0
0
VERTEX
8
Layer 1
10
75.934826
20
50.766383
70
0
0
SEQEND
8
Layer 1
0
POLYLINE
8
Layer 1
62
250
70
1
10
0.000000
20
0.000000
66
1
0
VERTEX
8
Layer 1
10
97.934670
20
50.741406
70
0
0
VERTEX
8
Layer 1
10
87.884723
20
50.741406
70
0
0
VERTEX
8
Layer 1
10
87.884723
20
48.691384
70
0
0
VERTEX
8
Layer 1
10
97.934670
20
48.691384
70
0
0
VERTEX
8
Layer 1
10
97.934670
20
50.741406
70
0
0
VERTEX
8
Layer 1
10
97.934670
20
50.741406
70
0
0
SEQEND
8
Layer 1
0
POLYLINE
8
Layer 1
62
250
70
1
10
0.000000
20
0.000000
66
1
0
VERTEX
8
Layer 1
10
53.934770
20
50.741406
70
0
0
VERTEX
8
Layer 1
10
43.884789
20
50.741406
70
0
0
VERTEX
8
Layer 1
10
43.884789
20
48.691384
70
0
0
VERTEX
8
Layer 1
10
53.934770
20
48.691384
70
0
0
VERTEX
8
Layer 1
10
53.934770
20
50.741406
70
0
0
VERTEX
8
Layer 1
10
53.934770
20
50.741406
70
0
0
SEQEND
8
Layer 1
0
POLYLINE
8
Layer 1
62
250
70
0
10
0.000000
20
0.000000
66
1
0
VERTEX
8
Layer 1
10
98.322266
20
106.478655
70
0
0
VERTEX
8
Layer 1
10
97.346213
20
107.406173
70
0
0
VERTEX
8
Layer 1
10
96.600247
20
108.533299
70
0
0
VERTEX
8
Layer 1
10
96.123772
20
109.820603
70
0
0
VERTEX
8
Layer 1
10
95.956191
20
111.228657
70
0
0
VERTEX
8
Layer 1
10
96.077073
20
112.427785
70
0
0
VERTEX
8
Layer 1
10
96.423768
20
113.544656
70
0
0
VERTEX
8
Layer 1
10
96.972352
20
114.555344
70
0
0
VERTEX
8
Layer 1
10
97.698896
20
115.435924
70
0
0
VERTEX
8
Layer 1
10
98.579475
20
116.162468
70
0
0
VERTEX
8
Layer 1
10
99.590164
20
116.711051
70
0
0
VERTEX
8
Layer 1
10
100.707035
20
117.057747
70
0
0
VERTEX
8
Layer 1
10
101.906163
20
117.178629
70
0
0
VERTEX
8
Layer 1
10
103.105302
20
117.057747
70
0
0
VERTEX
8
Layer 1
10
104.222182
20
116.711051
70
0
0
VERTEX
8
Layer 1
10
105.232877
20
116.162468
70
0
0
VERTEX
8
Layer 1
10
106.113461
20
115.435924
70
0
0
VERTEX
8
Layer 1
10
106.840008
20
114.555344
70
0
0
VERTEX
8
Layer 1
10
107.388592
20
113.544656
70
0
0
VERTEX
8
Layer 1
10
107.735288
20
112.427785
70
0
0
VERTEX
8
Layer 1
10
107.856170
20
111.228657
70
0
0
VERTEX
8
Layer 1
10
107.688557
20
109.820603
70
0
0
VERTEX
8
Layer 1
10
107.212017
20
108.533299
70
0
0
VERTEX
8
Layer 1
10
106.466000
20
107.406173
70
0
0
VERTEX
8
Layer 1
10
105.489954
20
106.478655
70
0
0
SEQEND
8
Layer 1
0
POLYLINE
8
Layer 1
62
250
70
0
10
0.000000
20
0.000000
66
1
0
VERTEX
8
Layer 1
10
98.322266
20
83.463413
70
0
0
VERTEX
8
Layer 1
10
97.346213
20
84.390926
70
0
0
VERTEX
8
Layer 1
10
96.600247
20
85.518044
70
0
0
VERTEX
8
Layer 1
10
96.123772
20
86.805346
70
0
0
VERTEX
8
Layer 1
10
95.956191
20
88.213415
70
0
0
VERTEX
8
Layer 1
10
96.077073
20
89.412542
70
0
0
VERTEX
8
Layer 1
10
96.423768
20
90.529414
70
0
0
VERTEX
8
Layer 1
10
96.972352
20
91.540102
70
0
0
VERTEX
8
Layer 1
10
97.698896
20
92.420682
70
0
0
VERTEX
8
Layer 1
10
98.579475
20
93.147226
70
0
0
VERTEX
8
Layer 1
10
99.590164
20
93.695809
70
0
0
VERTEX
8
Layer 1
10
100.707035
20
94.042505
70
0
0
VERTEX
8
Layer 1
10
101.906163
20
94.163387
70
0
0
VERTEX
8
Layer 1
10
103.105302
20
94.042505
70
0
0
VERTEX
8
Layer 1
10
104.222182
20
93.695809
70
0
0
VERTEX
8
Layer 1
10
105.232877
20
93.147226
70
0
0
VERTEX
8
Layer 1
10
106.113461
20
92.420682
70
0
0
VERTEX
8
Layer 1
10
106.840008
20
91.540102
70
0
0
VERTEX
8
Layer 1
10
107.388592
20
90.529414
70
0
0
VERTEX
8
Layer 1
10
107.735288
20
89.412542
70
0
0
VERTEX
8
Layer 1
10
107.856170
20
88.213415
70
0
0
VERTEX
8
Layer 1
10
107.688557
20
86.805346
70
0
0
VERTEX
8
Layer 1
10
107.212017
20
85.518044
70
0
0
VERTEX
8
Layer 1
10
106.466000
20
84.390926
70
0
0
VERTEX
8
Layer 1
10
105.489954
20
83.463413
70
0
0
SEQEND
8
Layer 1
0
POLYLINE
8
Layer 1
62
250
70
1
10
0.000000
20
0.000000
66
1
0
VERTEX
8
Layer 1
10
59.837964
20
121.878641
70
0
0
VERTEX
8
Layer 1
10
37.238011
20
121.878641
70
0
0
VERTEX
8
Layer 1
10
37.238011
20
101.778678
70
0
0
VERTEX
8
Layer 1
10
59.837964
20
101.778678
70
0
0
VERTEX
8
Layer 1
10
59.837964
20
121.878641
70
0
0
VERTEX
8
Layer 1
10
59.837964
20
121.878641
70
0
0
SEQEND
8
Layer 1
0
POLYLINE
8
Layer 1
62
250
70
1
10
0.000000
20
0.000000
66
1
0
VERTEX
8
Layer 1
10
74.187945
20
114.678639
70
0
0
VERTEX
8
Layer 1
10
74.187945
20
108.978645
70
0
0
VERTEX
8
Layer 1
10
87.387908
20
108.978645
70
0
0
VERTEX
8
Layer 1
10
87.387908
20
114.678639
70
0
0
VERTEX
8
Layer 1
10
74.187945
20
114.678639
70
0
0
VERTEX
8
Layer 1
10
74.187945
20
114.678639
70
0
0
SEQEND
8
Layer 1
0
POLYLINE
8
Layer 1
62
250
70
1
10
0.000000
20
0.000000
66
1
0
VERTEX
8
Layer 1
10
74.187945
20
91.663397
70
0
0
VERTEX
8
Layer 1
10
74.187945
20
85.963403
70
0
0
VERTEX
8
Layer 1
10
87.387908
20
85.963403
70
0
0
VERTEX
8
Layer 1
10
87.387908
20
91.663397
70
0
0
VERTEX
8
Layer 1
10
74.187945
20
91.663397
70
0
0
VERTEX
8
Layer 1
10
74.187945
20
91.663397
70
0
0
SEQEND
8
Layer 1
0
POLYLINE
8
Layer 1
62
250
70
1
10
0.000000
20
0.000000
66
1
0
VERTEX
8
Layer 1
10
70.896853
20
72.687452
70
0
0
VERTEX
8
Layer 1
10
72.466819
20
72.532120
70
0
0
VERTEX
8
Layer 1
10
73.962139
20
72.077729
70
0
0
VERTEX
8
Layer 1
10
75.340793
20
71.341681
70
0
0
VERTEX
8
Layer 1
10
76.560763
20
70.341384
70
0
0
VERTEX
8
Layer 1
10
77.561061
20
69.121414
70
0
0
VERTEX
8
Layer 1
10
78.297108
20
67.742760
70
0
0
VERTEX
8
Layer 1
10
78.751499
20
66.247440
70
0
0
VERTEX
8
Layer 1
10
78.906831
20
64.677474
70
0
0
VERTEX
8
Layer 1
10
78.817129
20
63.480187
70
0
0
VERTEX
8
Layer 1
10
78.555131
20
62.328767
70
0
0
VERTEX
8
Layer 1
10
78.131502
20
61.239174
70
0
0
VERTEX
8
Layer 1
10
77.556906
20
60.227368
70
0
0
VERTEX
8
Layer 1
10
76.842008
20
59.309310
70
0
0
VERTEX
8
Layer 1
10
75.997471
20
58.500958
70
0
0
VERTEX
8
Layer 1
10
75.033960
20
57.818275
70
0
0
VERTEX
8
Layer 1
10
73.962139
20
57.277219
70
0
0
VERTEX
8
Layer 1
10
72.821662
20
56.901911
70
0
0
VERTEX
8
Layer 1
10
71.657627
20
56.703336
70
0
0
VERTEX
8
Layer 1
10
70.488859
20
56.677749
70
0
0
VERTEX
8
Layer 1
10
69.334184
20
56.821405
70
0
0
VERTEX
8
Layer 1
10
68.212428
20
57.130559
70
0
0
VERTEX
8
Layer 1
10
67.142419
20
57.601467
70
0
0
VERTEX
8
Layer 1
10
66.142982
20
58.230383
70
0
0
VERTEX
8
Layer 1
10
65.232943
20
59.013564
70
0
0
VERTEX
8
Layer 1
10
64.449763
20
59.923603
70
0
0
VERTEX
8
Layer 1
10
63.820846
20
60.923040
70
0
0
VERTEX
8
Layer 1
10
63.349938
20
61.993049
70
0
0
VERTEX
8
Layer 1
10
63.040784
20
63.114804
70
0
0
VERTEX
8
Layer 1
10
62.897128
20
64.269479
70
0
0
VERTEX
8
Layer 1
10
62.922715
20
65.438248
70
0
0
VERTEX
8
Layer 1
10
63.121290
20
66.602283
70
0
0
VERTEX
8
Layer 1
10
63.496598
20
67.742760
70
0
0
VERTEX
8
Layer 1
10
64.037654
20
68.814581
70
0
0
VERTEX
8
Layer 1
10
64.720338
20
69.778092
70
0
0
VERTEX
8
Layer 1
10
65.528689
20
70.622629
70
0
0
VERTEX
8
Layer 1
10
66.446747
20
71.337527
70
0
0
VERTEX
8
Layer 1
10
67.458553
20
71.912123
70
0
0
VERTEX
8
Layer 1
10
68.548146
20
72.335752
70
0
0
VERTEX
8
Layer 1
10
69.699566
20
72.597749
70
0
0
VERTEX
8
Layer 1
10
70.896853
20
72.687452
70
0
0
VERTEX
8
Layer 1
10
70.896853
20
72.687452
70
0
0
SEQEND
8
Layer 1
0
POLYLINE
8
Layer 1
62
250
70
1
10
0.000000
20
0.000000
66
1
0
VERTEX
8
Layer 1
10
59.837964
20
98.863399
70
0
0
VERTEX
8
Layer 1
10
37.238011
20
98.863399
70
0
0
VERTEX
8
Layer 1
10
37.238011
20
78.763436
70
0
0
VERTEX
8
Layer 1
10
59.837964
20
78.763436
70
0
0
VERTEX
8
Layer 1
10
59.837964
20
98.863399
70
0
0
VERTEX
8
Layer 1
10
59.837964
20
98.863399
70
0
0
SEQEND
8
Layer 1
0
POLYLINE
8
Layer 1
62
7
70
0
10
0.000000
20
0.000000
66
1
0
VERTEX
8
Layer 1
10
-86.663554
20
129.132372
70
0
0
VERTEX
8
Layer 1
10
-79.174804
20
129.132372
70
0
0
VERTEX
8
Layer 1
10
-79.174804
20
130.896962
70
0
0
VERTEX
8
Layer 1
10
-86.663554
20
130.896962
70
0
0
VERTEX
8
Layer 1
10
-86.663554
20
135.910982
70
0
0
VERTEX
8
Layer 1
10
-78.141873
20
135.910982
70
0
0
VERTEX
8
Layer 1
10
-78.141873
20
137.675572
70
0
0
VERTEX
8
Layer 1
10
-88.664858
20
137.675572
70
0
0
VERTEX
8
Layer 1
10
-88.664858
20
121.987932
70
0
0
VERTEX
8
Layer 1
10
-86.663554
20
121.987932
70
0
0
VERTEX
8
Layer 1
10
-86.663554
20
129.132372
70
0
0
SEQEND
8
Layer 1
0
POLYLINE
8
Layer 1
62
7
70
0
10
0.000000
20
0.000000
66
1
0
VERTEX
8
Layer 1
10
-69.555616
20
137.933805
70
0
0
VERTEX
8
Layer 1
10
-71.171462
20
137.781824
70
0
0
VERTEX
8
Layer 1
10
-72.633226
20
137.339332
70
0
0
VERTEX
8
Layer 1
10
-73.921994
20
136.626502
70
0
0
VERTEX
8
Layer 1
10
-75.018853
20
135.663509
70
0
0
VERTEX
8
Layer 1
10
-75.904889
20
134.470527
70
0
0
VERTEX
8
Layer 1
10
-76.561188
20
133.067731
70
0
0
VERTEX
8
Layer 1
10
-76.968838
20
131.475296
70
0
0
VERTEX
8
Layer 1
10
-77.108924
20
129.713395
70
0
0
VERTEX
8
Layer 1
10
-76.969679
20
127.945316
70
0
0
VERTEX
8
Layer 1
10
-76.563878
20
126.349981
70
0
0
VERTEX
8
Layer 1
10
-75.909428
20
124.946807
70
0
0
VERTEX
8
Layer 1
10
-75.024233
20
123.755212
70
0
0
VERTEX
8
Layer 1
10
-73.926197
20
122.794615
70
0
0
VERTEX
8
Layer 1
10
-72.633226
20
122.084433
70
0
0
VERTEX
8
Layer 1
10
-71.163224
20
121.644084
70
0
0
VERTEX
8
Layer 1
10
-69.534096
20
121.492986
70
0
0
VERTEX
8
Layer 1
10
-68.144750
20
121.600583
70
0
0
VERTEX
8
Layer 1
10
-66.860311
20
121.917994
70
0
0
VERTEX
8
Layer 1
10
-65.696919
20
122.437149
70
0
0
VERTEX
8
Layer 1
10
-64.670713
20
123.149979
70
0
0
VERTEX
8
Layer 1
10
-63.529848
20
124.403484
70
0
0
VERTEX
8
Layer 1
10
-62.677479
20
125.947501
70
0
0
VERTEX
8
Layer 1
10
-62.143865
20
127.701332
70
0
0
VERTEX
8
Layer 1
10
-61.959269
20
129.584279
70
0
0
VERTEX
8
Layer 1
10
-62.096791
20
131.394976
70
0
0
VERTEX
8
Layer 1
10
-62.498599
20
133.022339
70
0
0
VERTEX
8
Layer 1
10
-63.148552
20
134.448461
70
0
0
VERTEX
8
Layer 1
10
-64.030511
20
135.655439
70
0
0
VERTEX
8
Layer 1
10
-65.128336
20
136.625367
70
0
0
VERTEX
8
Layer 1
10
-66.425889
20
137.340340
70
0
0
VERTEX
8
Layer 1
10
-67.907028
20
137.782455
70
0
0
VERTEX
8
Layer 1
10
-69.555616
20
137.933805
70
0
0
VERTEX
8
Layer 1
10
-69.555616
20
137.933805
70
0
0
SEQEND
8
Layer 1
0
POLYLINE
8
Layer 1
62
7
70
0
10
0.000000
20
0.000000
66
1
0
VERTEX
8
Layer 1
10
-69.555616
20
136.169214
70
0
0
VERTEX
8
Layer 1
10
-68.339013
20
136.051404
70
0
0
VERTEX
8
Layer 1
10
-67.246988
20
135.706884
70
0
0
VERTEX
8
Layer 1
10
-66.291140
20
135.149018
70
0
0
VERTEX
8
Layer 1
10
-65.483070
20
134.391174
70
0
0
VERTEX
8
Layer 1
10
-64.834378
20
133.446716
70
0
0
VERTEX
8
Layer 1
10
-64.356664
20
132.329011
70
0
0
VERTEX
8
Layer 1
10
-64.061529
20
131.051423
70
0
0
VERTEX
8
Layer 1
10
-63.960573
20
129.627318
70
0
0
VERTEX
8
Layer 1
10
-64.064135
20
128.266216
70
0
0
VERTEX
8
Layer 1
10
-64.365406
20
127.034230
70
0
0
VERTEX
8
Layer 1
10
-64.850265
20
125.947501
70
0
0
VERTEX
8
Layer 1
10
-65.504589
20
125.022167
70
0
0
VERTEX
8
Layer 1
10
-66.314257
20
124.274368
70
0
0
VERTEX
8
Layer 1
10
-67.265145
20
123.720243
70
0
0
VERTEX
8
Layer 1
10
-68.343132
20
123.375933
70
0
0
VERTEX
8
Layer 1
10
-69.534096
20
123.257576
70
0
0
VERTEX
8
Layer 1
10
-70.737417
20
123.376101
70
0
0
VERTEX
8
Layer 1
10
-71.821205
20
123.721588
70
0
0
VERTEX
8
Layer 1
10
-72.772850
20
124.278907
70
0
0
VERTEX
8
Layer 1
10
-73.579743
20
125.032926
70
0
0
VERTEX
8
Layer 1
10
-74.229276
20
125.968516
70
0
0
VERTEX
8
Layer 1
10
-74.708839
20
127.070544
70
0
0
VERTEX
8
Layer 1
10
-75.005823
20
128.323881
70
0
0
VERTEX
8
Layer 1
10
-75.107620
20
129.713395
70
0
0
VERTEX
8
Layer 1
10
-75.005865
20
131.102909
70
0
0
VERTEX
8
Layer 1
10
-74.709175
20
132.356246
70
0
0
VERTEX
8
Layer 1
10
-74.230411
20
133.458275
70
0
0
VERTEX
8
Layer 1
10
-73.582433
20
134.393864
70
0
0
VERTEX
8
Layer 1
10
-72.778104
20
135.147884
70
0
0
VERTEX
8
Layer 1
10
-71.830283
20
135.705202
70
0
0
VERTEX
8
Layer 1
10
-70.751834
20
136.050690
70
0
0
VERTEX
8
Layer 1
10
-69.555616
20
136.169214
70
0
0
VERTEX
8
Layer 1
10
-69.555616
20
136.169214
70
0
0
SEQEND
8
Layer 1
0
POLYLINE
8
Layer 1
62
7
70
0
10
0.000000
20
0.000000
66
1
0
VERTEX
8
Layer 1
10
-57.181966
20
128.745022
70
0
0
VERTEX
8
Layer 1
10
-52.017311
20
128.745022
70
0
0
VERTEX
8
Layer 1
10
-50.860307
20
128.580265
70
0
0
VERTEX
8
Layer 1
10
-50.056356
20
128.072541
70
0
0
VERTEX
8
Layer 1
10
-49.587300
20
127.201678
70
0
0
VERTEX
8
Layer 1
10
-49.434983
20
125.947501
70
0
0
VERTEX
8
Layer 1
10
-49.456503
20
124.548740
70
0
0
VERTEX
8
Layer 1
10
-49.335456
20
123.147289
70
0
0
VERTEX
8
Layer 1
10
-49.004595
20
121.987932
70
0
0
VERTEX
8
Layer 1
10
-46.572903
20
121.987932
70
0
0
VERTEX
8
Layer 1
10
-46.572903
20
122.482878
70
0
0
VERTEX
8
Layer 1
10
-47.032544
20
122.901497
70
0
0
VERTEX
8
Layer 1
10
-47.312633
20
123.475460
70
0
0
VERTEX
8
Layer 1
10
-47.519757
20
125.646229
70
0
0
VERTEX
8
Layer 1
10
-47.622646
20
127.271616
70
0
0
VERTEX
8
Layer 1
10
-47.955525
20
128.384573
70
0
0
VERTEX
8
Layer 1
10
-48.603124
20
129.150529
70
0
0
VERTEX
8
Layer 1
10
-49.650177
20
129.734915
70
0
0
VERTEX
8
Layer 1
10
-48.519064
20
130.437994
70
0
0
VERTEX
8
Layer 1
10
-47.751090
20
131.260102
70
0
0
VERTEX
8
Layer 1
10
-47.313978
20
132.255710
70
0
0
VERTEX
8
Layer 1
10
-47.175447
20
133.479290
70
0
0
VERTEX
8
Layer 1
10
-47.253622
20
134.438080
70
0
0
VERTEX
8
Layer 1
10
-47.486133
20
135.278849
70
0
0
VERTEX
8
Layer 1
10
-47.869951
20
135.998572
70
0
0
VERTEX
8
Layer 1
10
-48.402052
20
136.594222
70
0
0
VERTEX
8
Layer 1
10
-49.079409
20
137.062774
70
0
0
VERTEX
8
Layer 1
10
-49.898995
20
137.401200
70
0
0
VERTEX
8
Layer 1
10
-50.857785
20
137.606475
70
0
0
VERTEX
8
Layer 1
10
-51.952753
20
137.675572
70
0
0
VERTEX
8
Layer 1
10
-59.183270
20
137.675572
70
0
0
VERTEX
8
Layer 1
10
-59.183270
20
121.987932
70
0
0
VERTEX
8
Layer 1
10
-57.181966
20
121.987932
70
0
0
VERTEX
8
Layer 1
10
-57.181966
20
128.745022
70
0
0
SEQEND
8
Layer 1
0
POLYLINE
8
Layer 1
62
7
70
0
10
0.000000
20
0.000000
66
1
0
VERTEX
8
Layer 1
10
-57.181966
20
130.509613
70
0
0
VERTEX
8
Layer 1
10
-57.181966
20
135.910982
70
0
0
VERTEX
8
Layer 1
10
-52.340102
20
135.910982
70
0
0
VERTEX
8
Layer 1
10
-50.976310
20
135.771106
70
0
0
VERTEX
8
Layer 1
10
-50.080565
20
135.308438
70
0
0
VERTEX
8
Layer 1
10
-49.469952
20
134.442283
70
0
0
VERTEX
8
Layer 1
10
-49.262828
20
133.221057
70
0
0
VERTEX
8
Layer 1
10
-49.444062
20
132.007565
70
0
0
VERTEX
8
Layer 1
10
-50.002557
20
131.163265
70
0
0
VERTEX
8
Layer 1
10
-50.960507
20
130.670000
70
0
0
VERTEX
8
Layer 1
10
-52.340102
20
130.509613
70
0
0
VERTEX
8
Layer 1
10
-57.181966
20
130.509613
70
0
0
SEQEND
8
Layer 1
0
POLYLINE
8
Layer 1
62
7
70
0
10
0.000000
20
0.000000
66
1
0
VERTEX
8
Layer 1
10
-37.233482
20
130.036186
70
0
0
VERTEX
8
Layer 1
10
-31.939709
20
137.675572
70
0
0
VERTEX
8
Layer 1
10
-34.328362
20
137.675572
70
0
0
VERTEX
8
Layer 1
10
-38.374010
20
131.521025
70
0
0
VERTEX
8
Layer 1
10
-42.398137
20
137.675572
70
0
0
VERTEX
8
Layer 1
10
-44.829829
20
137.675572
70
0
0
VERTEX
8
Layer 1
10
-39.622135
20
130.036186
70
0
0
VERTEX
8
Layer 1
10
-45.174139
20
121.987932
70
0
0
VERTEX
8
Layer 1
10
-42.742447
20
121.987932
70
0
0
VERTEX
8
Layer 1
10
-38.438568
20
128.529828
70
0
0
VERTEX
8
Layer 1
10
-34.156207
20
121.987932
70
0
0
VERTEX
8
Layer 1
10
-31.681476
20
121.987932
70
0
0
VERTEX
8
Layer 1
10
-37.233482
20
130.036186
70
0
0
SEQEND
8
Layer 1
0
POLYLINE
8
Layer 1
62
7
70
0
10
0.000000
20
0.000000
66
1
0
VERTEX
8
Layer 1
10
-22.686365
20
128.142479
70
0
0
VERTEX
8
Layer 1
10
-16.790050
20
137.675572
70
0
0
VERTEX
8
Layer 1
10
-19.178703
20
137.675572
70
0
0
VERTEX
8
Layer 1
10
-23.654738
20
130.036186
70
0
0
VERTEX
8
Layer 1
10
-28.259889
20
137.675572
70
0
0
VERTEX
8
Layer 1
10
-30.734619
20
137.675572
70
0
0
VERTEX
8
Layer 1
10
-24.687669
20
128.142479
70
0
0
VERTEX
8
Layer 1
10
-24.687669
20
121.987932
70
0
0
VERTEX
8
Layer 1
10
-22.686365
20
121.987932
70
0
0
VERTEX
8
Layer 1
10
-22.686365
20
128.142479
70
0
0
SEQEND
8
Layer 1
0
POLYLINE
8
Layer 1
62
7
70
0
10
0.000000
20
0.000000
66
1
0
VERTEX
8
Layer 1
10
-12.249469
20
128.701984
70
0
0
VERTEX
8
Layer 1
10
-17.371086
20
128.701984
70
0
0
VERTEX
8
Layer 1
10
-17.371086
20
127.152587
70
0
0
VERTEX
8
Layer 1
10
-12.249469
20
127.152587
70
0
0
VERTEX
8
Layer 1
10
-12.249469
20
128.701984
70
0
0
SEQEND
8
Layer 1
0
POLYLINE
8
Layer 1
62
7
70
0
10
0.000000
20
0.000000
66
1
0
VERTEX
8
Layer 1
10
1.781179
20
133.070421
70
0
0
VERTEX
8
Layer 1
10
1.705862
20
134.253988
70
0
0
VERTEX
8
Layer 1
10
1.372311
20
135.179322
70
0
0
VERTEX
8
Layer 1
10
0.547513
20
136.372304
70
0
0
VERTEX
8
Layer 1
10
-0.626303
20
137.234425
70
0
0
VERTEX
8
Layer 1
10
-2.135015
20
137.757615
70
0
0
VERTEX
8
Layer 1
10
-3.964499
20
137.933805
70
0
0
VERTEX
8
Layer 1
10
-5.192534
20
137.852435
70
0
0
VERTEX
8
Layer 1
10
-6.287922
20
137.613704
70
0
0
VERTEX
8
Layer 1
10
-7.241080
20
137.225682
70
0
0
VERTEX
8
Layer 1
10
-8.042425
20
136.696440
70
0
0
VERTEX
8
Layer 1
10
-8.682375
20
136.034046
70
0
0
VERTEX
8
Layer 1
10
-9.151347
20
135.246570
70
0
0
VERTEX
8
Layer 1
10
-9.439757
20
134.342083
70
0
0
VERTEX
8
Layer 1
10
-9.538023
20
133.328654
70
0
0
VERTEX
8
Layer 1
10
-9.347711
20
132.024713
70
0
0
VERTEX
8
Layer 1
10
-8.774085
20
130.983040
70
0
0
VERTEX
8
Layer 1
10
-7.813109
20
130.199599
70
0
0
VERTEX
8
Layer 1
10
-6.460750
20
129.670356
70
0
0
VERTEX
8
Layer 1
10
-2.565739
20
128.637425
70
0
0
VERTEX
8
Layer 1
10
-1.270876
20
128.195269
70
0
0
VERTEX
8
Layer 1
10
-0.373450
20
127.634084
70
0
0
VERTEX
8
Layer 1
10
0.148731
20
126.939747
70
0
0
VERTEX
8
Layer 1
10
0.317860
20
126.098137
70
0
0
VERTEX
8
Layer 1
10
0.236826
20
125.471048
70
0
0
VERTEX
8
Layer 1
10
0.008519
20
124.874221
70
0
0
VERTEX
8
Layer 1
10
-0.344870
20
124.345987
70
0
0
VERTEX
8
Layer 1
10
-0.801148
20
123.924677
70
0
0
VERTEX
8
Layer 1
10
-2.000855
20
123.421662
70
0
0
VERTEX
8
Layer 1
10
-3.684747
20
123.257576
70
0
0
VERTEX
8
Layer 1
10
-4.869995
20
123.335584
70
0
0
VERTEX
8
Layer 1
10
-5.855516
20
123.574987
70
0
0
VERTEX
8
Layer 1
10
-6.659468
20
123.983856
70
0
0
VERTEX
8
Layer 1
10
-7.300006
20
124.570259
70
0
0
VERTEX
8
Layer 1
10
-7.934828
20
125.670439
70
0
0
VERTEX
8
Layer 1
10
-8.117743
20
126.980432
70
0
0
VERTEX
8
Layer 1
10
-10.011450
20
126.980432
70
0
0
VERTEX
8
Layer 1
10
-9.774737
20
125.137833
70
0
0
VERTEX
8
Layer 1
10
-9.086116
20
123.731003
70
0
0
VERTEX
8
Layer 1
10
-8.144306
20
122.754897
70
0
0
VERTEX
8
Layer 1
10
-6.942246
20
122.055180
70
0
0
VERTEX
8
Layer 1
10
-5.494058
20
121.633870
70
0
0
VERTEX
8
Layer 1
10
-3.813864
20
121.492986
70
0
0
VERTEX
8
Layer 1
10
-2.476971
20
121.572338
70
0
0
VERTEX
8
Layer 1
10
-1.285335
20
121.805017
70
0
0
VERTEX
8
Layer 1
10
-0.255094
20
122.182951
70
0
0
VERTEX
8
Layer 1
10
0.597613
20
122.698072
70
0
0
VERTEX
8
Layer 1
10
1.311451
20
123.423007
70
0
0
VERTEX
8
Layer 1
10
1.853807
20
124.301267
70
0
0
VERTEX
8
Layer 1
10
2.198454
20
125.276365
70
0
0
VERTEX
8
Layer 1
10
2.319164
20
126.291811
70
0
0
VERTEX
8
Layer 1
10
2.097582
20
127.642490
70
0
0
VERTEX
8
Layer 1
10
1.450319
20
128.769232
70
0
0
VERTEX
8
Layer 1
10
0.403602
20
129.641776
70
0
0
VERTEX
8
Layer 1
10
-1.016342
20
130.229861
70
0
0
VERTEX
8
Layer 1
10
-4.954392
20
131.284311
70
0
0
VERTEX
8
Layer 1
10
-6.156788
20
131.695870
70
0
0
VERTEX
8
Layer 1
10
-6.955696
20
132.188126
70
0
0
VERTEX
8
Layer 1
10
-7.399533
20
132.809499
70
0
0
VERTEX
8
Layer 1
10
-7.536719
20
133.608406
70
0
0
VERTEX
8
Layer 1
10
-7.285211
20
134.693791
70
0
0
VERTEX
8
Layer 1
10
-6.573726
20
135.529012
70
0
0
VERTEX
8
Layer 1
10
-5.466822
20
136.065652
70
0
0
VERTEX
8
Layer 1
10
-4.029058
20
136.255292
70
0
0
VERTEX
8
Layer 1
10
-2.367021
20
136.048168
70
0
0
VERTEX
8
Layer 1
10
-1.142769
20
135.437555
70
0
0
VERTEX
8
Layer 1
10
-0.703008
20
134.985984
70
0
0
VERTEX
8
Layer 1
10
-0.382529
20
134.439593
70
0
0
VERTEX
8
Layer 1
10
-0.112528
20
133.070421
70
0
0
VERTEX
8
Layer 1
10
1.781179
20
133.070421
70
0
0
SEQEND
8
Layer 1
0
POLYLINE
8
Layer 1
62
7
70
0
10
0.000000
20
0.000000
66
1
0
VERTEX
8
Layer 1
10
7.010386
20
127.475378
70
0
0
VERTEX
8
Layer 1
10
9.571195
20
130.036186
70
0
0
VERTEX
8
Layer 1
10
15.101680
20
121.987932
70
0
0
VERTEX
8
Layer 1
10
17.468813
20
121.987932
70
0
0
VERTEX
8
Layer 1
10
11.012994
20
131.284311
70
0
0
VERTEX
8
Layer 1
10
17.404255
20
137.675572
70
0
0
VERTEX
8
Layer 1
10
14.821927
20
137.675572
70
0
0
VERTEX
8
Layer 1
10
7.010386
20
129.734915
70
0
0
VERTEX
8
Layer 1
10
7.010386
20
137.675572
70
0
0
VERTEX
8
Layer 1
10
5.009082
20
137.675572
70
0
0
VERTEX
8
Layer 1
10
5.009082
20
121.987932
70
0
0
VERTEX
8
Layer 1
10
7.010386
20
121.987932
70
0
0
VERTEX
8
Layer 1
10
7.010386
20
127.475378
70
0
0
SEQEND
8
Layer 1
0
POLYLINE
8
Layer 1
62
7
70
0
10
0.000000
20
0.000000
66
1
0
VERTEX
8
Layer 1
10
26.076565
20
130.186822
70
0
0
VERTEX
8
Layer 1
10
27.074527
20
130.890574
70
0
0
VERTEX
8
Layer 1
10
27.717419
20
131.604412
70
0
0
VERTEX
8
Layer 1
10
28.061730
20
132.411053
70
0
0
VERTEX
8
Layer 1
10
28.163947
20
133.393212
70
0
0
VERTEX
8
Layer 1
10
28.078206
20
134.276012
70
0
0
VERTEX
8
Layer 1
10
27.829051
20
135.077105
70
0
0
VERTEX
8
Layer 1
10
27.428589
20
135.785396
70
0
0
VERTEX
8
Layer 1
10
26.888923
20
136.389788
70
0
0
VERTEX
8
Layer 1
10
26.222158
20
136.879186
70
0
0
VERTEX
8
Layer 1
10
25.440398
20
137.242494
70
0
0
VERTEX
8
Layer 1
10
24.555749
20
137.468616
70
0
0
VERTEX
8
Layer 1
10
23.580315
20
137.546456
70
0
0
VERTEX
8
Layer 1
10
22.611060
20
137.468658
70
0
0
VERTEX
8
Layer 1
10
21.729311
20
137.242831
70
0
0
VERTEX
8
Layer 1
10
20.947930
20
136.880321
70
0
0
VERTEX
8
Layer 1
10
20.279778
20
136.392478
70
0
0
VERTEX
8
Layer 1
10
19.737716
20
135.790650
70
0
0
VERTEX
8
Layer 1
10
19.334606
20
135.086183
70
0
0
VERTEX
8
Layer 1
10
19.083308
20
134.290428
70
0
0
VERTEX
8
Layer 1
10
18.996684
20
133.414732
70
0
0
VERTEX
8
Layer 1
10
19.098565
20
132.423158
70
0
0
VERTEX
8
Layer 1
10
19.440521
20
131.615172
70
0
0
VERTEX
8
Layer 1
10
20.077025
20
130.899988
70
0
0
VERTEX
8
Layer 1
10
21.062546
20
130.186822
70
0
0
VERTEX
8
Layer 1
10
19.920337
20
129.451464
70
0
0
VERTEX
8
Layer 1
10
19.106971
20
128.564797
70
0
0
VERTEX
8
Layer 1
10
18.620431
20
127.520770
70
0
0
VERTEX
8
Layer 1
10
18.458699
20
126.313331
70
0
0
VERTEX
8
Layer 1
10
18.554317
20
125.290655
70
0
0
VERTEX
8
Layer 1
10
18.832262
20
124.361790
70
0
0
VERTEX
8
Layer 1
10
19.279168
20
123.539850
70
0
0
VERTEX
8
Layer 1
10
19.881669
20
122.837948
70
0
0
VERTEX
8
Layer 1
10
20.626400
20
122.269197
70
0
0
VERTEX
8
Layer 1
10
21.499995
20
121.846711
70
0
0
VERTEX
8
Layer 1
10
22.489089
20
121.583602
70
0
0
VERTEX
8
Layer 1
10
23.580315
20
121.492986
70
0
0
VERTEX
8
Layer 1
10
24.665364
20
121.583602
70
0
0
VERTEX
8
Layer 1
10
25.651557
20
121.846711
70
0
0
VERTEX
8
Layer 1
10
26.524774
20
122.269197
70
0
0
VERTEX
8
Layer 1
10
27.270892
20
122.837948
70
0
0
VERTEX
8
Layer 1
10
27.875789
20
123.539850
70
0
0
VERTEX
8
Layer 1
10
28.325342
20
124.361790
70
0
0
VERTEX
8
Layer 1
10
28.605431
20
125.290655
70
0
0
VERTEX
8
Layer 1
10
28.701932
20
126.313331
70
0
0
VERTEX
8
Layer 1
10
28.539864
20
127.520770
70
0
0
VERTEX
8
Layer 1
10
28.050970
20
128.564797
70
0
0
VERTEX
8
Layer 1
10
27.231215
20
129.451464
70
0
0
VERTEX
8
Layer 1
10
26.076565
20
130.186822
70
0
0
VERTEX
8
Layer 1
10
26.076565
20
130.186822
70
0
0
SEQEND
8
Layer 1
0
POLYLINE
8
Layer 1
62
7
70
0
10
0.000000
20
0.000000
66
1
0
VERTEX
8
Layer 1
10
23.580315
20
135.867943
70
0
0
VERTEX
8
Layer 1
10
24.674778
20
135.692425
70
0
0
VERTEX
8
Layer 1
10
25.508991
20
135.190082
70
0
0
VERTEX
8
Layer 1
10
26.040588
20
134.397227
70
0
0
VERTEX
8
Layer 1
10
26.227201
20
133.350173
70
0
0
VERTEX
8
Layer 1
10
26.037561
20
132.352884
70
0
0
VERTEX
8
Layer 1
10
25.500921
20
131.585583
70
0
0
VERTEX
8
Layer 1
10
24.665700
20
131.092654
70
0
0
VERTEX
8
Layer 1
10
23.580315
20
130.918482
70
0
0
VERTEX
8
Layer 1
10
22.485852
20
131.093327
70
0
0
VERTEX
8
Layer 1
10
21.651639
20
131.590963
70
0
0
VERTEX
8
Layer 1
10
21.120043
20
132.371041
70
0
0
VERTEX
8
Layer 1
10
20.933429
20
133.393212
70
0
0
VERTEX
8
Layer 1
10
21.120043
20
134.415384
70
0
0
VERTEX
8
Layer 1
10
21.651639
20
135.195462
70
0
0
VERTEX
8
Layer 1
10
22.485852
20
135.693098
70
0
0
VERTEX
8
Layer 1
10
23.580315
20
135.867943
70
0
0
VERTEX
8
Layer 1
10
23.580315
20
135.867943
70
0
0
SEQEND
8
Layer 1
0
POLYLINE
8
Layer 1
62
7
70
0
10
0.000000
20
0.000000
66
1
0
VERTEX
8
Layer 1
10
23.580315
20
129.326046
70
0
0
VERTEX
8
Layer 1
10
24.876859
20
129.102782
70
0
0
VERTEX
8
Layer 1
10
25.882891
20
128.476030
70
0
0
VERTEX
8
Layer 1
10
26.533853
20
127.510347
70
0
0
VERTEX
8
Layer 1
10
26.765186
20
126.270292
70
0
0
VERTEX
8
Layer 1
10
26.536206
20
124.996276
70
0
0
VERTEX
8
Layer 1
10
25.885581
20
124.018825
70
0
0
VERTEX
8
Layer 1
10
24.867780
20
123.392409
70
0
0
VERTEX
8
Layer 1
10
23.537277
20
123.171499
70
0
0
VERTEX
8
Layer 1
10
22.265615
20
123.398125
70
0
0
VERTEX
8
Layer 1
10
21.272360
20
124.032274
70
0
0
VERTEX
8
Layer 1
10
20.626106
20
125.005355
70
0
0
VERTEX
8
Layer 1
10
20.395445
20
126.248772
70
0
0
VERTEX
8
Layer 1
10
20.623752
20
127.510347
70
0
0
VERTEX
8
Layer 1
10
21.269670
20
128.481410
70
0
0
VERTEX
8
Layer 1
10
22.274693
20
129.105472
70
0
0
VERTEX
8
Layer 1
10
23.580315
20
129.326046
70
0
0
VERTEX
8
Layer 1
10
23.580315
20
129.326046
70
0
0
SEQEND
8
Layer 1
0
POLYLINE
8
Layer 1
62
7
70
0
10
0.000000
20
0.000000
66
1
0
VERTEX
8
Layer 1
10
35.545105
20
137.546456
70
0
0
VERTEX
8
Layer 1
10
34.509821
20
137.429108
70
0
0
VERTEX
8
Layer 1
10
33.557251
20
137.091859
70
0
0
VERTEX
8
Layer 1
10
32.721694
20
136.556900
70
0
0
VERTEX
8
Layer 1
10
32.037444
20
135.846423
70
0
0
VERTEX
8
Layer 1
10
31.387827
20
134.682359
70
0
0
VERTEX
8
Layer 1
10
30.923815
20
133.247956
70
0
0
VERTEX
8
Layer 1
10
30.645408
20
131.531112
70
0
0
VERTEX
8
Layer 1
10
30.552606
20
129.519721
70
0
0
VERTEX
8
Layer 1
10
30.632967
20
127.667287
70
0
0
VERTEX
8
Layer 1
10
30.872707
20
126.050390
70
0
0
VERTEX
8
Layer 1
10
31.269807
20
124.672561
70
0
0
VERTEX
8
Layer 1
10
31.822250
20
123.537328
70
0
0
VERTEX
8
Layer 1
10
32.528019
20
122.648224
70
0
0
VERTEX
8
Layer 1
10
33.385096
20
122.008779
70
0
0
VERTEX
8
Layer 1
10
34.391464
20
121.622522
70
0
0
VERTEX
8
Layer 1
10
35.545105
20
121.492986
70
0
0
VERTEX
8
Layer 1
10
36.686390
20
121.622270
70
0
0
VERTEX
8
Layer 1
10
37.686957
20
122.006761
70
0
0
VERTEX
8
Layer 1
10
38.543278
20
122.641415
70
0
0
VERTEX
8
Layer 1
10
39.251821
20
123.521189
70
0
0
VERTEX
8
Layer 1
10
39.809056
20
124.641038
70
0
0
VERTEX
8
Layer 1
10
40.211452
20
125.995919
70
0
0
VERTEX
8
Layer 1
10
40.455478
20
127.580789
70
0
0
VERTEX
8
Layer 1
10
40.537605
20
129.390604
70
0
0
VERTEX
8
Layer 1
10
40.447829
20
131.470589
70
0
0
VERTEX
8
Layer 1
10
40.174465
20
133.215677
70
0
0
VERTEX
8
Layer 1
10
39.711462
20
134.662184
70
0
0
VERTEX
8
Layer 1
10
39.052767
20
135.846423
70
0
0
VERTEX
8
Layer 1
10
38.371543
20
136.565978
70
0
0
VERTEX
8
Layer 1
10
37.541029
20
137.099928
70
0
0
VERTEX
8
Layer 1
10
36.589468
20
137.432134
70
0
0
VERTEX
8
Layer 1
10
35.545105
20
137.546456
70
0
0
VERTEX
8
Layer 1
10
35.545105
20
137.546456
70
0
0
SEQEND
8
Layer 1
0
POLYLINE
8
Layer 1
62
7
70
0
10
0.000000
20
0.000000
66
1
0
VERTEX
8
Layer 1
10
35.545105
20
135.867943
70
0
0
VERTEX
8
Layer 1
10
36.263357
20
135.770013
70
0
0
VERTEX
8
Layer 1
10
36.885024
20
135.475886
70
0
0
VERTEX
8
Layer 1
10
37.410358
20
134.985059
70
0
0
VERTEX
8
Layer 1
10
37.839611
20
134.297027
70
0
0
VERTEX
8
Layer 1
10
38.410883
20
132.327330
70
0
0
VERTEX
8
Layer 1
10
38.600859
20
129.562759
70
0
0
VERTEX
8
Layer 1
10
38.413237
20
126.677143
70
0
0
VERTEX
8
Layer 1
10
38.176440
20
125.558386
70
0
0
VERTEX
8
Layer 1
10
37.842301
20
124.650957
70
0
0
VERTEX
8
Layer 1
10
37.409307
20
123.951325
70
0
0
VERTEX
8
Layer 1
10
36.875945
20
123.455958
70
0
0
VERTEX
8
Layer 1
10
36.240703
20
123.161327
70
0
0
VERTEX
8
Layer 1
10
35.502066
20
123.063902
70
0
0
VERTEX
8
Layer 1
10
34.798021
20
123.164732
70
0
0
VERTEX
8
Layer 1
10
34.187030
20
123.467054
70
0
0
VERTEX
8
Layer 1
10
33.669345
20
123.970616
70
0
0
VERTEX
8
Layer 1
10
33.245220
20
124.675166
70
0
0
VERTEX
8
Layer 1
10
32.678655
20
126.686221
70
0
0
VERTEX
8
Layer 1
10
32.489351
20
129.498201
70
0
0
VERTEX
8
Layer 1
10
32.679327
20
132.300094
70
0
0
VERTEX
8
Layer 1
10
33.250600
20
134.288957
70
0
0
VERTEX
8
Layer 1
10
33.679853
20
134.981655
70
0
0
VERTEX
8
Layer 1
10
34.205187
20
135.474878
70
0
0
VERTEX
8
Layer 1
10
34.826853
20
135.769887
70
0
0
VERTEX
8
Layer 1
10
35.545105
20
135.867943
70
0
0
VERTEX
8
Layer 1
10
35.545105
20
135.867943
70
0
0
SEQEND
8
Layer 1
0
POLYLINE
8
Layer 1
62
7
70
0
10
0.000000
20
0.000000
66
1
0
VERTEX
8
Layer 1
10
53.449229
20
129.132372
70
0
0
VERTEX
8
Layer 1
10
53.449229
20
121.987932
70
0
0
VERTEX
8
Layer 1
10
55.450533
20
121.987932
70
0
0
VERTEX
8
Layer 1
10
55.450533
20
137.675572
70
0
0
VERTEX
8
Layer 1
10
53.449229
20
137.675572
70
0
0
VERTEX
8
Layer 1
10
53.449229
20
130.896962
70
0
0
VERTEX
8
Layer 1
10
45.379455
20
130.896962
70
0
0
VERTEX
8
Layer 1
10
45.379455
20
137.675572
70
0
0
VERTEX
8
Layer 1
10
43.378151
20
137.675572
70
0
0
VERTEX
8
Layer 1
10
43.378151
20
121.987932
70
0
0
VERTEX
8
Layer 1
10
45.379455
20
121.987932
70
0
0
VERTEX
8
Layer 1
10
45.379455
20
129.132372
70
0
0
VERTEX
8
Layer 1
10
53.449229
20
129.132372
70
0
0
SEQEND
8
Layer 1
0
POLYLINE
8
Layer 1
62
7
70
0
10
0.000000
20
0.000000
66
1
0
VERTEX
8
Layer 1
10
68.728008
20
127.733611
70
0
0
VERTEX
8
Layer 1
10
58.205023
20
132.188126
70
0
0
VERTEX
8
Layer 1
10
58.205023
20
130.488094
70
0
0
VERTEX
8
Layer 1
10
66.683665
20
126.958912
70
0
0
VERTEX
8
Layer 1
10
58.205023
20
123.494290
70
0
0
VERTEX
8
Layer 1
10
58.205023
20
121.794257
70
0
0
VERTEX
8
Layer 1
10
68.728008
20
126.248772
70
0
0
VERTEX
8
Layer 1
10
68.728008
20
127.733611
70
0
0
SEQEND
8
Layer 1
0
POLYLINE
8
Layer 1
62
7
70
0
10
0.000000
20
0.000000
66
1
0
VERTEX
8
Layer 1
10
81.295332
20
127.733611
70
0
0
VERTEX
8
Layer 1
10
70.772347
20
132.188126
70
0
0
VERTEX
8
Layer 1
10
70.772347
20
130.488094
70
0
0
VERTEX
8
Layer 1
10
79.250990
20
126.958912
70
0
0
VERTEX
8
Layer 1
10
70.772347
20
123.494290
70
0
0
VERTEX
8
Layer 1
10
70.772347
20
121.794257
70
0
0
VERTEX
8
Layer 1
10
81.295332
20
126.248772
70
0
0
VERTEX
8
Layer 1
10
81.295332
20
127.733611
70
0
0
SEQEND
8
Layer 1
0
POLYLINE
8
Layer 1
62
7
70
0
10
0.000000
20
0.000000
66
1
0
VERTEX
8
Layer 1
10
93.862646
20
127.733611
70
0
0
VERTEX
8
Layer 1
10
83.339661
20
132.188126
70
0
0
VERTEX
8
Layer 1
10
83.339661
20
130.488094
70
0
0
VERTEX
8
Layer 1
10
91.818303
20
126.958912
70
0
0
VERTEX
8
Layer 1
10
83.339661
20
123.494290
70
0
0
VERTEX
8
Layer 1
10
83.339661
20
121.794257
70
0
0
VERTEX
8
Layer 1
10
93.862646
20
126.248772
70
0
0
VERTEX
8
Layer 1
10
93.862646
20
127.733611
70
0
0
SEQEND
8
Layer 1
0
POLYLINE
8
Layer 1
62
7
70
0
10
0.000000
20
0.000000
66
1
0
VERTEX
8
Layer 1
10
-79.817768
20
273.810350
70
0
0
VERTEX
8
Layer 1
10
-72.329018
20
273.810350
70
0
0
VERTEX
8
Layer 1
10
-72.329018
20
275.574941
70
0
0
VERTEX
8
Layer 1
10
-79.817768
20
275.574941
70
0
0
VERTEX
8
Layer 1
10
-79.817768
20
280.588960
70
0
0
VERTEX
8
Layer 1
10
-71.296087
20
280.588960
70
0
0
VERTEX
8
Layer 1
10
-71.296087
20
282.353551
70
0
0
VERTEX
8
Layer 1
10
-81.819072
20
282.353551
70
0
0
VERTEX
8
Layer 1
10
-81.819072
20
266.665910
70
0
0
VERTEX
8
Layer 1
10
-79.817768
20
266.665910
70
0
0
VERTEX
8
Layer 1
10
-79.817768
20
273.810350
70
0
0
SEQEND
8
Layer 1
0
POLYLINE
8
Layer 1
62
7
70
0
10
0.000000
20
0.000000
66
1
0
VERTEX
8
Layer 1
10
-62.709834
20
282.611784
70
0
0
VERTEX
8
Layer 1
10
-64.325680
20
282.459803
70
0
0
VERTEX
8
Layer 1
10
-65.787444
20
282.017310
70
0
0
VERTEX
8
Layer 1
10
-67.076212
20
281.304480
70
0
0
VERTEX
8
Layer 1
10
-68.173070
20
280.341487
70
0
0
VERTEX
8
Layer 1
10
-69.059106
20
279.148506
70
0
0
VERTEX
8
Layer 1
10
-69.715406
20
277.745710
70
0
0
VERTEX
8
Layer 1
10
-70.123056
20
276.153275
70
0
0
VERTEX
8
Layer 1
10
-70.263142
20
274.391374
70
0
0
VERTEX
8
Layer 1
10
-70.123896
20
272.623295
70
0
0
VERTEX
8
Layer 1
10
-69.718096
20
271.027959
70
0
0
VERTEX
8
Layer 1
10
-69.063646
20
269.624786
70
0
0
VERTEX
8
Layer 1
10
-68.178450
20
268.433191
70
0
0
VERTEX
8
Layer 1
10
-67.080415
20
267.472594
70
0
0
VERTEX
8
Layer 1
10
-65.787444
20
266.762412
70
0
0
VERTEX
8
Layer 1
10
-64.317442
20
266.322062
70
0
0
VERTEX
8
Layer 1
10
-62.688314
20
266.170964
70
0
0
VERTEX
8
Layer 1
10
-61.298968
20
266.278561
70
0
0
VERTEX
8
Layer 1
10
-60.014529
20
266.595972
70
0
0
VERTEX
8
Layer 1
10
-58.851137
20
267.115128
70
0
0
VERTEX
8
Layer 1
10
-57.824930
20
267.827958
70
0
0
VERTEX
8
Layer 1
10
-56.684066
20
269.081463
70
0
0
VERTEX
8
Layer 1
10
-55.831696
20
270.625480
70
0
0
VERTEX
8
Layer 1
10
-55.298082
20
272.379310
70
0
0
VERTEX
8
Layer 1
10
-55.113486
20
274.262258
70
0
0
VERTEX
8
Layer 1
10
-55.251009
20
276.072955
70
0
0
VERTEX
8
Layer 1
10
-55.652816
20
277.700318
70
0
0
VERTEX
8
Layer 1
10
-56.302769
20
279.126440
70
0
0
VERTEX
8
Layer 1
10
-57.184728
20
280.333417
70
0
0
VERTEX
8
Layer 1
10
-58.282554
20
281.303345
70
0
0
VERTEX
8
Layer 1
10
-59.580106
20
282.018319
70
0
0
VERTEX
8
Layer 1
10
-61.061246
20
282.460433
70
0
0
VERTEX
8
Layer 1
10
-62.709834
20
282.611784
70
0
0
VERTEX
8
Layer 1
10
-62.709834
20
282.611784
70
0
0
SEQEND
8
Layer 1
0
POLYLINE
8
Layer 1
62
7
70
0
10
0.000000
20
0.000000
66
1
0
VERTEX
8
Layer 1
10
-62.709834
20
280.847193
70
0
0
VERTEX
8
Layer 1
10
-61.493231
20
280.729383
70
0
0
VERTEX
8
Layer 1
10
-60.401206
20
280.384862
70
0
0
VERTEX
8
Layer 1
10
-59.445358
20
279.826997
70
0
0
VERTEX
8
Layer 1
10
-58.637288
20
279.069153
70
0
0
VERTEX
8
Layer 1
10
-57.988596
20
278.124695
70
0
0
VERTEX
8
Layer 1
10
-57.510882
20
277.006989
70
0
0
VERTEX
8
Layer 1
10
-57.215747
20
275.729401
70
0
0
VERTEX
8
Layer 1
10
-57.114790
20
274.305296
70
0
0
VERTEX
8
Layer 1
10
-57.218352
20
272.944195
70
0
0
VERTEX
8
Layer 1
10
-57.519624
20
271.712209
70
0
0
VERTEX
8
Layer 1
10
-58.004483
20
270.625480
70
0
0
VERTEX
8
Layer 1
10
-58.658807
20
269.700145
70
0
0
VERTEX
8
Layer 1
10
-59.468474
20
268.952346
70
0
0
VERTEX
8
Layer 1
10
-60.419363
20
268.398222
70
0
0
VERTEX
8
Layer 1
10
-61.497350
20
268.053912
70
0
0
VERTEX
8
Layer 1
10
-62.688314
20
267.935555
70
0
0
VERTEX
8
Layer 1
10
-63.891635
20
268.054080
70
0
0
VERTEX
8
Layer 1
10
-64.975423
20
268.399567
70
0
0
VERTEX
8
Layer 1
10
-65.927067
20
268.956886
70
0
0
VERTEX
8
Layer 1
10
-66.733961
20
269.710905
70
0
0
VERTEX
8
Layer 1
10
-67.383494
20
270.646495
70
0
0
VERTEX
8
Layer 1
10
-67.863057
20
271.748523
70
0
0
VERTEX
8
Layer 1
10
-68.160041
20
273.001860
70
0
0
VERTEX
8
Layer 1
10
-68.261838
20
274.391374
70
0
0
VERTEX
8
Layer 1
10
-68.160083
20
275.780888
70
0
0
VERTEX
8
Layer 1
10
-67.863393
20
277.034225
70
0
0
VERTEX
8
Layer 1
10
-67.384628
20
278.136253
70
0
0
VERTEX
8
Layer 1
10
-66.736651
20
279.071843
70
0
0
VERTEX
8
Layer 1
10
-65.932321
20
279.825862
70
0
0
VERTEX
8
Layer 1
10
-64.984501
20
280.383181
70
0
0
VERTEX
8
Layer 1
10
-63.906051
20
280.728668
70
0
0
VERTEX
8
Layer 1
10
-62.709834
20
280.847193
70
0
0
VERTEX
8
Layer 1
10
-62.709834
20
280.847193
70
0
0
SEQEND
8
Layer 1
0
POLYLINE
8
Layer 1
62
7
70
0
10
0.000000
20
0.000000
66
1
0
VERTEX
8
Layer 1
10
-50.336184
20
273.423001
70
0
0
VERTEX
8
Layer 1
10
-45.171529
20
273.423001
70
0
0
VERTEX
8
Layer 1
10
-44.014525
20
273.258243
70
0
0
VERTEX
8
Layer 1
10
-43.210573
20
272.750520
70
0
0
VERTEX
8
Layer 1
10
-42.741518
20
271.879657
70
0
0
VERTEX
8
Layer 1
10
-42.589201
20
270.625480
70
0
0
VERTEX
8
Layer 1
10
-42.610720
20
269.226719
70
0
0
VERTEX
8
Layer 1
10
-42.489674
20
267.825268
70
0
0
VERTEX
8
Layer 1
10
-42.158813
20
266.665910
70
0
0
VERTEX
8
Layer 1
10
-39.727121
20
266.665910
70
0
0
VERTEX
8
Layer 1
10
-39.727121
20
267.160857
70
0
0
VERTEX
8
Layer 1
10
-40.186762
20
267.579476
70
0
0
VERTEX
8
Layer 1
10
-40.466850
20
268.153439
70
0
0
VERTEX
8
Layer 1
10
-40.673975
20
270.324208
70
0
0
VERTEX
8
Layer 1
10
-40.776864
20
271.949595
70
0
0
VERTEX
8
Layer 1
10
-41.109742
20
273.062551
70
0
0
VERTEX
8
Layer 1
10
-41.757342
20
273.828507
70
0
0
VERTEX
8
Layer 1
10
-42.804395
20
274.412893
70
0
0
VERTEX
8
Layer 1
10
-41.673282
20
275.115972
70
0
0
VERTEX
8
Layer 1
10
-40.905308
20
275.938081
70
0
0
VERTEX
8
Layer 1
10
-40.468195
20
276.933689
70
0
0
VERTEX
8
Layer 1
10
-40.329664
20
278.157268
70
0
0
VERTEX
8
Layer 1
10
-40.407840
20
279.116058
70
0
0
VERTEX
8
Layer 1
10
-40.640350
20
279.956828
70
0
0
VERTEX
8
Layer 1
10
-41.024169
20
280.676551
70
0
0
VERTEX
8
Layer 1
10
-41.556270
20
281.272201
70
0
0
VERTEX
8
Layer 1
10
-42.233626
20
281.740752
70
0
0
VERTEX
8
Layer 1
10
-43.053213
20
282.079179
70
0
0
VERTEX
8
Layer 1
10
-44.012003
20
282.284453
70
0
0
VERTEX
8
Layer 1
10
-45.106970
20
282.353551
70
0
0
VERTEX
8
Layer 1
10
-52.337488
20
282.353551
70
0
0
VERTEX
8
Layer 1
10
-52.337488
20
266.665910
70
0
0
VERTEX
8
Layer 1
10
-50.336184
20
266.665910
70
0
0
VERTEX
8
Layer 1
10
-50.336184
20
273.423001
70
0
0
SEQEND
8
Layer 1
0
POLYLINE
8
Layer 1
62
7
70
0
10
0.000000
20
0.000000
66
1
0
VERTEX
8
Layer 1
10
-50.336184
20
275.187592
70
0
0
VERTEX
8
Layer 1
10
-50.336184
20
280.588960
70
0
0
VERTEX
8
Layer 1
10
-45.494319
20
280.588960
70
0
0
VERTEX
8
Layer 1
10
-44.130528
20
280.449084
70
0
0
VERTEX
8
Layer 1
10
-43.234783
20
279.986417
70
0
0
VERTEX
8
Layer 1
10
-42.624170
20
279.120261
70
0
0
VERTEX
8
Layer 1
10
-42.417046
20
277.899036
70
0
0
VERTEX
8
Layer 1
10
-42.598279
20
276.685543
70
0
0
VERTEX
8
Layer 1
10
-43.156775
20
275.841243
70
0
0
VERTEX
8
Layer 1
10
-44.114724
20
275.347978
70
0
0
VERTEX
8
Layer 1
10
-45.494319
20
275.187592
70
0
0
VERTEX
8
Layer 1
10
-50.336184
20
275.187592
70
0
0
SEQEND
8
Layer 1
0
POLYLINE
8
Layer 1
62
7
70
0
10
0.000000
20
0.000000
66
1
0
VERTEX
8
Layer 1
10
-26.299013
20
282.353551
70
0
0
VERTEX
8
Layer 1
10
-37.596697
20
282.353551
70
0
0
VERTEX
8
Layer 1
10
-37.596697
20
280.588960
70
0
0
VERTEX
8
Layer 1
10
-28.773744
20
280.588960
70
0
0
VERTEX
8
Layer 1
10
-38.199240
20
268.430501
70
0
0
VERTEX
8
Layer 1
10
-38.199240
20
266.665910
70
0
0
VERTEX
8
Layer 1
10
-26.255974
20
266.665910
70
0
0
VERTEX
8
Layer 1
10
-26.255974
20
268.430501
70
0
0
VERTEX
8
Layer 1
10
-35.681471
20
268.430501
70
0
0
VERTEX
8
Layer 1
10
-26.299013
20
280.545922
70
0
0
VERTEX
8
Layer 1
10
-26.299013
20
282.353551
70
0
0
SEQEND
8
Layer 1
0
POLYLINE
8
Layer 1
62
7
70
0
10
0.000000
20
0.000000
66
1
0
VERTEX
8
Layer 1
10
-21.952096
20
272.153357
70
0
0
VERTEX
8
Layer 1
10
-19.391288
20
274.714165
70
0
0
VERTEX
8
Layer 1
10
-13.860803
20
266.665910
70
0
0
VERTEX
8
Layer 1
10
-11.493669
20
266.665910
70
0
0
VERTEX
8
Layer 1
10
-17.949488
20
275.962290
70
0
0
VERTEX
8
Layer 1
10
-11.558228
20
282.353551
70
0
0
VERTEX
8
Layer 1
10
-14.140555
20
282.353551
70
0
0
VERTEX
8
Layer 1
10
-21.952096
20
274.412893
70
0
0
VERTEX
8
Layer 1
10
-21.952096
20
282.353551
70
0
0
VERTEX
8
Layer 1
10
-23.953400
20
282.353551
70
0
0
VERTEX
8
Layer 1
10
-23.953400
20
266.665910
70
0
0
VERTEX
8
Layer 1
10
-21.952096
20
266.665910
70
0
0
VERTEX
8
Layer 1
10
-21.952096
20
272.153357
70
0
0
SEQEND
8
Layer 1
0
POLYLINE
8
Layer 1
62
7
70
0
10
0.000000
20
0.000000
66
1
0
VERTEX
8
Layer 1
10
-6.156864
20
273.379962
70
0
0
VERTEX
8
Layer 1
10
-11.278480
20
273.379962
70
0
0
VERTEX
8
Layer 1
10
-11.278480
20
271.830566
70
0
0
VERTEX
8
Layer 1
10
-6.156864
20
271.830566
70
0
0
VERTEX
8
Layer 1
10
-6.156864
20
273.379962
70
0
0
SEQEND
8
Layer 1
0
POLYLINE
8
Layer 1
62
7
70
0
10
0.000000
20
0.000000
66
1
0
VERTEX
8
Layer 1
10
7.873790
20
277.748400
70
0
0
VERTEX
8
Layer 1
10
7.798472
20
278.931967
70
0
0
VERTEX
8
Layer 1
10
7.464922
20
279.857301
70
0
0
VERTEX
8
Layer 1
10
6.640124
20
281.050282
70
0
0
VERTEX
8
Layer 1
10
5.466308
20
281.912403
70
0
0
VERTEX
8
Layer 1
10
3.957596
20
282.435594
70
0
0
VERTEX
8
Layer 1
10
2.128111
20
282.611784
70
0
0
VERTEX
8
Layer 1
10
0.900077
20
282.530413
70
0
0
VERTEX
8
Layer 1
10
-0.195311
20
282.291683
70
0
0
VERTEX
8
Layer 1
10
-1.148469
20
281.903661
70
0
0
VERTEX
8
Layer 1
10
-1.949814
20
281.374418
70
0
0
VERTEX
8
Layer 1
10
-2.589764
20
280.712024
70
0
0
VERTEX
8
Layer 1
10
-3.058736
20
279.924549
70
0
0
VERTEX
8
Layer 1
10
-3.347146
20
279.020062
70
0
0
VERTEX
8
Layer 1
10
-3.445412
20
278.006633
70
0
0
VERTEX
8
Layer 1
10
-3.255100
20
276.702692
70
0
0
VERTEX
8
Layer 1
10
-2.681474
20
275.661018
70
0
0
VERTEX
8
Layer 1
10
-1.720498
20
274.877578
70
0
0
VERTEX
8
Layer 1
10
-0.368139
20
274.348335
70
0
0
VERTEX
8
Layer 1
10
3.526872
20
273.315404
70
0
0
VERTEX
8
Layer 1
10
4.821735
20
272.873248
70
0
0
VERTEX
8
Layer 1
10
5.719161
20
272.312062
70
0
0
VERTEX
8
Layer 1
10
6.241342
20
271.617725
70
0
0
VERTEX
8
Layer 1
10
6.410471
20
270.776115
70
0
0
VERTEX
8
Layer 1
10
6.329437
20
270.149027
70
0
0
VERTEX
8
Layer 1
10
6.101130
20
269.552200
70
0
0
VERTEX
8
Layer 1
10
5.747741
20
269.023966
70
0
0
VERTEX
8
Layer 1
10
5.291463
20
268.602656
70
0
0
VERTEX
8
Layer 1
10
4.091756
20
268.099640
70
0
0
VERTEX
8
Layer 1
10
2.407864
20
267.935555
70
0
0
VERTEX
8
Layer 1
10
1.222616
20
268.013563
70
0
0
VERTEX
8
Layer 1
10
0.237094
20
268.252966
70
0
0
VERTEX
8
Layer 1
10
-0.566857
20
268.661835
70
0
0
VERTEX
8
Layer 1
10
-1.207395
20
269.248238
70
0
0
VERTEX
8
Layer 1
10
-1.842217
20
270.348417
70
0
0
VERTEX
8
Layer 1
10
-2.025132
20
271.658411
70
0
0
VERTEX
8
Layer 1
10
-3.918839
20
271.658411
70
0
0
VERTEX
8
Layer 1
10
-3.682126
20
269.815812
70
0
0
VERTEX
8
Layer 1
10
-2.993505
20
268.408982
70
0
0
VERTEX
8
Layer 1
10
-2.051695
20
267.432875
70
0
0
VERTEX
8
Layer 1
10
-0.849635
20
266.733159
70
0
0
VERTEX
8
Layer 1
10
0.598553
20
266.311849
70
0
0
VERTEX
8
Layer 1
10
2.278747
20
266.170964
70
0
0
VERTEX
8
Layer 1
10
3.615640
20
266.250317
70
0
0
VERTEX
8
Layer 1
10
4.807276
20
266.482996
70
0
0
VERTEX
8
Layer 1
10
5.837517
20
266.860930
70
0
0
VERTEX
8
Layer 1
10
6.690224
20
267.376051
70
0
0
VERTEX
8
Layer 1
10
7.404062
20
268.100985
70
0
0
VERTEX
8
Layer 1
10
7.946418
20
268.979246
70
0
0
VERTEX
8
Layer 1
10
8.291065
20
269.954343
70
0
0
VERTEX
8
Layer 1
10
8.411775
20
270.969790
70
0
0
VERTEX
8
Layer 1
10
8.190193
20
272.320468
70
0
0
VERTEX
8
Layer 1
10
7.542930
20
273.447210
70
0
0
VERTEX
8
Layer 1
10
6.496213
20
274.319755
70
0
0
VERTEX
8
Layer 1
10
5.076269
20
274.907840
70
0
0
VERTEX
8
Layer 1
10
1.138219
20
275.962290
70
0
0
VERTEX
8
Layer 1
10
-0.064177
20
276.373848
70
0
0
VERTEX
8
Layer 1
10
-0.863085
20
276.866105
70
0
0
VERTEX
8
Layer 1
10
-1.306922
20
277.487477
70
0
0
VERTEX
8
Layer 1
10
-1.444108
20
278.286385
70
0
0
VERTEX
8
Layer 1
10
-1.192601
20
279.371769
70
0
0
VERTEX
8
Layer 1
10
-0.481115
20
280.206991
70
0
0
VERTEX
8
Layer 1
10
0.625789
20
280.743631
70
0
0
VERTEX
8
Layer 1
10
2.063553
20
280.933271
70
0
0
VERTEX
8
Layer 1
10
3.725590
20
280.726146
70
0
0
VERTEX
8
Layer 1
10
4.949842
20
280.115534
70
0
0
VERTEX
8
Layer 1
10
5.389603
20
279.663962
70
0
0
VERTEX
8
Layer 1
10
5.710082
20
279.117572
70
0
0
VERTEX
8
Layer 1
10
5.980083
20
277.748400
70
0
0
VERTEX
8
Layer 1
10
7.873790
20
277.748400
70
0
0
SEQEND
8
Layer 1
0
POLYLINE
8
Layer 1
62
7
70
0
10
0.000000
20
0.000000
66
1
0
VERTEX
8
Layer 1
10
13.102997
20
272.153357
70
0
0
VERTEX
8
Layer 1
10
15.663805
20
274.714165
70
0
0
VERTEX
8
Layer 1
10
21.194290
20
266.665910
70
0
0
VERTEX
8
Layer 1
10
23.561424
20
266.665910
70
0
0
VERTEX
8
Layer 1
10
17.105605
20
275.962290
70
0
0
VERTEX
8
Layer 1
10
23.496866
20
282.353551
70
0
0
VERTEX
8
Layer 1
10
20.914538
20
282.353551
70
0
0
VERTEX
8
Layer 1
10
13.102997
20
274.412893
70
0
0
VERTEX
8
Layer 1
10
13.102997
20
282.353551
70
0
0
VERTEX
8
Layer 1
10
11.101693
20
282.353551
70
0
0
VERTEX
8
Layer 1
10
11.101693
20
266.665910
70
0
0
VERTEX
8
Layer 1
10
13.102997
20
266.665910
70
0
0
VERTEX
8
Layer 1
10
13.102997
20
272.153357
70
0
0
SEQEND
8
Layer 1
0
POLYLINE
8
Layer 1
62
7
70
0
10
0.000000
20
0.000000
66
1
0
VERTEX
8
Layer 1
10
24.895620
20
270.216611
70
0
0
VERTEX
8
Layer 1
10
25.398972
20
268.513216
70
0
0
VERTEX
8
Layer 1
10
26.323970
20
267.241554
70
0
0
VERTEX
8
Layer 1
10
26.927564
20
266.781493
70
0
0
VERTEX
8
Layer 1
10
27.616143
20
266.446009
70
0
0
VERTEX
8
Layer 1
10
29.221019
20
266.170964
70
0
0
VERTEX
8
Layer 1
10
30.453341
20
266.320591
70
0
0
VERTEX
8
Layer 1
10
31.574703
20
266.754678
70
0
0
VERTEX
8
Layer 1
10
32.546775
20
267.451032
70
0
0
VERTEX
8
Layer 1
10
33.331224
20
268.387462
70
0
0
VERTEX
8
Layer 1
10
33.945872
20
269.610705
70
0
0
VERTEX
8
Layer 1
10
34.374915
20
271.023588
70
0
0
VERTEX
8
Layer 1
10
34.626423
20
272.678564
70
0
0
VERTEX
8
Layer 1
10
34.708465
20
274.628087
70
0
0
VERTEX
8
Layer 1
10
34.633820
20
276.426302
70
0
0
VERTEX
8
Layer 1
10
34.401814
20
277.925935
70
0
0
VERTEX
8
Layer 1
10
34.000343
20
279.191544
70
0
0
VERTEX
8
Layer 1
10
33.417302
20
280.287689
70
0
0
VERTEX
8
Layer 1
10
32.697410
20
281.125937
70
0
0
VERTEX
8
Layer 1
10
31.806037
20
281.732178
70
0
0
VERTEX
8
Layer 1
10
30.757302
20
282.100362
70
0
0
VERTEX
8
Layer 1
10
29.565329
20
282.224434
70
0
0
VERTEX
8
Layer 1
10
28.516721
20
282.125159
70
0
0
VERTEX
8
Layer 1
10
27.559654
20
281.837758
70
0
0
VERTEX
8
Layer 1
10
26.709008
20
281.377865
70
0
0
VERTEX
8
Layer 1
10
25.979660
20
280.761115
70
0
0
VERTEX
8
Layer 1
10
25.386490
20
280.003145
70
0
0
VERTEX
8
Layer 1
10
24.944375
20
279.119589
70
0
0
VERTEX
8
Layer 1
10
24.668196
20
278.126082
70
0
0
VERTEX
8
Layer 1
10
24.572829
20
277.038260
70
0
0
VERTEX
8
Layer 1
10
24.661429
20
276.006632
70
0
0
VERTEX
8
Layer 1
10
24.918485
20
275.067554
70
0
0
VERTEX
8
Layer 1
10
25.330884
20
274.234896
70
0
0
VERTEX
8
Layer 1
10
25.885513
20
273.522528
70
0
0
VERTEX
8
Layer 1
10
26.569258
20
272.944321
70
0
0
VERTEX
8
Layer 1
10
27.369006
20
272.514143
70
0
0
VERTEX
8
Layer 1
10
28.271644
20
272.245865
70
0
0
VERTEX
8
Layer 1
10
29.264058
20
272.153357
70
0
0
VERTEX
8
Layer 1
10
30.280849
20
272.252548
70
0
0
VERTEX
8
Layer 1
10
31.184664
20
272.559535
70
0
0
VERTEX
8
Layer 1
10
31.999711
20
273.088442
70
0
0
VERTEX
8
Layer 1
10
32.750200
20
273.853389
70
0
0
VERTEX
8
Layer 1
10
32.515504
20
271.281149
70
0
0
VERTEX
8
Layer 1
10
32.238022
20
270.251496
70
0
0
VERTEX
8
Layer 1
10
31.857145
20
269.398874
70
0
0
VERTEX
8
Layer 1
10
31.375397
20
268.727822
70
0
0
VERTEX
8
Layer 1
10
30.795298
20
268.242879
70
0
0
VERTEX
8
Layer 1
10
30.119370
20
267.948584
70
0
0
VERTEX
8
Layer 1
10
29.350136
20
267.849477
70
0
0
VERTEX
8
Layer 1
10
28.429509
20
268.007510
70
0
0
VERTEX
8
Layer 1
10
27.682382
20
268.468160
70
0
0
VERTEX
8
Layer 1
10
27.128930
20
269.211252
70
0
0
VERTEX
8
Layer 1
10
26.789327
20
270.216611
70
0
0
VERTEX
8
Layer 1
10
24.895620
20
270.216611
70
0
0
SEQEND
8
Layer 1
0
POLYLINE
8
Layer 1
62
7
70
0
10
0.000000
20
0.000000
66
1
0
VERTEX
8
Layer 1
10
29.543810
20
280.567441
70
0
0
VERTEX
8
Layer 1
10
30.772433
20
280.304165
70
0
0
VERTEX
8
Layer 1
10
31.754928
20
279.574859
70
0
0
VERTEX
8
Layer 1
10
32.406562
20
278.470308
70
0
0
VERTEX
8
Layer 1
10
32.642603
20
277.081299
70
0
0
VERTEX
8
Layer 1
10
32.411606
20
275.765589
70
0
0
VERTEX
8
Layer 1
10
31.762998
20
274.738374
70
0
0
VERTEX
8
Layer 1
10
30.763355
20
274.070264
70
0
0
VERTEX
8
Layer 1
10
29.479252
20
273.831870
70
0
0
VERTEX
8
Layer 1
10
28.243568
20
274.065893
70
0
0
VERTEX
8
Layer 1
10
27.308483
20
274.735684
70
0
0
VERTEX
8
Layer 1
10
26.716363
20
275.792825
70
0
0
VERTEX
8
Layer 1
10
26.509575
20
277.188896
70
0
0
VERTEX
8
Layer 1
10
26.735529
20
278.542936
70
0
0
VERTEX
8
Layer 1
10
27.364971
20
279.612518
70
0
0
VERTEX
8
Layer 1
10
28.325274
20
280.314924
70
0
0
VERTEX
8
Layer 1
10
29.543810
20
280.567441
70
0
0
VERTEX
8
Layer 1
10
29.543810
20
280.567441
70
0
0
SEQEND
8
Layer 1
0
POLYLINE
8
Layer 1
62
7
70
0
10
0.000000
20
0.000000
66
1
0
VERTEX
8
Layer 1
10
41.637705
20
282.224434
70
0
0
VERTEX
8
Layer 1
10
40.602420
20
282.107087
70
0
0
VERTEX
8
Layer 1
10
39.649851
20
281.769837
70
0
0
VERTEX
8
Layer 1
10
38.814293
20
281.234878
70
0
0
VERTEX
8
Layer 1
10
38.130043
20
280.524402
70
0
0
VERTEX
8
Layer 1
10
37.480426
20
279.360337
70
0
0
VERTEX
8
Layer 1
10
37.016414
20
277.925935
70
0
0
VERTEX
8
Layer 1
10
36.738007
20
276.209091
70
0
0
VERTEX
8
Layer 1
10
36.645205
20
274.197699
70
0
0
VERTEX
8
Layer 1
10
36.725566
20
272.345266
70
0
0
VERTEX
8
Layer 1
10
36.965306
20
270.728369
70
0
0
VERTEX
8
Layer 1
10
37.362406
20
269.350539
70
0
0
VERTEX
8
Layer 1
10
37.914849
20
268.215307
70
0
0
VERTEX
8
Layer 1
10
38.620618
20
267.326203
70
0
0
VERTEX
8
Layer 1
10
39.477695
20
266.686757
70
0
0
VERTEX
8
Layer 1
10
40.484063
20
266.300501
70
0
0
VERTEX
8
Layer 1
10
41.637705
20
266.170964
70
0
0
VERTEX
8
Layer 1
10
42.778989
20
266.300249
70
0
0
VERTEX
8
Layer 1
10
43.779557
20
266.684740
70
0
0
VERTEX
8
Layer 1
10
44.635878
20
267.319394
70
0
0
VERTEX
8
Layer 1
10
45.344421
20
268.199168
70
0
0
VERTEX
8
Layer 1
10
45.901656
20
269.319017
70
0
0
VERTEX
8
Layer 1
10
46.304052
20
270.673898
70
0
0
VERTEX
8
Layer 1
10
46.548078
20
272.258768
70
0
0
VERTEX
8
Layer 1
10
46.630205
20
274.068583
70
0
0
VERTEX
8
Layer 1
10
46.540429
20
276.148567
70
0
0
VERTEX
8
Layer 1
10
46.267065
20
277.893656
70
0
0
VERTEX
8
Layer 1
10
45.804062
20
279.340163
70
0
0
VERTEX
8
Layer 1
10
45.145367
20
280.524402
70
0
0
VERTEX
8
Layer 1
10
44.464143
20
281.243957
70
0
0
VERTEX
8
Layer 1
10
43.633629
20
281.777907
70
0
0
VERTEX
8
Layer 1
10
42.682068
20
282.110113
70
0
0
VERTEX
8
Layer 1
10
41.637705
20
282.224434
70
0
0
VERTEX
8
Layer 1
10
41.637705
20
282.224434
70
0
0
SEQEND
8
Layer 1
0
POLYLINE
8
Layer 1
62
7
70
0
10
0.000000
20
0.000000
66
1
0
VERTEX
8
Layer 1
10
41.637705
20
280.545922
70
0
0
VERTEX
8
Layer 1
10
42.355957
20
280.447991
70
0
0
VERTEX
8
Layer 1
10
42.977624
20
280.153865
70
0
0
VERTEX
8
Layer 1
10
43.502957
20
279.663038
70
0
0
VERTEX
8
Layer 1
10
43.932211
20
278.975006
70
0
0
VERTEX
8
Layer 1
10
44.503483
20
277.005308
70
0
0
VERTEX
8
Layer 1
10
44.693459
20
274.240738
70
0
0
VERTEX
8
Layer 1
10
44.505837
20
271.355122
70
0
0
VERTEX
8
Layer 1
10
44.269040
20
270.236365
70
0
0
VERTEX
8
Layer 1
10
43.934900
20
269.328936
70
0
0
VERTEX
8
Layer 1
10
43.501907
20
268.629303
70
0
0
VERTEX
8
Layer 1
10
42.968545
20
268.133937
70
0
0
VERTEX
8
Layer 1
10
42.333303
20
267.839306
70
0
0
VERTEX
8
Layer 1
10
41.594666
20
267.741880
70
0
0
VERTEX
8
Layer 1
10
40.890620
20
267.842710
70
0
0
VERTEX
8
Layer 1
10
40.279629
20
268.145033
70
0
0
VERTEX
8
Layer 1
10
39.761945
20
268.648595
70
0
0
VERTEX
8
Layer 1
10
39.337819
20
269.353145
70
0
0
VERTEX
8
Layer 1
10
38.771254
20
271.364200
70
0
0
VERTEX
8
Layer 1
10
38.581950
20
274.176180
70
0
0
VERTEX
8
Layer 1
10
38.771926
20
276.978073
70
0
0
VERTEX
8
Layer 1
10
39.343199
20
278.966936
70
0
0
VERTEX
8
Layer 1
10
39.772452
20
279.659633
70
0
0
VERTEX
8
Layer 1
10
40.297786
20
280.152856
70
0
0
VERTEX
8
Layer 1
10
40.919453
20
280.447865
70
0
0
VERTEX
8
Layer 1
10
41.637705
20
280.545922
70
0
0
VERTEX
8
Layer 1
10
41.637705
20
280.545922
70
0
0
SEQEND
8
Layer 1
0
POLYLINE
8
Layer 1
62
7
70
0
10
0.000000
20
0.000000
66
1
0
VERTEX
8
Layer 1
10
59.283607
20
272.411589
70
0
0
VERTEX
8
Layer 1
10
48.760622
20
276.866105
70
0
0
VERTEX
8
Layer 1
10
48.760622
20
275.166072
70
0
0
VERTEX
8
Layer 1
10
57.239264
20
271.636891
70
0
0
VERTEX
8
Layer 1
10
48.760622
20
268.172268
70
0
0
VERTEX
8
Layer 1
10
48.760622
20
266.472236
70
0
0
VERTEX
8
Layer 1
10
59.283607
20
270.926751
70
0
0
VERTEX
8
Layer 1
10
59.283607
20
272.411589
70
0
0
SEQEND
8
Layer 1
0
POLYLINE
8
Layer 1
62
7
70
0
10
0.000000
20
0.000000
66
1
0
VERTEX
8
Layer 1
10
71.850931
20
272.411589
70
0
0
VERTEX
8
Layer 1
10
61.327946
20
276.866105
70
0
0
VERTEX
8
Layer 1
10
61.327946
20
275.166072
70
0
0
VERTEX
8
Layer 1
10
69.806588
20
271.636891
70
0
0
VERTEX
8
Layer 1
10
61.327946
20
268.172268
70
0
0
VERTEX
8
Layer 1
10
61.327946
20
266.472236
70
0
0
VERTEX
8
Layer 1
10
71.850931
20
270.926751
70
0
0
VERTEX
8
Layer 1
10
71.850931
20
272.411589
70
0
0
SEQEND
8
Layer 1
0
POLYLINE
8
Layer 1
62
7
70
0
10
0.000000
20
0.000000
66
1
0
VERTEX
8
Layer 1
10
84.418245
20
272.411589
70
0
0
VERTEX
8
Layer 1
10
73.895260
20
276.866105
70
0
0
VERTEX
8
Layer 1
10
73.895260
20
275.166072
70
0
0
VERTEX
8
Layer 1
10
82.373902
20
271.636891
70
0
0
VERTEX
8
Layer 1
10
73.895260
20
268.172268
70
0
0
VERTEX
8
Layer 1
10
73.895260
20
266.472236
70
0
0
VERTEX
8
Layer 1
10
84.418245
20
270.926751
70
0
0
VERTEX
8
Layer 1
10
84.418245
20
272.411589
70
0
0
SEQEND
8
Layer 1
 0 
ENDSEC
 0 
EOF